<?xml version="1.0" encoding="UTF-8"?>
<svg width="60px" height="60px" viewBox="0 0 60 60" version="1.1" xmlns="http://www.w3.org/2000/svg" xmlns:xlink="http://www.w3.org/1999/xlink">
    <!-- Generator: Sketch 50.2 (55047) - http://www.bohemiancoding.com/sketch -->
    <title>annual-1</title>
    <desc>Created with Sketch.</desc>
    <defs></defs>
    <g id="annual-1" stroke="none" stroke-width="1" fill="none" fill-rule="evenodd">
        <path d="M52.5005,18.42875 C50.86175,18.42875 49.4555,17.13875 49.4555,15.49625 C49.4555,13.8575 50.86175,12.45125 52.5005,12.45125 C54.13925,12.45125 55.5455,13.8575 55.5455,15.49625 C55.5455,17.13875 54.13925,18.42875 52.5005,18.42875 M52.5005,8 C48.398,8 45.0005,11.28125 45.0005,15.5 C45.0005,19.6025 48.398,23 52.5005,23 C56.59925,23 60.0005,19.59875 60.0005,15.5 C60.0005,11.28125 56.59925,8 52.5005,8 M45.0005,32.0225 C45.0005,35.30375 42.30425,38 39.023,38 C35.74175,38 33.0455,35.30375 33.0455,32.0225 C33.0455,28.62125 35.74175,25.92875 39.023,25.92875 C42.30425,25.92875 45.0005,28.625 45.0005,32.0225 M26.9555,25.92875 C26.9555,29.33 24.2555,32.0225 20.97425,32.0225 C17.693,32.0225 15.0005,29.32625 15.0005,25.92875 C15.0005,22.6475 17.693,19.95125 20.97425,19.95125 C24.2555,19.95125 26.9555,22.6475 26.9555,25.92875 M11.95175,43.97375 C11.95175,47.255 9.2555,49.955 5.97425,49.955 C2.693,49.955 0.0005,47.255 0.0005,43.97375 C0.0005,40.6925 2.693,37.99625 5.97425,37.99625 C9.2555,37.99625 11.95175,40.6925 11.95175,43.97375" id="Fill-1" fill="#000000"></path>
    </g>
</svg>