<?xml version="1.0" encoding="UTF-8"?>
<svg width="60px" height="60px" viewBox="0 0 60 60" version="1.1" xmlns="http://www.w3.org/2000/svg" xmlns:xlink="http://www.w3.org/1999/xlink">
    <!-- Generator: Sketch 50.2 (55047) - http://www.bohemiancoding.com/sketch -->
    <title>app-reports</title>
    <desc>Created with Sketch.</desc>
    <defs></defs>
    <g id="app-reports" stroke="none" stroke-width="1" fill="none" fill-rule="evenodd">
        <g id="Page-1" transform="translate(7.000000, 0.000000)">
            <g id="Group" transform="translate(0.000000, 1.391881)">
                <path d="M32.0930233,0 L47.4418605,15.3361207 L47.4418605,52.979326 L2.79069767,52.979326 L2.79069767,0 L32.0930233,0 Z" id="Combined-Shape" fill="#FFFFFF"></path>
                <path d="M30.6976744,5.57816535 L5.5827907,5.57816535 L5.5827907,52.9807202 L41.8618605,52.9807202 L41.8618605,16.7303135 L47.4432558,16.7303135 L47.4432558,58.5560972 L0,58.5560972 L0,7.81597009e-14 L30.6976744,2.77139182e-13 L30.6976744,5.57816535 Z M32.0944186,5.57816535 L32.0944186,2.86192748e-13 L32.0930233,5.57816535 Z" id="Combined-Shape" fill="#616365"></path>
                <path d="M9.76744186,34.8548198 L9.76744186,30.6722414 L16.744186,30.6722414 L16.744186,34.8548198 L9.76744186,34.8548198 Z M20.2325581,34.8548198 L20.2325581,30.6722414 L27.2093023,30.6722414 L27.2093023,34.8548198 L20.2325581,34.8548198 Z M30.6976744,34.8548198 L30.6976744,30.6722414 L37.6744186,30.6722414 L37.6744186,34.8548198 L30.6976744,34.8548198 Z M9.76744186,41.8257837 L9.76744186,37.6432053 L16.744186,37.6432053 L16.744186,41.8257837 L9.76744186,41.8257837 Z M20.2325581,41.8257837 L20.2325581,37.6432053 L27.2093023,37.6432053 L27.2093023,41.8257837 L20.2325581,41.8257837 Z M30.6976744,41.8257837 L30.6976744,37.6432053 L37.6744186,37.6432053 L37.6744186,41.8257837 L30.6976744,41.8257837 Z M9.76744186,48.7967477 L9.76744186,44.6141693 L16.744186,44.6141693 L16.744186,48.7967477 L9.76744186,48.7967477 Z M20.2325581,48.7967477 L20.2325581,44.6141693 L27.2093023,44.6141693 L27.2093023,48.7967477 L20.2325581,48.7967477 Z M30.6976744,48.7967477 L30.6976744,44.6141693 L37.6744186,44.6141693 L37.6744186,48.7967477 L30.6976744,48.7967477 Z M9.76744186,27.8838558 L9.76744186,26.489663 L37.675814,26.489663 L37.675814,27.8838558 L9.76744186,27.8838558 Z" id="Combined-Shape" fill="#B0B1B2"></path>
                <polygon id="Fill-4" fill="#616365" points="11.1627907 26.489663 15.3488372 26.489663 15.3488372 12.5477351 11.1627907 12.5477351"></polygon>
                <polygon id="Fill-5" fill="#616365" points="32.0930233 26.489663 36.2790698 26.489663 36.2790698 19.5186991 32.0930233 19.5186991"></polygon>
                <polygon id="Fill-6" fill="#616365" points="25.1162791 26.489663 29.3023256 26.489663 29.3023256 13.9419279 25.1162791 13.9419279"></polygon>
                <polygon id="Fill-8" fill="#616365" points="18.1395349 26.489663 22.3255814 26.489663 22.3255814 16.7303135 18.1395349 16.7303135"></polygon>
                <polygon id="Fill-1" fill="#B0B1B2" transform="translate(39.767442, 7.668060) scale(-1, 1) translate(-39.767442, -7.668060) " points="47.4418605 0 32.0930233 15.3361207 47.4418605 15.3361207"></polygon>
            </g>
        </g>
    </g>
</svg>