<?xml version="1.0" encoding="UTF-8"?>
<svg width="60px" height="60px" viewBox="0 0 60 60" version="1.1" xmlns="http://www.w3.org/2000/svg" xmlns:xlink="http://www.w3.org/1999/xlink">
    <!-- Generator: Sketch 50.2 (55047) - http://www.bohemiancoding.com/sketch -->
    <title>app-network</title>
    <desc>Created with Sketch.</desc>
    <defs></defs>
    <g id="app-network" stroke="none" stroke-width="1" fill="none" fill-rule="evenodd">
        <g id="network-(1)" fill="#000000" fill-rule="nonzero">
            <path d="M18.3268482,2.45136187 C3.15175097,9.10505837 -4.08560311,26.381323 2.45136187,41.6731518 C9.10505837,56.848249 26.381323,64.0856031 41.6731518,57.5486381 C56.848249,50.8949416 64.0856031,33.618677 57.5486381,18.3268482 C50.8949416,3.15175097 33.618677,-4.08560311 18.3268482,2.45136187 Z M50.311284,34.7859922 C49.7276265,35.3696498 49.1439689,35.9533074 48.5603113,36.8871595 C48.5603113,33.2684825 47.9766537,29.6498054 46.459144,26.1478599 C48.7937743,23.6964981 50.6614786,21.0116732 50.8949416,18.9105058 C51.2451362,19.4941634 51.4785992,20.4280156 52.0622568,21.0116732 C52.9961089,23.1128405 53.5797665,25.5642023 53.9299611,27.6653696 C53.5797665,29.4163424 52.4124514,32.1011673 50.311284,34.7859922 Z M11.7898833,45.5252918 C10.2723735,43.7743191 9.10505837,41.6731518 7.93774319,39.2217899 C7.58754864,38.6381323 7.23735409,37.8210117 7.00389105,37.1206226 C9.10505837,38.4046693 12.0233463,38.9883268 15.4085603,38.9883268 C17.1595331,42.6070039 19.2607004,45.5252918 21.5953307,47.9766537 C20.7782101,47.9766537 19.844358,47.9766537 18.9105058,47.9766537 C15.9922179,47.6264591 13.540856,46.692607 11.7898833,45.5252918 Z M17.1595331,38.9883268 C19.844358,38.6381323 22.8793774,38.0544747 26.1478599,37.1206226 C27.8988327,40.7392996 29.4163424,43.7743191 31.1673152,46.459144 C28.8326848,47.0428016 26.381323,47.6264591 24.0466926,47.9766537 C21.3618677,45.5252918 18.9105058,42.2568093 17.1595331,38.9883268 Z M15.6420233,35.9533074 C14.4747082,33.0350195 13.540856,30 13.307393,26.9649805 C15.6420233,26.9649805 18.3268482,26.381323 21.0116732,25.5642023 C21.9455253,27.8988327 22.8793774,30.3501946 23.6964981,32.6848249 C24.2801556,33.8521401 24.6303502,34.7859922 25.2140078,35.9533074 C21.9455253,36.8871595 18.9105058,37.4708171 16.2256809,37.4708171 C16.2256809,36.8871595 15.9922179,36.536965 15.6420233,35.9533074 Z M44.5914397,25.2140078 C42.6070039,26.9649805 40.155642,28.8326848 37.1206226,30.5836576 C36.8871595,29.4163424 36.3035019,28.4824903 35.9533074,27.3151751 C35.1361868,24.8638132 33.8521401,22.5291829 32.6848249,20.4280156 C35.3696498,18.9105058 37.4708171,17.3929961 39.2217899,15.9922179 C41.3229572,18.3268482 42.8404669,21.0116732 44.0077821,24.0466926 C44.3579767,24.2801556 44.5914397,24.8638132 44.5914397,25.2140078 Z M39.2217899,52.0622568 C38.0544747,52.7626459 35.7198444,50.6614786 33.2684825,47.2762646 C34.4357977,47.0428016 35.3696498,46.459144 36.536965,46.1089494 C37.8210117,45.5252918 38.6381323,45.2918288 39.8054475,44.5914397 C40.7392996,48.5603113 40.5058366,51.4785992 39.2217899,52.0622568 Z M35.9533074,44.5914397 C34.7859922,45.2918288 33.618677,45.5252918 32.3346304,46.1089494 C30.5836576,43.7743191 29.0661479,40.5058366 27.3151751,36.8871595 C28.8326848,36.3035019 30.3501946,35.7198444 32.1011673,35.1361868 C33.618677,34.4357977 35.1361868,33.618677 36.536965,33.0350195 C38.0544747,36.536965 38.9883268,40.155642 39.5719844,43.1906615 C38.4046693,43.4241245 37.1206226,44.0077821 35.9533074,44.5914397 Z M31.5175097,33.618677 C30,34.2023346 28.2490272,34.7859922 26.7315175,35.3696498 C26.1478599,34.2023346 25.7976654,33.2684825 25.2140078,32.1011673 C24.2801556,29.6498054 23.463035,27.3151751 22.5291829,24.8638132 C24.0466926,24.6303502 25.5642023,24.0466926 26.9649805,23.1128405 C28.4824903,22.5291829 30,21.9455253 31.5175097,21.0116732 C32.6848249,23.1128405 33.618677,25.5642023 34.7859922,27.8988327 C35.3696498,29.0661479 35.7198444,30.3501946 36.3035019,31.1673152 C34.4357977,32.1011673 33.0350195,33.0350195 31.5175097,33.618677 Z M20.7782101,7.93774319 C21.9455253,7.23735409 23.463035,8.75486381 25.5642023,11.2062257 C24.6303502,11.7898833 23.6964981,12.0233463 22.5291829,12.7237354 C21.5953307,12.9571984 20.4280156,13.540856 19.4941634,13.8910506 C19.2607004,10.6225681 19.4941634,8.52140078 20.7782101,7.93774319 Z M23.1128405,13.8910506 C24.2801556,13.307393 25.2140078,12.9571984 26.1478599,12.3735409 C27.6653696,14.4747082 29.0661479,16.8093385 30.5836576,19.844358 C29.4163424,20.4280156 27.8988327,21.3618677 26.381323,21.9455253 C24.8638132,22.5291829 23.463035,23.1128405 21.9455253,23.6964981 C21.0116732,20.7782101 20.1945525,17.7431907 19.844358,15.4085603 C21.0116732,14.7081712 21.9455253,14.4747082 23.1128405,13.8910506 Z M32.1011673,19.2607004 C30.5836576,16.5758755 29.4163424,14.1245136 27.8988327,12.0233463 C27.8988327,12.0233463 27.6653696,11.7898833 27.6653696,11.7898833 C28.8326848,11.2062257 30,10.2723735 30.9338521,9.68871595 C31.1673152,9.3385214 31.5175097,9.3385214 31.7509728,9.10505837 C34.2023346,10.2723735 36.536965,12.3735409 38.6381323,14.7081712 C36.8871595,16.2256809 34.7859922,17.7431907 32.1011673,19.2607004 Z M26.7315175,10.6225681 C25.5642023,9.10505837 24.2801556,7.93774319 23.463035,7.23735409 C25.5642023,7.00389105 27.8988327,7.58754864 30.3501946,8.52140078 C29.4163424,9.10505837 28.2490272,9.92217899 26.7315175,10.6225681 Z M28.2490272,6.07003891 C29.6498054,6.07003891 30.9338521,6.07003891 32.3346304,6.07003891 C32.3346304,6.42023346 32.1011673,6.6536965 31.7509728,7.23735409 C30.3501946,7.00389105 29.4163424,6.42023346 28.2490272,6.07003891 Z M12.7237354,15.4085603 C12.0233463,15.4085603 11.4396887,15.4085603 11.4396887,15.4085603 C12.0233463,14.1245136 13.307393,13.307393 14.1245136,12.3735409 C13.540856,13.307393 12.9571984,14.1245136 12.7237354,15.4085603 Z M18.0933852,9.3385214 C18.0933852,10.8560311 18.0933852,12.3735409 18.3268482,14.1245136 C16.5758755,14.7081712 15.4085603,15.0583658 14.1245136,15.4085603 C15.0583658,12.9571984 16.5758755,10.8560311 18.0933852,9.3385214 Z M14.7081712,16.5758755 C15.9922179,16.2256809 17.1595331,15.9922179 18.3268482,15.6420233 C18.3268482,15.6420233 18.3268482,15.9922179 18.3268482,15.9922179 C18.9105058,18.6770428 19.844358,21.0116732 20.7782101,24.0466926 C17.7431907,24.8638132 15.4085603,25.5642023 13.307393,25.7976654 C12.9571984,22.5291829 13.307393,19.4941634 13.8910506,16.8093385 C14.1245136,16.8093385 14.4747082,16.5758755 14.7081712,16.5758755 Z M31.7509728,47.6264591 C32.1011673,47.6264591 32.1011673,47.6264591 31.7509728,47.6264591 C33.618677,50.311284 35.1361868,51.8287938 36.3035019,52.7626459 C32.6848249,52.9961089 28.8326848,51.8287938 25.2140078,49.1439689 C27.6653696,48.7937743 29.6498054,48.2101167 31.7509728,47.6264591 Z M41.3229572,43.7743191 C43.1906615,42.6070039 45.2918288,41.0894942 46.692607,39.8054475 C46.1089494,44.3579767 44.5914397,47.9766537 41.6731518,50.311284 C41.9066148,48.7937743 41.9066148,46.692607 41.3229572,43.7743191 Z M41.0894942,42.2568093 C40.5058366,39.2217899 39.2217899,35.7198444 38.0544747,32.1011673 C41.0894942,30.5836576 43.4241245,28.8326848 45.5252918,26.9649805 C46.692607,30.9338521 47.2762646,34.7859922 47.2762646,38.0544747 C45.2918288,39.5719844 43.1906615,40.7392996 41.0894942,42.2568093 Z M49.3774319,15.9922179 C50.311284,18.0933852 48.7937743,21.0116732 45.8754864,24.2801556 C45.8754864,24.0466926 45.5252918,23.6964981 45.5252918,23.463035 C44.3579767,20.4280156 42.6070039,17.3929961 40.7392996,15.0583658 C42.6070039,13.307393 43.4241245,11.7898833 43.7743191,10.2723735 C45.8754864,11.7898833 47.6264591,13.8910506 49.3774319,15.9922179 Z M42.2568093,9.3385214 C42.6070039,10.2723735 41.6731518,12.0233463 39.8054475,13.8910506 C38.0544747,12.0233463 36.3035019,10.2723735 34.2023346,9.10505837 C33.618677,8.75486381 33.2684825,8.52140078 32.6848249,8.17120623 C33.2684825,7.58754864 33.618677,7.00389105 33.618677,6.42023346 C36.536965,7.00389105 39.5719844,7.93774319 42.2568093,9.3385214 Z M10.2723735,16.2256809 C10.6225681,16.5758755 11.2062257,16.8093385 12.0233463,16.8093385 C12.0233463,17.3929961 12.0233463,18.0933852 11.7898833,18.3268482 C11.4396887,20.7782101 11.4396887,23.1128405 11.7898833,25.7976654 C9.10505837,25.7976654 7.23735409,25.5642023 6.6536965,24.6303502 C7.23735409,21.5953307 8.75486381,18.9105058 10.2723735,16.2256809 Z M6.42023346,26.381323 C7.58754864,27.3151751 9.3385214,27.6653696 11.7898833,27.3151751 C12.0233463,30.3501946 12.9571984,33.618677 14.4747082,36.536965 C14.4747082,36.8871595 14.7081712,37.1206226 14.7081712,37.4708171 C10.6225681,37.4708171 7.58754864,36.536965 6.42023346,34.4357977 C6.07003891,31.5175097 6.07003891,28.8326848 6.42023346,26.381323 Z M15.0583658,48.5603113 C16.2256809,48.7937743 17.7431907,49.1439689 18.9105058,49.1439689 C20.4280156,49.1439689 21.5953307,49.1439689 23.1128405,49.1439689 C24.0466926,50.077821 24.8638132,50.6614786 25.7976654,50.8949416 C27.8988327,52.0622568 29.6498054,53.3463035 31.7509728,53.5797665 C25.5642023,54.1634241 19.844358,52.4124514 15.0583658,48.5603113 Z M45.8754864,47.9766537 C46.692607,46.1089494 47.6264591,44.0077821 47.9766537,41.6731518 C48.2101167,40.7392996 48.2101167,39.8054475 48.2101167,38.6381323 C49.3774319,37.8210117 50.311284,36.536965 51.2451362,35.7198444 C52.0622568,34.4357977 52.9961089,33.2684825 53.5797665,32.1011673 C53.3463035,38.0544747 50.311284,43.7743191 45.8754864,47.9766537 Z" id="Shape"></path>
        </g>
    </g>
</svg>