<svg id="Layer_1" data-name="Layer 1" xmlns="http://www.w3.org/2000/svg" xmlns:xlink="http://www.w3.org/1999/xlink" viewBox="0 0 24 24"><defs><clipPath id="clip-path"><polygon points="-308.68 10.84 -316.18 18.34 -308.68 25.84 -307.31 24.46 -312.46 19.32 -301.18 19.32 -301.18 17.37 -312.46 17.37 -307.31 12.22 -308.68 10.84" style="fill:none;clip-rule:evenodd"/></clipPath><clipPath id="clip-path-2"><polygon points="197.08 -79.74 205.57 -88.22 207.45 -86.34 196.85 -75.73 194.96 -77.62 191.82 -80.76 193.94 -82.88 197.08 -79.74" style="fill:none;clip-rule:evenodd"/></clipPath><clipPath id="clip-path-3"><polygon points="-36.42 -106.24 -27.93 -114.72 -26.05 -112.84 -36.65 -102.23 -38.54 -104.12 -41.68 -107.26 -39.56 -109.38 -36.42 -106.24" style="clip-rule:evenodd"/></clipPath><clipPath id="clip-path-4"><path d="M-26.61-136.33a8,8,0,0,0-1.71-2.54,8,8,0,0,0-2.54-1.71,8,8,0,0,0-3.11-.63,8,8,0,0,0-3.11.63,8,8,0,0,0-2.54,1.71,8,8,0,0,0-1.71,2.54,8,8,0,0,0-.63,3.11,8,8,0,0,0,.63,3.11,8,8,0,0,0,1.71,2.54,8,8,0,0,0,2.54,1.71,8,8,0,0,0,3.11.63,8,8,0,0,0,3.11-.63,8,8,0,0,0,2.54-1.71,8,8,0,0,0,1.71-2.54,8,8,0,0,0,.63-3.11A8,8,0,0,0-26.61-136.33ZM-34-127.71a1.09,1.09,0,0,1-1.09-1.09A1.09,1.09,0,0,1-34-129.89a1.09,1.09,0,0,1,1.09,1.09A1.09,1.09,0,0,1-34-127.71Zm1.09-3.64a.2.2,0,0,1-.2.2h-1.78a.2.2,0,0,1-.2-.2v-7.17a.2.2,0,0,1,.2-.2h1.78a.2.2,0,0,1,.2.2v7.17Z" style="clip-rule:evenodd"/></clipPath><clipPath id="clip-path-5"><circle cx="163.82" cy="57.34" r="12" style="fill:none"/></clipPath><clipPath id="clip-path-7"><circle cx="243.82" cy="48.34" r="16" style="fill:none"/></clipPath></defs><title>Checkbox - Checkmark</title><polygon points="-36.42 -106.24 -27.93 -114.72 -26.05 -112.84 -36.65 -102.23 -38.54 -104.12 -41.68 -107.26 -39.56 -109.38 -36.42 -106.24" style="fill-rule:evenodd"/><g style="clip-path:url(#clip-path-3)"><rect x="-641.68" y="-749.16" width="2448" height="1584"/></g><polygon points="17.66 5.64 9.17 14.12 6.34 11.29 4.22 13.41 7.05 16.24 9.17 18.36 11.29 16.24 19.78 7.76 17.66 5.64"/><path d="M-26.61-136.33a8,8,0,0,0-1.71-2.54,8,8,0,0,0-2.54-1.71,8,8,0,0,0-3.11-.63,8,8,0,0,0-3.11.63,8,8,0,0,0-2.54,1.71,8,8,0,0,0-1.71,2.54,8,8,0,0,0-.63,3.11,8,8,0,0,0,.63,3.11,8,8,0,0,0,1.71,2.54,8,8,0,0,0,2.54,1.71,8,8,0,0,0,3.11.63,8,8,0,0,0,3.11-.63,8,8,0,0,0,2.54-1.71,8,8,0,0,0,1.71-2.54,8,8,0,0,0,.63-3.11A8,8,0,0,0-26.61-136.33ZM-34-127.71a1.09,1.09,0,0,1-1.09-1.09A1.09,1.09,0,0,1-34-129.89a1.09,1.09,0,0,1,1.09,1.09A1.09,1.09,0,0,1-34-127.71Zm1.09-3.64a.2.2,0,0,1-.2.2h-1.78a.2.2,0,0,1-.2-.2v-7.17a.2.2,0,0,1,.2-.2h1.78a.2.2,0,0,1,.2.2v7.17Z" style="fill-rule:evenodd"/><g style="clip-path:url(#clip-path-4)"><rect x="-1773.98" y="-557.21" width="2448" height="1584"/></g></svg>