<svg id="Layer_1" data-name="Layer 1" xmlns="http://www.w3.org/2000/svg" xmlns:xlink="http://www.w3.org/1999/xlink" viewBox="0 0 16 16"><defs><clipPath id="clip-path"><polygon points="-244.65 127.36 -252.15 134.86 -244.65 142.36 -243.28 140.99 -248.43 135.84 -237.15 135.84 -237.15 133.89 -248.43 133.89 -243.28 128.74 -244.65 127.36" style="fill:none;clip-rule:evenodd"/></clipPath><clipPath id="clip-path-2"><polygon points="261.11 36.78 269.6 28.3 271.48 30.18 260.88 40.79 258.99 38.91 255.85 35.76 257.97 33.64 261.11 36.78" style="fill:none;clip-rule:evenodd"/></clipPath><clipPath id="clip-path-3"><polygon points="27.61 10.28 36.1 1.8 37.98 3.68 27.38 14.29 25.49 12.4 22.35 9.26 24.47 7.14 27.61 10.28" style="clip-rule:evenodd"/></clipPath><clipPath id="clip-path-4"><rect x="-577.65" y="-632.64" width="2448" height="1584"/></clipPath><clipPath id="clip-path-5"><path d="M37.42-19.8a8,8,0,0,0-1.71-2.54,8,8,0,0,0-2.54-1.71,8,8,0,0,0-3.11-.63,8,8,0,0,0-3.11.63,8,8,0,0,0-2.54,1.71,8,8,0,0,0-1.71,2.54,8,8,0,0,0-.63,3.11,8,8,0,0,0,.63,3.11A8,8,0,0,0,24.4-11a8,8,0,0,0,2.54,1.71,8,8,0,0,0,3.11.63,8,8,0,0,0,3.11-.63A8,8,0,0,0,35.71-11a8,8,0,0,0,1.71-2.54,8,8,0,0,0,.63-3.11A8,8,0,0,0,37.42-19.8Zm-7.37,8.61A1.09,1.09,0,0,1,29-12.28a1.09,1.09,0,0,1,1.09-1.09,1.09,1.09,0,0,1,1.09,1.09A1.09,1.09,0,0,1,30.05-11.19Zm1.09-3.64a.2.2,0,0,1-.2.2H29.16a.2.2,0,0,1-.2-.2V-22a.2.2,0,0,1,.2-.2h1.78a.2.2,0,0,1,.2.2v7.17Z" style="clip-rule:evenodd"/></clipPath><clipPath id="clip-path-6"><circle cx="227.85" cy="173.86" r="12" style="fill:none"/></clipPath><clipPath id="clip-path-8"><circle cx="307.85" cy="164.86" r="16" style="fill:none"/></clipPath></defs><title>confirm-4 copy</title><path d="M14,1.59l-.72.69L6,9.56,2.72,6.28,2,5.59.59,7l.69.72,4,4,.72.69.72-.69,8-8L15.41,3,14,1.59Z"/><polygon points="27.61 10.28 36.1 1.8 37.98 3.68 27.38 14.29 25.49 12.4 22.35 9.26 24.47 7.14 27.61 10.28" style="fill-rule:evenodd"/><g style="clip-path:url(#clip-path-3)"><rect x="-577.65" y="-632.64" width="2448" height="1584"/><g style="clip-path:url(#clip-path-4)"><rect x="17.67" y="-2.08" width="25" height="17.11" transform="translate(4.26 23.23) rotate(-45)"/></g></g><path d="M37.42-19.8a8,8,0,0,0-1.71-2.54,8,8,0,0,0-2.54-1.71,8,8,0,0,0-3.11-.63,8,8,0,0,0-3.11.63,8,8,0,0,0-2.54,1.71,8,8,0,0,0-1.71,2.54,8,8,0,0,0-.63,3.11,8,8,0,0,0,.63,3.11A8,8,0,0,0,24.4-11a8,8,0,0,0,2.54,1.71,8,8,0,0,0,3.11.63,8,8,0,0,0,3.11-.63A8,8,0,0,0,35.71-11a8,8,0,0,0,1.71-2.54,8,8,0,0,0,.63-3.11A8,8,0,0,0,37.42-19.8Zm-7.37,8.61A1.09,1.09,0,0,1,29-12.28a1.09,1.09,0,0,1,1.09-1.09,1.09,1.09,0,0,1,1.09,1.09A1.09,1.09,0,0,1,30.05-11.19Zm1.09-3.64a.2.2,0,0,1-.2.2H29.16a.2.2,0,0,1-.2-.2V-22a.2.2,0,0,1,.2-.2h1.78a.2.2,0,0,1,.2.2v7.17Z" style="fill-rule:evenodd"/><g style="clip-path:url(#clip-path-5)"><rect x="-1709.95" y="-440.69" width="2448" height="1584"/></g></svg>