<svg id="Layer_1" data-name="Layer 1" xmlns="http://www.w3.org/2000/svg" xmlns:xlink="http://www.w3.org/1999/xlink" viewBox="0 0 16 16"><defs><clipPath id="clip-path"><polygon points="-28 300.5 -35.5 308 -28 315.5 -26.62 314.12 -31.77 308.97 -20.5 308.97 -20.5 307.03 -31.77 307.03 -26.62 301.88 -28 300.5" style="fill:none;clip-rule:evenodd"/></clipPath><clipPath id="clip-path-2"><polygon points="477.76 209.92 486.25 201.44 488.13 203.32 477.53 213.93 475.64 212.04 472.5 208.9 474.62 206.78 477.76 209.92" style="fill:none;clip-rule:evenodd"/></clipPath><clipPath id="clip-path-3"><polygon points="244.26 183.42 252.75 174.94 254.63 176.82 244.03 187.43 242.14 185.54 239 182.4 241.12 180.28 244.26 183.42" style="clip-rule:evenodd"/></clipPath><clipPath id="clip-path-4"><path d="M254.08,153.33a8,8,0,1,0,.63,3.11A8,8,0,0,0,254.08,153.33Zm-7.37,8.61a1.09,1.09,0,1,1,1.09-1.09A1.09,1.09,0,0,1,246.7,161.95Zm1.09-3.64a.2.2,0,0,1-.2.2h-1.78a.2.2,0,0,1-.2-.2v-7.17a.2.2,0,0,1,.2-.2h1.78a.2.2,0,0,1,.2.2v7.17Z" style="clip-rule:evenodd"/></clipPath><clipPath id="clip-path-5"><circle cx="444.5" cy="347" r="12" style="fill:none"/></clipPath><clipPath id="clip-path-7"><circle cx="524.5" cy="338" r="16" style="fill:none"/></clipPath></defs><title>confirm-4</title><path d="M14,1.59l-.72.69L6,9.56,2.72,6.28,2,5.59.59,7l.69.72,4,4,.72.69.72-.69,8-8L15.41,3,14,1.59Z"/><polygon points="244.26 183.42 252.75 174.94 254.63 176.82 244.03 187.43 242.14 185.54 239 182.4 241.12 180.28 244.26 183.42" style="fill-rule:evenodd"/><g style="clip-path:url(#clip-path-3)"><rect x="-361" y="-459.5" width="2448" height="1584"/></g><path d="M254.08,153.33a8,8,0,1,0,.63,3.11A8,8,0,0,0,254.08,153.33Zm-7.37,8.61a1.09,1.09,0,1,1,1.09-1.09A1.09,1.09,0,0,1,246.7,161.95Zm1.09-3.64a.2.2,0,0,1-.2.2h-1.78a.2.2,0,0,1-.2-.2v-7.17a.2.2,0,0,1,.2-.2h1.78a.2.2,0,0,1,.2.2v7.17Z" style="fill-rule:evenodd"/><g style="clip-path:url(#clip-path-4)"><rect x="-1493.3" y="-267.55" width="2448" height="1584"/></g></svg>