<svg id="Layer_1" data-name="Layer 1" xmlns="http://www.w3.org/2000/svg" xmlns:xlink="http://www.w3.org/1999/xlink" viewBox="0 0 16 16"><defs><clipPath id="clip-path"><polygon points="-64 300.5 -71.5 308 -64 315.5 -62.62 314.12 -67.78 308.97 -56.5 308.97 -56.5 307.03 -67.78 307.03 -62.62 301.88 -64 300.5" style="fill:none;clip-rule:evenodd"/></clipPath><clipPath id="clip-path-2"><polygon points="441.76 209.92 450.25 201.44 452.13 203.32 441.53 213.93 439.64 212.04 436.5 208.9 438.62 206.78 441.76 209.92" style="fill:none;clip-rule:evenodd"/></clipPath><clipPath id="clip-path-3"><polygon points="208.26 183.42 216.75 174.94 218.63 176.82 208.03 187.43 206.14 185.54 203 182.4 205.12 180.28 208.26 183.42" style="clip-rule:evenodd"/></clipPath><clipPath id="clip-path-4"><path d="M218.08,153.33a8,8,0,1,0,.63,3.11A8,8,0,0,0,218.08,153.33Zm-7.37,8.61a1.09,1.09,0,1,1,1.09-1.09A1.09,1.09,0,0,1,210.7,161.95Zm1.09-3.64a.2.2,0,0,1-.2.2h-1.78a.2.2,0,0,1-.2-.2v-7.17a.2.2,0,0,1,.2-.2h1.78a.2.2,0,0,1,.2.2v7.17Z" style="clip-rule:evenodd"/></clipPath><clipPath id="clip-path-5"><circle cx="408.5" cy="347" r="12" style="fill:none"/></clipPath><clipPath id="clip-path-7"><circle cx="488.5" cy="338" r="16" style="fill:none"/></clipPath></defs><title>csv-1</title><polygon points="208.26 183.42 216.75 174.94 218.63 176.82 208.03 187.43 206.14 185.54 203 182.4 205.12 180.28 208.26 183.42" style="fill-rule:evenodd"/><g style="clip-path:url(#clip-path-3)"><rect x="-397" y="-459.5" width="2448" height="1584"/></g><path d="M218.08,153.33a8,8,0,1,0,.63,3.11A8,8,0,0,0,218.08,153.33Zm-7.37,8.61a1.09,1.09,0,1,1,1.09-1.09A1.09,1.09,0,0,1,210.7,161.95Zm1.09-3.64a.2.2,0,0,1-.2.2h-1.78a.2.2,0,0,1-.2-.2v-7.17a.2.2,0,0,1,.2-.2h1.78a.2.2,0,0,1,.2.2v7.17Z" style="fill-rule:evenodd"/><g style="clip-path:url(#clip-path-4)"><rect x="-1529.3" y="-267.55" width="2448" height="1584"/></g></svg>