<svg id="Layer_1" data-name="Layer 1" xmlns="http://www.w3.org/2000/svg" xmlns:xlink="http://www.w3.org/1999/xlink" viewBox="0 0 16 16"><defs><clipPath id="clip-path"><polygon points="-100 250.5 -107.5 258 -100 265.5 -98.62 264.12 -103.78 258.97 -92.5 258.97 -92.5 257.03 -103.78 257.03 -98.62 251.88 -100 250.5" style="fill:none;clip-rule:evenodd"/></clipPath><clipPath id="clip-path-2"><polygon points="405.76 159.92 414.25 151.44 416.13 153.32 405.53 163.93 403.64 162.04 400.5 158.9 402.62 156.78 405.76 159.92" style="fill:none;clip-rule:evenodd"/></clipPath><clipPath id="clip-path-3"><polygon points="172.26 133.42 180.75 124.94 182.63 126.82 172.03 137.43 170.14 135.54 167 132.4 169.12 130.28 172.26 133.42" style="clip-rule:evenodd"/></clipPath><clipPath id="clip-path-4"><path d="M182.08,103.33a8,8,0,1,0,.63,3.11A8,8,0,0,0,182.08,103.33Zm-7.37,8.61a1.09,1.09,0,1,1,1.09-1.09A1.09,1.09,0,0,1,174.7,111.95Zm1.09-3.64a.2.2,0,0,1-.2.2h-1.78a.2.2,0,0,1-.2-.2v-7.17a.2.2,0,0,1,.2-.2h1.78a.2.2,0,0,1,.2.2v7.17Z" style="clip-rule:evenodd"/></clipPath><clipPath id="clip-path-5"><circle cx="372.5" cy="297" r="12" style="fill:none"/></clipPath><clipPath id="clip-path-7"><circle cx="452.5" cy="288" r="16" style="fill:none"/></clipPath></defs><title>downhead-4</title><polygon points="0.5 8.5 8 16 15.5 8.5 14.12 7.12 8 13.25 1.88 7.12 0.5 8.5"/><polygon points="0.5 1.38 8 8.88 15.5 1.38 14.12 0 8 6.13 1.88 0 0.5 1.38"/><rect width="16" height="16" style="fill:none"/><polygon points="172.26 133.42 180.75 124.94 182.63 126.82 172.03 137.43 170.14 135.54 167 132.4 169.12 130.28 172.26 133.42" style="fill-rule:evenodd"/><g style="clip-path:url(#clip-path-3)"><rect x="-433" y="-509.5" width="2448" height="1584"/></g><path d="M182.08,103.33a8,8,0,1,0,.63,3.11A8,8,0,0,0,182.08,103.33Zm-7.37,8.61a1.09,1.09,0,1,1,1.09-1.09A1.09,1.09,0,0,1,174.7,111.95Zm1.09-3.64a.2.2,0,0,1-.2.2h-1.78a.2.2,0,0,1-.2-.2v-7.17a.2.2,0,0,1,.2-.2h1.78a.2.2,0,0,1,.2.2v7.17Z" style="fill-rule:evenodd"/><g style="clip-path:url(#clip-path-4)"><rect x="-1565.3" y="-317.55" width="2448" height="1584"/></g></svg>