<svg id="Layer_1" data-name="Layer 1" xmlns="http://www.w3.org/2000/svg" xmlns:xlink="http://www.w3.org/1999/xlink" viewBox="0 0 16 16"><defs><clipPath id="clip-path"><polygon points="44 200.5 36.5 208 44 215.5 45.38 214.12 40.23 208.97 51.5 208.97 51.5 207.03 40.23 207.03 45.38 201.88 44 200.5" style="fill:none;clip-rule:evenodd"/></clipPath><clipPath id="clip-path-2"><polygon points="549.76 109.92 558.25 101.44 560.13 103.32 549.53 113.93 547.64 112.04 544.5 108.9 546.62 106.78 549.76 109.92" style="fill:none;clip-rule:evenodd"/></clipPath><clipPath id="clip-path-3"><polygon points="316.26 83.42 324.75 74.94 326.63 76.82 316.03 87.43 314.14 85.54 311 82.4 313.12 80.28 316.26 83.42" style="clip-rule:evenodd"/></clipPath><clipPath id="clip-path-4"><path d="M326.08,53.33a8,8,0,1,0,.63,3.11A8,8,0,0,0,326.08,53.33Zm-7.37,8.61a1.09,1.09,0,1,1,1.09-1.09A1.09,1.09,0,0,1,318.7,61.95Zm1.09-3.64a.2.2,0,0,1-.2.2h-1.78a.2.2,0,0,1-.2-.2V51.14a.2.2,0,0,1,.2-.2h1.78a.2.2,0,0,1,.2.2v7.17Z" style="clip-rule:evenodd"/></clipPath><clipPath id="clip-path-5"><circle cx="516.5" cy="247" r="12" style="fill:none"/></clipPath><clipPath id="clip-path-7"><circle cx="596.5" cy="238" r="16" style="fill:none"/></clipPath></defs><title>download-1</title><path d="M8,0A5,5,0,0,0,3.09,4.09,4,4,0,0,0,4,12H6V11a2,2,0,0,1,4,0v1h3a3,3,0,0,0,3-3,3,3,0,0,0-3-3V5A5,5,0,0,0,8,0ZM7.91,10l-.12,0A1,1,0,0,0,7,11v2H5l3,3,3-3H9V11a1,1,0,0,0-1-1Z"/><polygon points="316.26 83.42 324.75 74.94 326.63 76.82 316.03 87.43 314.14 85.54 311 82.4 313.12 80.28 316.26 83.42" style="fill-rule:evenodd"/><g style="clip-path:url(#clip-path-3)"><rect x="-289" y="-559.5" width="2448" height="1584"/></g><path d="M326.08,53.33a8,8,0,1,0,.63,3.11A8,8,0,0,0,326.08,53.33Zm-7.37,8.61a1.09,1.09,0,1,1,1.09-1.09A1.09,1.09,0,0,1,318.7,61.95Zm1.09-3.64a.2.2,0,0,1-.2.2h-1.78a.2.2,0,0,1-.2-.2V51.14a.2.2,0,0,1,.2-.2h1.78a.2.2,0,0,1,.2.2v7.17Z" style="fill-rule:evenodd"/><g style="clip-path:url(#clip-path-4)"><rect x="-1421.3" y="-367.55" width="2448" height="1584"/></g></svg>