<svg id="Layer_1" data-name="Layer 1" xmlns="http://www.w3.org/2000/svg" xmlns:xlink="http://www.w3.org/1999/xlink" viewBox="0 0 16 16"><defs><clipPath id="clip-path"><polygon points="8 200.5 0.5 208 8 215.5 9.38 214.12 4.22 208.97 15.5 208.97 15.5 207.03 4.22 207.03 9.38 201.88 8 200.5" style="fill:none;clip-rule:evenodd"/></clipPath><clipPath id="clip-path-2"><polygon points="513.76 109.92 522.25 101.44 524.13 103.32 513.53 113.93 511.64 112.04 508.5 108.9 510.62 106.78 513.76 109.92" style="fill:none;clip-rule:evenodd"/></clipPath><clipPath id="clip-path-3"><polygon points="280.26 83.42 288.75 74.94 290.63 76.82 280.03 87.43 278.14 85.54 275 82.4 277.12 80.28 280.26 83.42" style="clip-rule:evenodd"/></clipPath><clipPath id="clip-path-4"><path d="M290.08,53.33a8,8,0,1,0,.63,3.11A8,8,0,0,0,290.08,53.33Zm-7.37,8.61a1.09,1.09,0,1,1,1.09-1.09A1.09,1.09,0,0,1,282.7,61.95Zm1.09-3.64a.2.2,0,0,1-.2.2h-1.78a.2.2,0,0,1-.2-.2V51.14a.2.2,0,0,1,.2-.2h1.78a.2.2,0,0,1,.2.2v7.17Z" style="clip-rule:evenodd"/></clipPath><clipPath id="clip-path-5"><circle cx="480.5" cy="247" r="12" style="fill:none"/></clipPath><clipPath id="clip-path-7"><circle cx="560.5" cy="238" r="16" style="fill:none"/></clipPath></defs><title>drag-n-drop-1</title><polygon points="280.26 83.42 288.75 74.94 290.63 76.82 280.03 87.43 278.14 85.54 275 82.4 277.12 80.28 280.26 83.42" style="fill-rule:evenodd"/><g style="clip-path:url(#clip-path-3)"><rect x="-325" y="-559.5" width="2448" height="1584"/></g><path d="M290.08,53.33a8,8,0,1,0,.63,3.11A8,8,0,0,0,290.08,53.33Zm-7.37,8.61a1.09,1.09,0,1,1,1.09-1.09A1.09,1.09,0,0,1,282.7,61.95Zm1.09-3.64a.2.2,0,0,1-.2.2h-1.78a.2.2,0,0,1-.2-.2V51.14a.2.2,0,0,1,.2-.2h1.78a.2.2,0,0,1,.2.2v7.17Z" style="fill-rule:evenodd"/><g style="clip-path:url(#clip-path-4)"><rect x="-1457.3" y="-367.55" width="2448" height="1584"/></g></svg>