<svg id="Layer_1" data-name="Layer 1" xmlns="http://www.w3.org/2000/svg" xmlns:xlink="http://www.w3.org/1999/xlink" viewBox="0 0 16 16"><defs><clipPath id="clip-path"><polygon points="-136 200.5 -143.5 208 -136 215.5 -134.62 214.12 -139.78 208.97 -128.5 208.97 -128.5 207.03 -139.78 207.03 -134.62 201.88 -136 200.5" style="fill:none;clip-rule:evenodd"/></clipPath><clipPath id="clip-path-2"><polygon points="369.76 109.92 378.25 101.44 380.13 103.32 369.53 113.93 367.64 112.04 364.5 108.9 366.62 106.78 369.76 109.92" style="fill:none;clip-rule:evenodd"/></clipPath><clipPath id="clip-path-3"><polygon points="136.26 83.42 144.75 74.94 146.63 76.82 136.03 87.43 134.14 85.54 131 82.4 133.12 80.28 136.26 83.42" style="clip-rule:evenodd"/></clipPath><clipPath id="clip-path-4"><path d="M146.08,53.33a8,8,0,1,0,.63,3.11A8,8,0,0,0,146.08,53.33Zm-7.37,8.61a1.09,1.09,0,1,1,1.09-1.09A1.09,1.09,0,0,1,138.7,61.95Zm1.09-3.64a.2.2,0,0,1-.2.2h-1.78a.2.2,0,0,1-.2-.2V51.14a.2.2,0,0,1,.2-.2h1.78a.2.2,0,0,1,.2.2v7.17Z" style="clip-rule:evenodd"/></clipPath><clipPath id="clip-path-5"><circle cx="336.5" cy="247" r="12" style="fill:none"/></clipPath><clipPath id="clip-path-7"><circle cx="416.5" cy="238" r="16" style="fill:none"/></clipPath></defs><title>exclamation-1</title><rect x="7" y="11" width="2" height="2" style="fill:#fff"/><path d="M8,0a8,8,0,1,0,8,8A8,8,0,0,0,8,0ZM9,12.75H7v-2H9Zm0-3H7V3.25H9Z"/><polygon points="136.26 83.42 144.75 74.94 146.63 76.82 136.03 87.43 134.14 85.54 131 82.4 133.12 80.28 136.26 83.42" style="fill-rule:evenodd"/><g style="clip-path:url(#clip-path-3)"><rect x="-469" y="-559.5" width="2448" height="1584"/></g><path d="M146.08,53.33a8,8,0,1,0,.63,3.11A8,8,0,0,0,146.08,53.33Zm-7.37,8.61a1.09,1.09,0,1,1,1.09-1.09A1.09,1.09,0,0,1,138.7,61.95Zm1.09-3.64a.2.2,0,0,1-.2.2h-1.78a.2.2,0,0,1-.2-.2V51.14a.2.2,0,0,1,.2-.2h1.78a.2.2,0,0,1,.2.2v7.17Z" style="fill-rule:evenodd"/><g style="clip-path:url(#clip-path-4)"><rect x="-1601.3" y="-367.55" width="2448" height="1584"/></g></svg>