<svg id="Layer_1" data-name="Layer 1" xmlns="http://www.w3.org/2000/svg" xmlns:xlink="http://www.w3.org/1999/xlink" viewBox="0 0 16 16"><defs><clipPath id="clip-path"><polygon points="44 150.5 36.5 158 44 165.5 45.38 164.12 40.23 158.97 51.5 158.97 51.5 157.03 40.23 157.03 45.38 151.88 44 150.5" style="fill:none;clip-rule:evenodd"/></clipPath><clipPath id="clip-path-2"><polygon points="549.76 59.92 558.25 51.44 560.13 53.32 549.53 63.93 547.64 62.04 544.5 58.9 546.62 56.78 549.76 59.92" style="fill:none;clip-rule:evenodd"/></clipPath><clipPath id="clip-path-3"><polygon points="316.26 33.42 324.75 24.94 326.63 26.82 316.03 37.43 314.14 35.54 311 32.4 313.12 30.28 316.26 33.42" style="clip-rule:evenodd"/></clipPath><clipPath id="clip-path-4"><path d="M326.08,3.33a8,8,0,1,0,.63,3.11A8,8,0,0,0,326.08,3.33Zm-7.37,8.61a1.09,1.09,0,1,1,1.09-1.09A1.09,1.09,0,0,1,318.7,11.95Zm1.09-3.64a.2.2,0,0,1-.2.2h-1.78a.2.2,0,0,1-.2-.2V1.14a.2.2,0,0,1,.2-.2h1.78a.2.2,0,0,1,.2.2V8.31Z" style="clip-rule:evenodd"/></clipPath><clipPath id="clip-path-5"><circle cx="516.5" cy="197" r="12" style="fill:none"/></clipPath><clipPath id="clip-path-7"><circle cx="596.5" cy="188" r="16" style="fill:none"/></clipPath></defs><title>facebook-1</title><path d="M.88,0A.87.87,0,0,0,0,.88V15.13A.87.87,0,0,0,.88,16H8.53V9.81H6.47V7.37H8.53V5.59a2.92,2.92,0,0,1,3.13-3.19,16.85,16.85,0,0,1,1.84.09V4.66l-1.25,0c-1,0-1.22.46-1.22,1.16V7.37h2.41l-.31,2.44H11V16h4.09a.87.87,0,0,0,.88-.87V.87A.87.87,0,0,0,15.12,0H.88Z"/><polygon points="316.26 33.42 324.75 24.94 326.63 26.82 316.03 37.43 314.14 35.54 311 32.4 313.12 30.28 316.26 33.42" style="fill-rule:evenodd"/><g style="clip-path:url(#clip-path-3)"><rect x="-289" y="-609.5" width="2448" height="1584"/></g><path d="M326.08,3.33a8,8,0,1,0,.63,3.11A8,8,0,0,0,326.08,3.33Zm-7.37,8.61a1.09,1.09,0,1,1,1.09-1.09A1.09,1.09,0,0,1,318.7,11.95Zm1.09-3.64a.2.2,0,0,1-.2.2h-1.78a.2.2,0,0,1-.2-.2V1.14a.2.2,0,0,1,.2-.2h1.78a.2.2,0,0,1,.2.2V8.31Z" style="fill-rule:evenodd"/><g style="clip-path:url(#clip-path-4)"><rect x="-1421.3" y="-417.55" width="2448" height="1584"/></g></svg>