<svg id="Layer_1" data-name="Layer 1" xmlns="http://www.w3.org/2000/svg" xmlns:xlink="http://www.w3.org/1999/xlink" viewBox="0 0 16 16"><defs><clipPath id="clip-path"><polygon points="-100 450.5 -107.5 458 -100 465.5 -98.62 464.12 -103.78 458.97 -92.5 458.97 -92.5 457.03 -103.78 457.03 -98.62 451.88 -100 450.5" style="fill:none;clip-rule:evenodd"/></clipPath><clipPath id="clip-path-2"><polygon points="405.76 359.92 414.25 351.44 416.13 353.32 405.53 363.93 403.64 362.04 400.5 358.9 402.62 356.78 405.76 359.92" style="fill:none;clip-rule:evenodd"/></clipPath><clipPath id="clip-path-3"><polygon points="172.26 333.42 180.75 324.94 182.63 326.82 172.03 337.43 170.14 335.54 167 332.4 169.12 330.28 172.26 333.42" style="clip-rule:evenodd"/></clipPath><clipPath id="clip-path-4"><path d="M182.08,303.33a8,8,0,1,0,.63,3.11A8,8,0,0,0,182.08,303.33Zm-7.37,8.61a1.09,1.09,0,1,1,1.09-1.09A1.09,1.09,0,0,1,174.7,311.95Zm1.09-3.64a.2.2,0,0,1-.2.2h-1.78a.2.2,0,0,1-.2-.2v-7.17a.2.2,0,0,1,.2-.2h1.78a.2.2,0,0,1,.2.2v7.17Z" style="clip-rule:evenodd"/></clipPath><clipPath id="clip-path-5"><circle cx="372.5" cy="497" r="12" style="fill:none"/></clipPath><clipPath id="clip-path-7"><circle cx="452.5" cy="488" r="16" style="fill:none"/></clipPath></defs><title>gear</title><g id="Icons-_-Illustration" data-name="Icons-&amp;-Illustration"><g id="Component---Top-Nav"><path id="Fill-1-Copy" d="M6.25,8.89A2.19,2.19,0,0,0,7.41,10a2.18,2.18,0,0,0,1.7,0,2.17,2.17,0,0,0,1.16-1.15,2.18,2.18,0,0,0,0-1.7A2.16,2.16,0,0,0,9.1,6a2.18,2.18,0,0,0-1.7,0A2.17,2.17,0,0,0,6.25,7.2a2.18,2.18,0,0,0,0,1.7ZM3.48,11a6.06,6.06,0,0,1-.72-1.6H0V6.7H2.73A6.08,6.08,0,0,1,3,5.85a4.88,4.88,0,0,1,.41-.78L1.56,3.19l1.9-1.9,1.9,1.92a6.7,6.7,0,0,1,.74-.36,4.56,4.56,0,0,1,.8-.24V0H9.6V2.66a4.69,4.69,0,0,1,.79.29,5.89,5.89,0,0,1,.72.41L13,1.45l1.9,1.9-2,2q.17.33.31.67a4.72,4.72,0,0,1,.22.71H16V9.39H13.45a4,4,0,0,1-.23.7,5.84,5.84,0,0,1-.33.64l1.89,1.87-1.9,1.9L11,12.67a5.35,5.35,0,0,1-1.43.64V16H6.91V13.38a5.46,5.46,0,0,1-1.46-.56L3.61,14.67l-1.9-1.9Z" style="fill:#131517"/></g></g><polygon points="172.26 333.42 180.75 324.94 182.63 326.82 172.03 337.43 170.14 335.54 167 332.4 169.12 330.28 172.26 333.42" style="fill-rule:evenodd"/><g style="clip-path:url(#clip-path-3)"><rect x="-433" y="-309.5" width="2448" height="1584"/></g><path d="M182.08,303.33a8,8,0,1,0,.63,3.11A8,8,0,0,0,182.08,303.33Zm-7.37,8.61a1.09,1.09,0,1,1,1.09-1.09A1.09,1.09,0,0,1,174.7,311.95Zm1.09-3.64a.2.2,0,0,1-.2.2h-1.78a.2.2,0,0,1-.2-.2v-7.17a.2.2,0,0,1,.2-.2h1.78a.2.2,0,0,1,.2.2v7.17Z" style="fill-rule:evenodd"/><g style="clip-path:url(#clip-path-4)"><rect x="-1565.3" y="-117.55" width="2448" height="1584"/></g></svg>