<svg id="Layer_1" data-name="Layer 1" xmlns="http://www.w3.org/2000/svg" xmlns:xlink="http://www.w3.org/1999/xlink" viewBox="0 0 16 16"><defs><clipPath id="clip-path"><polygon points="-100 100.5 -107.5 108 -100 115.5 -98.62 114.12 -103.78 108.97 -92.5 108.97 -92.5 107.03 -103.78 107.03 -98.62 101.88 -100 100.5" style="fill:none;clip-rule:evenodd"/></clipPath><clipPath id="clip-path-2"><polygon points="405.76 9.92 414.25 1.44 416.13 3.32 405.53 13.93 403.64 12.04 400.5 8.9 402.62 6.78 405.76 9.92" style="fill:none;clip-rule:evenodd"/></clipPath><clipPath id="clip-path-3"><polygon points="172.26 -16.58 180.75 -25.06 182.63 -23.18 172.03 -12.57 170.14 -14.46 167 -17.6 169.12 -19.72 172.26 -16.58" style="clip-rule:evenodd"/></clipPath><clipPath id="clip-path-4"><path d="M182.08-46.67a8,8,0,0,0-1.71-2.54,8,8,0,0,0-2.54-1.71,8,8,0,0,0-3.11-.63,8,8,0,0,0-3.11.63A8,8,0,0,0,169-49.21a8,8,0,0,0-1.71,2.54,8,8,0,0,0-.63,3.11,8,8,0,0,0,.63,3.11A8,8,0,0,0,169-37.9a8,8,0,0,0,2.54,1.71,8,8,0,0,0,3.11.63,8,8,0,0,0,3.11-.63,8,8,0,0,0,2.54-1.71,8,8,0,0,0,1.71-2.54,8,8,0,0,0,.63-3.11A8,8,0,0,0,182.08-46.67Zm-7.37,8.61a1.09,1.09,0,0,1-1.09-1.09,1.09,1.09,0,0,1,1.09-1.09,1.09,1.09,0,0,1,1.09,1.09A1.09,1.09,0,0,1,174.7-38.05Zm1.09-3.64a.2.2,0,0,1-.2.2h-1.78a.2.2,0,0,1-.2-.2v-7.17a.2.2,0,0,1,.2-.2h1.78a.2.2,0,0,1,.2.2v7.17Z" style="clip-rule:evenodd"/></clipPath><clipPath id="clip-path-5"><circle cx="372.5" cy="147" r="12" style="fill:none"/></clipPath><clipPath id="clip-path-7"><circle cx="452.5" cy="138" r="16" style="fill:none"/></clipPath></defs><title>graphtype-stacked-bar</title><polygon points="172.26 -16.58 180.75 -25.06 182.63 -23.18 172.03 -12.57 170.14 -14.46 167 -17.6 169.12 -19.72 172.26 -16.58" style="fill-rule:evenodd"/><g style="clip-path:url(#clip-path-3)"><rect x="-433" y="-659.5" width="2448" height="1584"/></g><path d="M182.08-46.67a8,8,0,0,0-1.71-2.54,8,8,0,0,0-2.54-1.71,8,8,0,0,0-3.11-.63,8,8,0,0,0-3.11.63A8,8,0,0,0,169-49.21a8,8,0,0,0-1.71,2.54,8,8,0,0,0-.63,3.11,8,8,0,0,0,.63,3.11A8,8,0,0,0,169-37.9a8,8,0,0,0,2.54,1.71,8,8,0,0,0,3.11.63,8,8,0,0,0,3.11-.63,8,8,0,0,0,2.54-1.71,8,8,0,0,0,1.71-2.54,8,8,0,0,0,.63-3.11A8,8,0,0,0,182.08-46.67Zm-7.37,8.61a1.09,1.09,0,0,1-1.09-1.09,1.09,1.09,0,0,1,1.09-1.09,1.09,1.09,0,0,1,1.09,1.09A1.09,1.09,0,0,1,174.7-38.05Zm1.09-3.64a.2.2,0,0,1-.2.2h-1.78a.2.2,0,0,1-.2-.2v-7.17a.2.2,0,0,1,.2-.2h1.78a.2.2,0,0,1,.2.2v7.17Z" style="fill-rule:evenodd"/><g style="clip-path:url(#clip-path-4)"><rect x="-1565.3" y="-467.55" width="2448" height="1584"/></g></svg>