<svg id="Layer_1" data-name="Layer 1" xmlns="http://www.w3.org/2000/svg" xmlns:xlink="http://www.w3.org/1999/xlink" viewBox="0 0 16 16"><defs><clipPath id="clip-path"><polygon points="44 100.5 36.5 108 44 115.5 45.38 114.12 40.23 108.97 51.5 108.97 51.5 107.03 40.23 107.03 45.38 101.88 44 100.5" style="fill:none;clip-rule:evenodd"/></clipPath><clipPath id="clip-path-2"><polygon points="549.76 9.92 558.25 1.44 560.13 3.32 549.53 13.93 547.64 12.04 544.5 8.9 546.62 6.78 549.76 9.92" style="fill:none;clip-rule:evenodd"/></clipPath><clipPath id="clip-path-3"><polygon points="316.26 -16.58 324.75 -25.06 326.63 -23.18 316.03 -12.57 314.14 -14.46 311 -17.6 313.12 -19.72 316.26 -16.58" style="clip-rule:evenodd"/></clipPath><clipPath id="clip-path-4"><path d="M326.08-46.67a8,8,0,0,0-1.71-2.54,8,8,0,0,0-2.54-1.71,8,8,0,0,0-3.11-.63,8,8,0,0,0-3.11.63A8,8,0,0,0,313-49.21a8,8,0,0,0-1.71,2.54,8,8,0,0,0-.63,3.11,8,8,0,0,0,.63,3.11A8,8,0,0,0,313-37.9a8,8,0,0,0,2.54,1.71,8,8,0,0,0,3.11.63,8,8,0,0,0,3.11-.63,8,8,0,0,0,2.54-1.71,8,8,0,0,0,1.71-2.54,8,8,0,0,0,.63-3.11A8,8,0,0,0,326.08-46.67Zm-7.37,8.61a1.09,1.09,0,0,1-1.09-1.09,1.09,1.09,0,0,1,1.09-1.09,1.09,1.09,0,0,1,1.09,1.09A1.09,1.09,0,0,1,318.7-38.05Zm1.09-3.64a.2.2,0,0,1-.2.2h-1.78a.2.2,0,0,1-.2-.2v-7.17a.2.2,0,0,1,.2-.2h1.78a.2.2,0,0,1,.2.2v7.17Z" style="clip-rule:evenodd"/></clipPath><clipPath id="clip-path-5"><circle cx="516.5" cy="147" r="12" style="fill:none"/></clipPath><clipPath id="clip-path-7"><circle cx="596.5" cy="138" r="16" style="fill:none"/></clipPath></defs><title>graphtype-percentage</title><polygon points="8.04 5.36 4.04 7.86 0 5.84 0 10.88 3.86 12.16 7.83 9.19 11.97 10.22 16 8.88 16 5.34 12 7.34 8.04 5.36" style="fill:#131517"/><polygon points="12.03 11.78 8.16 10.81 4.14 13.84 0 12.46 0 16 16 16 16 10.46 12.03 11.78" style="fill:#131517;opacity:0.5"/><polygon points="3.96 6.14 7.96 3.64 12 5.66 16 3.66 16 0 0 0 0 4.16 3.96 6.14" style="fill:#131517;opacity:0.5"/><polygon points="316.26 -16.58 324.75 -25.06 326.63 -23.18 316.03 -12.57 314.14 -14.46 311 -17.6 313.12 -19.72 316.26 -16.58" style="fill-rule:evenodd"/><g style="clip-path:url(#clip-path-3)"><rect x="-289" y="-659.5" width="2448" height="1584"/></g><path d="M326.08-46.67a8,8,0,0,0-1.71-2.54,8,8,0,0,0-2.54-1.71,8,8,0,0,0-3.11-.63,8,8,0,0,0-3.11.63A8,8,0,0,0,313-49.21a8,8,0,0,0-1.71,2.54,8,8,0,0,0-.63,3.11,8,8,0,0,0,.63,3.11A8,8,0,0,0,313-37.9a8,8,0,0,0,2.54,1.71,8,8,0,0,0,3.11.63,8,8,0,0,0,3.11-.63,8,8,0,0,0,2.54-1.71,8,8,0,0,0,1.71-2.54,8,8,0,0,0,.63-3.11A8,8,0,0,0,326.08-46.67Zm-7.37,8.61a1.09,1.09,0,0,1-1.09-1.09,1.09,1.09,0,0,1,1.09-1.09,1.09,1.09,0,0,1,1.09,1.09A1.09,1.09,0,0,1,318.7-38.05Zm1.09-3.64a.2.2,0,0,1-.2.2h-1.78a.2.2,0,0,1-.2-.2v-7.17a.2.2,0,0,1,.2-.2h1.78a.2.2,0,0,1,.2.2v7.17Z" style="fill-rule:evenodd"/><g style="clip-path:url(#clip-path-4)"><rect x="-1421.3" y="-467.55" width="2448" height="1584"/></g></svg>