<svg id="Layer_1" data-name="Layer 1" xmlns="http://www.w3.org/2000/svg" xmlns:xlink="http://www.w3.org/1999/xlink" viewBox="0 0 16 16"><defs><clipPath id="clip-path"><polygon points="44 50.5 36.5 58 44 65.5 45.38 64.12 40.23 58.97 51.5 58.97 51.5 57.03 40.23 57.03 45.38 51.88 44 50.5" style="fill:none;clip-rule:evenodd"/></clipPath><clipPath id="clip-path-2"><polygon points="549.76 -40.08 558.25 -48.56 560.13 -46.68 549.53 -36.07 547.64 -37.96 544.5 -41.1 546.62 -43.22 549.76 -40.08" style="fill:none;clip-rule:evenodd"/></clipPath><clipPath id="clip-path-3"><polygon points="316.26 -66.58 324.75 -75.06 326.63 -73.18 316.03 -62.57 314.14 -64.46 311 -67.6 313.12 -69.72 316.26 -66.58" style="clip-rule:evenodd"/></clipPath><clipPath id="clip-path-4"><path d="M326.08-96.67a8,8,0,0,0-1.71-2.54,8,8,0,0,0-2.54-1.71,8,8,0,0,0-3.11-.63,8,8,0,0,0-3.11.63A8,8,0,0,0,313-99.21a8,8,0,0,0-1.71,2.54,8,8,0,0,0-.63,3.11,8,8,0,0,0,.63,3.11A8,8,0,0,0,313-87.9a8,8,0,0,0,2.54,1.71,8,8,0,0,0,3.11.63,8,8,0,0,0,3.11-.63,8,8,0,0,0,2.54-1.71,8,8,0,0,0,1.71-2.54,8,8,0,0,0,.63-3.11A8,8,0,0,0,326.08-96.67Zm-7.37,8.61a1.09,1.09,0,0,1-1.09-1.09,1.09,1.09,0,0,1,1.09-1.09,1.09,1.09,0,0,1,1.09,1.09A1.09,1.09,0,0,1,318.7-88.05Zm1.09-3.64a.2.2,0,0,1-.2.2h-1.78a.2.2,0,0,1-.2-.2v-7.17a.2.2,0,0,1,.2-.2h1.78a.2.2,0,0,1,.2.2v7.17Z" style="clip-rule:evenodd"/></clipPath><clipPath id="clip-path-5"><circle cx="516.5" cy="97" r="12" style="fill:none"/></clipPath><clipPath id="clip-path-7"><circle cx="596.5" cy="88" r="16" style="fill:none"/></clipPath></defs><title>help-center-1</title><path d="M8,0a8,8,0,1,0,8,8A8,8,0,0,0,8,0ZM9,13.5H7v-2H9Zm1.58-6A9.74,9.74,0,0,1,9.34,9,1,1,0,0,0,9,9.42a2.89,2.89,0,0,0,0,.7v.4H7v-.4A3.36,3.36,0,0,1,7.21,8.7a3.78,3.78,0,0,1,.83-1,9.94,9.94,0,0,0,.84-1.08,1.34,1.34,0,0,0,.19-.74,1.05,1.05,0,0,0-.23-.77.93.93,0,0,0-.74-.23,1.11,1.11,0,0,0-.72.22.77.77,0,0,0-.25.61v.4h-2v-.4A2.51,2.51,0,0,1,6,3.77a3,3,0,0,1,2.1-.7,3.1,3.1,0,0,1,2.13.7,2.66,2.66,0,0,1,.8,2A2.8,2.8,0,0,1,10.58,7.52Z"/><polygon points="316.26 -66.58 324.75 -75.06 326.63 -73.18 316.03 -62.57 314.14 -64.46 311 -67.6 313.12 -69.72 316.26 -66.58" style="fill-rule:evenodd"/><g style="clip-path:url(#clip-path-3)"><rect x="-289" y="-709.5" width="2448" height="1584"/></g><path d="M326.08-96.67a8,8,0,0,0-1.71-2.54,8,8,0,0,0-2.54-1.71,8,8,0,0,0-3.11-.63,8,8,0,0,0-3.11.63A8,8,0,0,0,313-99.21a8,8,0,0,0-1.71,2.54,8,8,0,0,0-.63,3.11,8,8,0,0,0,.63,3.11A8,8,0,0,0,313-87.9a8,8,0,0,0,2.54,1.71,8,8,0,0,0,3.11.63,8,8,0,0,0,3.11-.63,8,8,0,0,0,2.54-1.71,8,8,0,0,0,1.71-2.54,8,8,0,0,0,.63-3.11A8,8,0,0,0,326.08-96.67Zm-7.37,8.61a1.09,1.09,0,0,1-1.09-1.09,1.09,1.09,0,0,1,1.09-1.09,1.09,1.09,0,0,1,1.09,1.09A1.09,1.09,0,0,1,318.7-88.05Zm1.09-3.64a.2.2,0,0,1-.2.2h-1.78a.2.2,0,0,1-.2-.2v-7.17a.2.2,0,0,1,.2-.2h1.78a.2.2,0,0,1,.2.2v7.17Z" style="fill-rule:evenodd"/><g style="clip-path:url(#clip-path-4)"><rect x="-1421.3" y="-517.55" width="2448" height="1584"/></g></svg>