<svg id="Layer_1" data-name="Layer 1" xmlns="http://www.w3.org/2000/svg" xmlns:xlink="http://www.w3.org/1999/xlink" viewBox="0 0 16 16"><defs><clipPath id="clip-path"><polygon points="-28 50.5 -35.5 58 -28 65.5 -26.62 64.12 -31.77 58.97 -20.5 58.97 -20.5 57.03 -31.77 57.03 -26.62 51.88 -28 50.5" style="fill:none;clip-rule:evenodd"/></clipPath><clipPath id="clip-path-2"><polygon points="477.76 -40.08 486.25 -48.56 488.13 -46.68 477.53 -36.07 475.64 -37.96 472.5 -41.1 474.62 -43.22 477.76 -40.08" style="fill:none;clip-rule:evenodd"/></clipPath><clipPath id="clip-path-3"><polygon points="244.26 -66.58 252.75 -75.06 254.63 -73.18 244.03 -62.57 242.14 -64.46 239 -67.6 241.12 -69.72 244.26 -66.58" style="clip-rule:evenodd"/></clipPath><clipPath id="clip-path-4"><path d="M254.08-96.67a8,8,0,0,0-1.71-2.54,8,8,0,0,0-2.54-1.71,8,8,0,0,0-3.11-.63,8,8,0,0,0-3.11.63A8,8,0,0,0,241-99.21a8,8,0,0,0-1.71,2.54,8,8,0,0,0-.63,3.11,8,8,0,0,0,.63,3.11A8,8,0,0,0,241-87.9a8,8,0,0,0,2.54,1.71,8,8,0,0,0,3.11.63,8,8,0,0,0,3.11-.63,8,8,0,0,0,2.54-1.71,8,8,0,0,0,1.71-2.54,8,8,0,0,0,.63-3.11A8,8,0,0,0,254.08-96.67Zm-7.37,8.61a1.09,1.09,0,0,1-1.09-1.09,1.09,1.09,0,0,1,1.09-1.09,1.09,1.09,0,0,1,1.09,1.09A1.09,1.09,0,0,1,246.7-88.05Zm1.09-3.64a.2.2,0,0,1-.2.2h-1.78a.2.2,0,0,1-.2-.2v-7.17a.2.2,0,0,1,.2-.2h1.78a.2.2,0,0,1,.2.2v7.17Z" style="clip-rule:evenodd"/></clipPath><clipPath id="clip-path-5"><circle cx="444.5" cy="97" r="12" style="fill:none"/></clipPath><clipPath id="clip-path-7"><circle cx="524.5" cy="88" r="16" style="fill:none"/></clipPath></defs><title>hideblank-1</title><path d="M8,2,6,13.84,6,14H8L10,2.16,10,2ZM5,3.81l-.53.34-4,2.5L0,6.94V9.06l.47.28,4,2.5.53.34V9.81L2.09,8,5,6.19Zm6,0V6.19L13.91,8,11,9.81v2.38l.53-.34,4-2.5L16,9.06V6.94l-.47-.28-4-2.5Z"/><polygon points="244.26 -66.58 252.75 -75.06 254.63 -73.18 244.03 -62.57 242.14 -64.46 239 -67.6 241.12 -69.72 244.26 -66.58" style="fill-rule:evenodd"/><g style="clip-path:url(#clip-path-3)"><rect x="-361" y="-709.5" width="2448" height="1584"/></g><path d="M254.08-96.67a8,8,0,0,0-1.71-2.54,8,8,0,0,0-2.54-1.71,8,8,0,0,0-3.11-.63,8,8,0,0,0-3.11.63A8,8,0,0,0,241-99.21a8,8,0,0,0-1.71,2.54,8,8,0,0,0-.63,3.11,8,8,0,0,0,.63,3.11A8,8,0,0,0,241-87.9a8,8,0,0,0,2.54,1.71,8,8,0,0,0,3.11.63,8,8,0,0,0,3.11-.63,8,8,0,0,0,2.54-1.71,8,8,0,0,0,1.71-2.54,8,8,0,0,0,.63-3.11A8,8,0,0,0,254.08-96.67Zm-7.37,8.61a1.09,1.09,0,0,1-1.09-1.09,1.09,1.09,0,0,1,1.09-1.09,1.09,1.09,0,0,1,1.09,1.09A1.09,1.09,0,0,1,246.7-88.05Zm1.09-3.64a.2.2,0,0,1-.2.2h-1.78a.2.2,0,0,1-.2-.2v-7.17a.2.2,0,0,1,.2-.2h1.78a.2.2,0,0,1,.2.2v7.17Z" style="fill-rule:evenodd"/><g style="clip-path:url(#clip-path-4)"><rect x="-1493.3" y="-517.55" width="2448" height="1584"/></g></svg>