<svg id="Layer_1" data-name="Layer 1" xmlns="http://www.w3.org/2000/svg" xmlns:xlink="http://www.w3.org/1999/xlink" viewBox="0 0 16 16"><defs><clipPath id="clip-path"><polygon points="8 50.5 0.5 58 8 65.5 9.38 64.12 4.22 58.97 15.5 58.97 15.5 57.03 4.22 57.03 9.38 51.88 8 50.5" style="fill:none;clip-rule:evenodd"/></clipPath><clipPath id="clip-path-2"><polygon points="513.76 -40.08 522.25 -48.56 524.13 -46.68 513.53 -36.07 511.64 -37.96 508.5 -41.1 510.62 -43.22 513.76 -40.08" style="fill:none;clip-rule:evenodd"/></clipPath><clipPath id="clip-path-3"><polygon points="280.26 -66.58 288.75 -75.06 290.63 -73.18 280.03 -62.57 278.14 -64.46 275 -67.6 277.12 -69.72 280.26 -66.58" style="clip-rule:evenodd"/></clipPath><clipPath id="clip-path-4"><path d="M290.08-96.67a8,8,0,0,0-1.71-2.54,8,8,0,0,0-2.54-1.71,8,8,0,0,0-3.11-.63,8,8,0,0,0-3.11.63A8,8,0,0,0,277-99.21a8,8,0,0,0-1.71,2.54,8,8,0,0,0-.63,3.11,8,8,0,0,0,.63,3.11A8,8,0,0,0,277-87.9a8,8,0,0,0,2.54,1.71,8,8,0,0,0,3.11.63,8,8,0,0,0,3.11-.63,8,8,0,0,0,2.54-1.71,8,8,0,0,0,1.71-2.54,8,8,0,0,0,.63-3.11A8,8,0,0,0,290.08-96.67Zm-7.37,8.61a1.09,1.09,0,0,1-1.09-1.09,1.09,1.09,0,0,1,1.09-1.09,1.09,1.09,0,0,1,1.09,1.09A1.09,1.09,0,0,1,282.7-88.05Zm1.09-3.64a.2.2,0,0,1-.2.2h-1.78a.2.2,0,0,1-.2-.2v-7.17a.2.2,0,0,1,.2-.2h1.78a.2.2,0,0,1,.2.2v7.17Z" style="clip-rule:evenodd"/></clipPath><clipPath id="clip-path-5"><circle cx="480.5" cy="97" r="12" style="fill:none"/></clipPath><clipPath id="clip-path-7"><circle cx="560.5" cy="88" r="16" style="fill:none"/></clipPath></defs><title>hide-1</title><path d="M14,.59l-.72.69-12,12L.59,14,2,15.41l.72-.69,12-12L15.41,2ZM8.06,2C3,2,0,8,0,8a14.63,14.63,0,0,0,2.16,3l2-2A3.93,3.93,0,0,1,8,4a4,4,0,0,1,1,.16l1.59-1.59A6.37,6.37,0,0,0,8.06,2Zm5.78,3-2,2A4,4,0,0,1,12,8a3.93,3.93,0,0,1-5,3.84L5.41,13.44A6.57,6.57,0,0,0,8.06,14C13,14,16,8,16,8a15.31,15.31,0,0,0-2.16-3Z"/><polygon points="280.26 -66.58 288.75 -75.06 290.63 -73.18 280.03 -62.57 278.14 -64.46 275 -67.6 277.12 -69.72 280.26 -66.58" style="fill-rule:evenodd"/><g style="clip-path:url(#clip-path-3)"><rect x="-325" y="-709.5" width="2448" height="1584"/></g><path d="M290.08-96.67a8,8,0,0,0-1.71-2.54,8,8,0,0,0-2.54-1.71,8,8,0,0,0-3.11-.63,8,8,0,0,0-3.11.63A8,8,0,0,0,277-99.21a8,8,0,0,0-1.71,2.54,8,8,0,0,0-.63,3.11,8,8,0,0,0,.63,3.11A8,8,0,0,0,277-87.9a8,8,0,0,0,2.54,1.71,8,8,0,0,0,3.11.63,8,8,0,0,0,3.11-.63,8,8,0,0,0,2.54-1.71,8,8,0,0,0,1.71-2.54,8,8,0,0,0,.63-3.11A8,8,0,0,0,290.08-96.67Zm-7.37,8.61a1.09,1.09,0,0,1-1.09-1.09,1.09,1.09,0,0,1,1.09-1.09,1.09,1.09,0,0,1,1.09,1.09A1.09,1.09,0,0,1,282.7-88.05Zm1.09-3.64a.2.2,0,0,1-.2.2h-1.78a.2.2,0,0,1-.2-.2v-7.17a.2.2,0,0,1,.2-.2h1.78a.2.2,0,0,1,.2.2v7.17Z" style="fill-rule:evenodd"/><g style="clip-path:url(#clip-path-4)"><rect x="-1457.3" y="-517.55" width="2448" height="1584"/></g></svg>