<svg id="Layer_1" data-name="Layer 1" xmlns="http://www.w3.org/2000/svg" xmlns:xlink="http://www.w3.org/1999/xlink" viewBox="0 0 16 16"><defs><clipPath id="clip-path"><polygon points="-64 50.5 -71.5 58 -64 65.5 -62.62 64.12 -67.78 58.97 -56.5 58.97 -56.5 57.03 -67.78 57.03 -62.62 51.88 -64 50.5" style="fill:none;clip-rule:evenodd"/></clipPath><clipPath id="clip-path-2"><polygon points="441.76 -40.08 450.25 -48.56 452.13 -46.68 441.53 -36.07 439.64 -37.96 436.5 -41.1 438.62 -43.22 441.76 -40.08" style="fill:none;clip-rule:evenodd"/></clipPath><clipPath id="clip-path-3"><polygon points="208.26 -66.58 216.75 -75.06 218.63 -73.18 208.03 -62.57 206.14 -64.46 203 -67.6 205.12 -69.72 208.26 -66.58" style="clip-rule:evenodd"/></clipPath><clipPath id="clip-path-4"><path d="M218.08-96.67a8,8,0,0,0-1.71-2.54,8,8,0,0,0-2.54-1.71,8,8,0,0,0-3.11-.63,8,8,0,0,0-3.11.63A8,8,0,0,0,205-99.21a8,8,0,0,0-1.71,2.54,8,8,0,0,0-.63,3.11,8,8,0,0,0,.63,3.11A8,8,0,0,0,205-87.9a8,8,0,0,0,2.54,1.71,8,8,0,0,0,3.11.63,8,8,0,0,0,3.11-.63,8,8,0,0,0,2.54-1.71,8,8,0,0,0,1.71-2.54,8,8,0,0,0,.63-3.11A8,8,0,0,0,218.08-96.67Zm-7.37,8.61a1.09,1.09,0,0,1-1.09-1.09,1.09,1.09,0,0,1,1.09-1.09,1.09,1.09,0,0,1,1.09,1.09A1.09,1.09,0,0,1,210.7-88.05Zm1.09-3.64a.2.2,0,0,1-.2.2h-1.78a.2.2,0,0,1-.2-.2v-7.17a.2.2,0,0,1,.2-.2h1.78a.2.2,0,0,1,.2.2v7.17Z" style="clip-rule:evenodd"/></clipPath><clipPath id="clip-path-5"><circle cx="408.5" cy="97" r="12" style="fill:none"/></clipPath><clipPath id="clip-path-7"><circle cx="488.5" cy="88" r="16" style="fill:none"/></clipPath></defs><title>history-1</title><path d="M9,1A7,7,0,0,0,2,8H0l3,3L6,8H4a5,5,0,1,1,1.47,3.53L4.06,12.94A7,7,0,1,0,9,1ZM8,5V8.41l.28.31,1.5,1.47.72.72L11.91,9.5l-.72-.72L10,7.56V5H8Z"/><polygon points="208.26 -66.58 216.75 -75.06 218.63 -73.18 208.03 -62.57 206.14 -64.46 203 -67.6 205.12 -69.72 208.26 -66.58" style="fill-rule:evenodd"/><g style="clip-path:url(#clip-path-3)"><rect x="-397" y="-709.5" width="2448" height="1584"/></g><path d="M218.08-96.67a8,8,0,0,0-1.71-2.54,8,8,0,0,0-2.54-1.71,8,8,0,0,0-3.11-.63,8,8,0,0,0-3.11.63A8,8,0,0,0,205-99.21a8,8,0,0,0-1.71,2.54,8,8,0,0,0-.63,3.11,8,8,0,0,0,.63,3.11A8,8,0,0,0,205-87.9a8,8,0,0,0,2.54,1.71,8,8,0,0,0,3.11.63,8,8,0,0,0,3.11-.63,8,8,0,0,0,2.54-1.71,8,8,0,0,0,1.71-2.54,8,8,0,0,0,.63-3.11A8,8,0,0,0,218.08-96.67Zm-7.37,8.61a1.09,1.09,0,0,1-1.09-1.09,1.09,1.09,0,0,1,1.09-1.09,1.09,1.09,0,0,1,1.09,1.09A1.09,1.09,0,0,1,210.7-88.05Zm1.09-3.64a.2.2,0,0,1-.2.2h-1.78a.2.2,0,0,1-.2-.2v-7.17a.2.2,0,0,1,.2-.2h1.78a.2.2,0,0,1,.2.2v7.17Z" style="fill-rule:evenodd"/><g style="clip-path:url(#clip-path-4)"><rect x="-1529.3" y="-517.55" width="2448" height="1584"/></g></svg>