<svg id="Layer_1" data-name="Layer 1" xmlns="http://www.w3.org/2000/svg" xmlns:xlink="http://www.w3.org/1999/xlink" viewBox="0 0 16 16"><defs><clipPath id="clip-path"><polygon points="-136 50.5 -143.5 58 -136 65.5 -134.62 64.12 -139.78 58.97 -128.5 58.97 -128.5 57.03 -139.78 57.03 -134.62 51.88 -136 50.5" style="fill:none;clip-rule:evenodd"/></clipPath><clipPath id="clip-path-2"><polygon points="369.76 -40.08 378.25 -48.56 380.13 -46.68 369.53 -36.07 367.64 -37.96 364.5 -41.1 366.62 -43.22 369.76 -40.08" style="fill:none;clip-rule:evenodd"/></clipPath><clipPath id="clip-path-3"><polygon points="136.26 -66.58 144.75 -75.06 146.63 -73.18 136.03 -62.57 134.14 -64.46 131 -67.6 133.12 -69.72 136.26 -66.58" style="clip-rule:evenodd"/></clipPath><clipPath id="clip-path-4"><path d="M146.08-96.67a8,8,0,0,0-1.71-2.54,8,8,0,0,0-2.54-1.71,8,8,0,0,0-3.11-.63,8,8,0,0,0-3.11.63A8,8,0,0,0,133-99.21a8,8,0,0,0-1.71,2.54,8,8,0,0,0-.63,3.11,8,8,0,0,0,.63,3.11A8,8,0,0,0,133-87.9a8,8,0,0,0,2.54,1.71,8,8,0,0,0,3.11.63,8,8,0,0,0,3.11-.63,8,8,0,0,0,2.54-1.71,8,8,0,0,0,1.71-2.54,8,8,0,0,0,.63-3.11A8,8,0,0,0,146.08-96.67Zm-7.37,8.61a1.09,1.09,0,0,1-1.09-1.09,1.09,1.09,0,0,1,1.09-1.09,1.09,1.09,0,0,1,1.09,1.09A1.09,1.09,0,0,1,138.7-88.05Zm1.09-3.64a.2.2,0,0,1-.2.2h-1.78a.2.2,0,0,1-.2-.2v-7.17a.2.2,0,0,1,.2-.2h1.78a.2.2,0,0,1,.2.2v7.17Z" style="clip-rule:evenodd"/></clipPath><clipPath id="clip-path-5"><circle cx="336.5" cy="97" r="12" style="fill:none"/></clipPath><clipPath id="clip-path-7"><circle cx="416.5" cy="88" r="16" style="fill:none"/></clipPath></defs><title>info-1</title><path d="M8,0a8,8,0,1,0,8,8A8,8,0,0,0,8,0ZM8,2.75A1.25,1.25,0,1,1,6.75,4,1.25,1.25,0,0,1,8,2.75Zm2,10H6v-1.5H7V7.75H6V6.25H9v5h1Z"/><polygon points="136.26 -66.58 144.75 -75.06 146.63 -73.18 136.03 -62.57 134.14 -64.46 131 -67.6 133.12 -69.72 136.26 -66.58" style="fill-rule:evenodd"/><g style="clip-path:url(#clip-path-3)"><rect x="-469" y="-709.5" width="2448" height="1584"/></g><path d="M146.08-96.67a8,8,0,0,0-1.71-2.54,8,8,0,0,0-2.54-1.71,8,8,0,0,0-3.11-.63,8,8,0,0,0-3.11.63A8,8,0,0,0,133-99.21a8,8,0,0,0-1.71,2.54,8,8,0,0,0-.63,3.11,8,8,0,0,0,.63,3.11A8,8,0,0,0,133-87.9a8,8,0,0,0,2.54,1.71,8,8,0,0,0,3.11.63,8,8,0,0,0,3.11-.63,8,8,0,0,0,2.54-1.71,8,8,0,0,0,1.71-2.54,8,8,0,0,0,.63-3.11A8,8,0,0,0,146.08-96.67Zm-7.37,8.61a1.09,1.09,0,0,1-1.09-1.09,1.09,1.09,0,0,1,1.09-1.09,1.09,1.09,0,0,1,1.09,1.09A1.09,1.09,0,0,1,138.7-88.05Zm1.09-3.64a.2.2,0,0,1-.2.2h-1.78a.2.2,0,0,1-.2-.2v-7.17a.2.2,0,0,1,.2-.2h1.78a.2.2,0,0,1,.2.2v7.17Z" style="fill-rule:evenodd"/><g style="clip-path:url(#clip-path-4)"><rect x="-1601.3" y="-517.55" width="2448" height="1584"/></g></svg>