<svg id="Layer_1" data-name="Layer 1" xmlns="http://www.w3.org/2000/svg" xmlns:xlink="http://www.w3.org/1999/xlink" viewBox="0 0 16 16"><defs><clipPath id="clip-path"><polygon points="-136 0.5 -143.5 8 -136 15.5 -134.62 14.12 -139.78 8.97 -128.5 8.97 -128.5 7.03 -139.78 7.03 -134.62 1.88 -136 0.5" style="fill:none;clip-rule:evenodd"/></clipPath><clipPath id="clip-path-2"><polygon points="369.76 -90.08 378.25 -98.56 380.13 -96.68 369.53 -86.07 367.64 -87.96 364.5 -91.1 366.62 -93.22 369.76 -90.08" style="fill:none;clip-rule:evenodd"/></clipPath><clipPath id="clip-path-3"><polygon points="136.26 -116.58 144.75 -125.06 146.63 -123.18 136.03 -112.57 134.14 -114.46 131 -117.6 133.12 -119.72 136.26 -116.58" style="clip-rule:evenodd"/></clipPath><clipPath id="clip-path-4"><path d="M146.08-146.67a8,8,0,0,0-1.71-2.54,8,8,0,0,0-2.54-1.71,8,8,0,0,0-3.11-.63,8,8,0,0,0-3.11.63,8,8,0,0,0-2.54,1.71,8,8,0,0,0-1.71,2.54,8,8,0,0,0-.63,3.11,8,8,0,0,0,.63,3.11A8,8,0,0,0,133-137.9a8,8,0,0,0,2.54,1.71,8,8,0,0,0,3.11.63,8,8,0,0,0,3.11-.63,8,8,0,0,0,2.54-1.71,8,8,0,0,0,1.71-2.54,8,8,0,0,0,.63-3.11A8,8,0,0,0,146.08-146.67Zm-7.37,8.61a1.09,1.09,0,0,1-1.09-1.09,1.09,1.09,0,0,1,1.09-1.09,1.09,1.09,0,0,1,1.09,1.09A1.09,1.09,0,0,1,138.7-138.05Zm1.09-3.64a.2.2,0,0,1-.2.2h-1.78a.2.2,0,0,1-.2-.2v-7.17a.2.2,0,0,1,.2-.2h1.78a.2.2,0,0,1,.2.2v7.17Z" style="clip-rule:evenodd"/></clipPath><clipPath id="clip-path-5"><circle cx="336.5" cy="47" r="12" style="fill:none"/></clipPath><clipPath id="clip-path-7"><circle cx="416.5" cy="38" r="16" style="fill:none"/></clipPath></defs><title>leftmenu-1</title><polygon points="136.26 -116.58 144.75 -125.06 146.63 -123.18 136.03 -112.57 134.14 -114.46 131 -117.6 133.12 -119.72 136.26 -116.58" style="fill-rule:evenodd"/><g style="clip-path:url(#clip-path-3)"><rect x="-469" y="-759.5" width="2448" height="1584"/></g><path d="M146.08-146.67a8,8,0,0,0-1.71-2.54,8,8,0,0,0-2.54-1.71,8,8,0,0,0-3.11-.63,8,8,0,0,0-3.11.63,8,8,0,0,0-2.54,1.71,8,8,0,0,0-1.71,2.54,8,8,0,0,0-.63,3.11,8,8,0,0,0,.63,3.11A8,8,0,0,0,133-137.9a8,8,0,0,0,2.54,1.71,8,8,0,0,0,3.11.63,8,8,0,0,0,3.11-.63,8,8,0,0,0,2.54-1.71,8,8,0,0,0,1.71-2.54,8,8,0,0,0,.63-3.11A8,8,0,0,0,146.08-146.67Zm-7.37,8.61a1.09,1.09,0,0,1-1.09-1.09,1.09,1.09,0,0,1,1.09-1.09,1.09,1.09,0,0,1,1.09,1.09A1.09,1.09,0,0,1,138.7-138.05Zm1.09-3.64a.2.2,0,0,1-.2.2h-1.78a.2.2,0,0,1-.2-.2v-7.17a.2.2,0,0,1,.2-.2h1.78a.2.2,0,0,1,.2.2v7.17Z" style="fill-rule:evenodd"/><g style="clip-path:url(#clip-path-4)"><rect x="-1601.3" y="-567.55" width="2448" height="1584"/></g></svg>