<svg id="Layer_1" data-name="Layer 1" xmlns="http://www.w3.org/2000/svg" xmlns:xlink="http://www.w3.org/1999/xlink" viewBox="0 0 16 16"><defs><clipPath id="clip-path"><polygon points="-28 0.5 -35.5 8 -28 15.5 -26.62 14.12 -31.77 8.97 -20.5 8.97 -20.5 7.03 -31.77 7.03 -26.62 1.88 -28 0.5" style="fill:none;clip-rule:evenodd"/></clipPath><clipPath id="clip-path-2"><polygon points="3.25 8 12 15 12 1 3.25 8"/></clipPath><clipPath id="clip-path-3"><rect width="16" height="16"/></clipPath><clipPath id="clip-path-4"><polygon points="477.76 -90.08 486.25 -98.56 488.13 -96.68 477.53 -86.07 475.64 -87.96 472.5 -91.1 474.62 -93.22 477.76 -90.08" style="fill:none;clip-rule:evenodd"/></clipPath><clipPath id="clip-path-5"><polygon points="244.26 -116.58 252.75 -125.06 254.63 -123.18 244.03 -112.57 242.14 -114.46 239 -117.6 241.12 -119.72 244.26 -116.58" style="clip-rule:evenodd"/></clipPath><clipPath id="clip-path-6"><path d="M254.08-146.67a8,8,0,0,0-1.71-2.54,8,8,0,0,0-2.54-1.71,8,8,0,0,0-3.11-.63,8,8,0,0,0-3.11.63,8,8,0,0,0-2.54,1.71,8,8,0,0,0-1.71,2.54,8,8,0,0,0-.63,3.11,8,8,0,0,0,.63,3.11A8,8,0,0,0,241-137.9a8,8,0,0,0,2.54,1.71,8,8,0,0,0,3.11.63,8,8,0,0,0,3.11-.63,8,8,0,0,0,2.54-1.71,8,8,0,0,0,1.71-2.54,8,8,0,0,0,.63-3.11A8,8,0,0,0,254.08-146.67Zm-7.37,8.61a1.09,1.09,0,0,1-1.09-1.09,1.09,1.09,0,0,1,1.09-1.09,1.09,1.09,0,0,1,1.09,1.09A1.09,1.09,0,0,1,246.7-138.05Zm1.09-3.64a.2.2,0,0,1-.2.2h-1.78a.2.2,0,0,1-.2-.2v-7.17a.2.2,0,0,1,.2-.2h1.78a.2.2,0,0,1,.2.2v7.17Z" style="clip-rule:evenodd"/></clipPath><clipPath id="clip-path-7"><circle cx="444.5" cy="47" r="12" style="fill:none"/></clipPath><clipPath id="clip-path-9"><circle cx="524.5" cy="38" r="16" style="fill:none"/></clipPath></defs><title>lefthead-1</title><polygon points="3.25 8 12 15 12 1 3.25 8"/><g style="clip-path:url(#clip-path-2)"><rect width="16" height="16"/><g style="clip-path:url(#clip-path-3)"><rect x="-1.75" y="-4" width="18.75" height="24"/></g></g><polygon points="244.26 -116.58 252.75 -125.06 254.63 -123.18 244.03 -112.57 242.14 -114.46 239 -117.6 241.12 -119.72 244.26 -116.58" style="fill-rule:evenodd"/><g style="clip-path:url(#clip-path-5)"><rect x="-361" y="-759.5" width="2448" height="1584"/></g><path d="M254.08-146.67a8,8,0,0,0-1.71-2.54,8,8,0,0,0-2.54-1.71,8,8,0,0,0-3.11-.63,8,8,0,0,0-3.11.63,8,8,0,0,0-2.54,1.71,8,8,0,0,0-1.71,2.54,8,8,0,0,0-.63,3.11,8,8,0,0,0,.63,3.11A8,8,0,0,0,241-137.9a8,8,0,0,0,2.54,1.71,8,8,0,0,0,3.11.63,8,8,0,0,0,3.11-.63,8,8,0,0,0,2.54-1.71,8,8,0,0,0,1.71-2.54,8,8,0,0,0,.63-3.11A8,8,0,0,0,254.08-146.67Zm-7.37,8.61a1.09,1.09,0,0,1-1.09-1.09,1.09,1.09,0,0,1,1.09-1.09,1.09,1.09,0,0,1,1.09,1.09A1.09,1.09,0,0,1,246.7-138.05Zm1.09-3.64a.2.2,0,0,1-.2.2h-1.78a.2.2,0,0,1-.2-.2v-7.17a.2.2,0,0,1,.2-.2h1.78a.2.2,0,0,1,.2.2v7.17Z" style="fill-rule:evenodd"/><g style="clip-path:url(#clip-path-6)"><rect x="-1493.3" y="-567.55" width="2448" height="1584"/></g></svg>