<svg xmlns="http://www.w3.org/2000/svg" xmlns:xlink="http://www.w3.org/1999/xlink" width="16" height="16" viewBox="0 0 16 16"><defs><style>.a{fill:none;clip-rule:evenodd;}.b{clip-path:url(#a);}</style><clipPath id="a"><polygon class="a" points="8.5 365.5 16 358 8.5 350.5 7.12 351.88 12.28 357.03 1 357.03 1 358.97 12.28 358.97 7.12 364.12 8.5 365.5"/></clipPath></defs><title>location-1</title><path d="M8,0A5,5,0,0,0,3,5C3,8.75,8,16,8,16s5-7.25,5-11A5,5,0,0,0,8,0ZM8,3A2,2,0,1,1,6,5,2,2,0,0,1,8,3Z"/></svg>