<svg xmlns="http://www.w3.org/2000/svg" xmlns:xlink="http://www.w3.org/1999/xlink" width="16" height="16" viewBox="0 0 16 16"><defs><style>.a{fill:none;clip-rule:evenodd;}.b{clip-path:url(#a);}</style><clipPath id="a"><polygon class="a" points="-27.5 365.5 -20 358 -27.5 350.5 -28.88 351.88 -23.73 357.03 -35 357.03 -35 358.97 -23.73 358.97 -28.88 364.12 -27.5 365.5"/></clipPath></defs><title>lock-1</title><path d="M8,1A4,4,0,0,0,4,5V7H2v8H14V7H12V5A4,4,0,0,0,8,1ZM8,3a1.9,1.9,0,0,1,2,2V7H6V5A1.9,1.9,0,0,1,8,3Z"/></svg>