<svg xmlns="http://www.w3.org/2000/svg" xmlns:xlink="http://www.w3.org/1999/xlink" width="16" height="16" viewBox="0 0 16 16"><defs><style>.a{fill:none;clip-rule:evenodd;}.b{clip-path:url(#a);}.c{clip-path:url(#b);}</style><clipPath id="a"><polygon class="a" points="8.5 165.48 16 157.98 8.5 150.48 7.12 151.85 12.28 157 1 157 1 158.95 12.28 158.95 7.12 164.1 8.5 165.48"/></clipPath><clipPath id="b"><polygon class="a" points="-20.58 357.48 -28.08 349.98 -35.58 357.48 -34.21 358.86 -29.06 353.7 -29.06 364.98 -27.11 364.98 -27.11 353.7 -21.96 358.86 -20.58 357.48"/></clipPath></defs><title>plus-1</title><path d="M8,0a8,8,0,1,0,8,8A8,8,0,0,0,8,0Zm4,9H9v3H7V9H4V7H7V4H9V7h3Z"/></svg>