<svg xmlns="http://www.w3.org/2000/svg" xmlns:xlink="http://www.w3.org/1999/xlink" width="16" height="16" viewBox="0 0 16 16"><defs><style>.a{fill:none;clip-rule:evenodd;}.b{clip-path:url(#a);}.c{clip-path:url(#b);}</style><clipPath id="a"><polygon class="a" points="44.5 115.5 52 108 44.5 100.5 43.12 101.88 48.27 107.03 37 107.03 37 108.97 48.27 108.97 43.12 114.12 44.5 115.5"/></clipPath><clipPath id="b"><polygon class="a" points="15.42 307.5 7.92 300 0.42 307.5 1.79 308.88 6.94 303.73 6.94 315 8.89 315 8.89 303.73 14.04 308.88 15.42 307.5"/></clipPath></defs><title>public-1</title><path d="M8,0a8,8,0,1,0,8,8A8,8,0,0,0,8,0Zm.81,1.06a6.89,6.89,0,0,1,1.78.47.43.43,0,0,1-.41.34.44.44,0,0,0-.44.44,1.28,1.28,0,0,1-.37.78l-.19.19c-.2.19-.15.34.09.34a7.65,7.65,0,0,0,.91-.06c.25,0,.29.09.09.28L10.09,4a1.09,1.09,0,0,0-.28.84l0,.22a.39.39,0,0,0,.56.28l1.5-.62a3,3,0,0,0,.81-.56L12.91,4c.19-.2.35-.15.34.09a1.31,1.31,0,0,0,.34.81l.16.16c.19.2.17.34-.06.34a.48.48,0,0,0-.47.44.45.45,0,0,1-.44.44.42.42,0,0,1-.41-.44c0-.24-.22-.34-.47-.22l-.16.09c-.24.13-.62.29-.81.38a3,3,0,0,0-.69.53l-.16.19c-.19.2-.53.52-.72.72l-.12.13a1.62,1.62,0,0,0-.37.88l0,.75a.84.84,0,0,0,.44.72l.88.44a2.54,2.54,0,0,0,.91.22l.88,0a1.32,1.32,0,0,1,.78.34l.19.16a.47.47,0,0,1,0,.69l-.19.19a1.41,1.41,0,0,0-.34.88v.56a7,7,0,0,1-7.78.66h.28a1.34,1.34,0,0,0,.84-.34l.16-.19a1.44,1.44,0,0,0,.38-.84V12a.5.5,0,0,0-.5-.5H5A.91.91,0,0,1,4.28,11l-.44-.84a.87.87,0,0,0-.72-.44H2.37a.5.5,0,0,1-.5-.5V8.5A.47.47,0,0,1,2.31,8a1.27,1.27,0,0,1,.78.38l.16.19c.19.2.34.15.34-.09a1.31,1.31,0,0,0-.34-.81L3.09,7.5a1.3,1.3,0,0,1-.34-.81c0-.24,0-.63,0-.87s.14-.44.31-.44.37-.2.44-.44a.65.65,0,0,1,.63-.41h.53a1.31,1.31,0,0,0,.84-.37L5.66,4a.39.39,0,0,0-.09-.62L4.91,3a.87.87,0,0,1-.44-.69c0-.24.18-.29.38-.09L5,2.37a.51.51,0,0,0,.72,0l.19-.22a1.25,1.25,0,0,0,.34-.78.35.35,0,0,1,.06-.19c.2,0,.41-.09.63-.12a.44.44,0,0,1,.19.34,1.34,1.34,0,0,1-.34.78l-.19.19c-.19.2-.14.34.09.34a1.26,1.26,0,0,0,.78-.34l.16-.19.72-.72.47-.44Z"/></svg>