<svg id="Layer_1" data-name="Layer 1" xmlns="http://www.w3.org/2000/svg" xmlns:xlink="http://www.w3.org/1999/xlink" viewBox="0 0 24 24"><defs><clipPath id="clip-path"><polygon points="-353.93 -76.72 -361.43 -69.22 -353.93 -61.72 -352.55 -63.1 -357.7 -68.25 -346.43 -68.25 -346.43 -70.19 -357.7 -70.19 -352.55 -75.35 -353.93 -76.72" style="fill:none;clip-rule:evenodd"/></clipPath><clipPath id="clip-path-2"><polygon points="151.84 -167.3 160.32 -175.79 162.21 -173.9 151.6 -163.29 149.72 -165.18 146.57 -168.32 148.7 -170.44 151.84 -167.3" style="fill:none;clip-rule:evenodd"/></clipPath><clipPath id="clip-path-3"><polygon points="-81.66 -193.8 -73.18 -202.29 -71.29 -200.4 -81.9 -189.79 -83.78 -191.68 -86.92 -194.82 -84.8 -196.94 -81.66 -193.8" style="clip-rule:evenodd"/></clipPath><clipPath id="clip-path-4"><path d="M-71.85-223.89a8,8,0,0,0-1.71-2.54,8,8,0,0,0-2.54-1.71,8,8,0,0,0-3.11-.63,8,8,0,0,0-3.11.63,8,8,0,0,0-2.54,1.71,8,8,0,0,0-1.71,2.54,8,8,0,0,0-.63,3.11,8,8,0,0,0,.63,3.11,8,8,0,0,0,1.71,2.54,8,8,0,0,0,2.54,1.71,8,8,0,0,0,3.11.63,8,8,0,0,0,3.11-.63,8,8,0,0,0,2.54-1.71,8,8,0,0,0,1.71-2.54,8,8,0,0,0,.63-3.11A8,8,0,0,0-71.85-223.89Zm-7.37,8.61a1.09,1.09,0,0,1-1.09-1.09,1.09,1.09,0,0,1,1.09-1.09,1.09,1.09,0,0,1,1.09,1.09A1.09,1.09,0,0,1-79.22-215.28Zm1.09-3.64a.2.2,0,0,1-.2.2h-1.78a.2.2,0,0,1-.2-.2v-7.17a.2.2,0,0,1,.2-.2h1.78a.2.2,0,0,1,.2.2v7.17Z" style="clip-rule:evenodd"/></clipPath><clipPath id="clip-path-5"><circle cx="118.58" cy="-30.22" r="12" style="fill:none"/></clipPath><clipPath id="clip-path-7"><circle cx="198.58" cy="-39.22" r="16" style="fill:none"/></clipPath></defs><title>Ra</title><polygon points="-81.66 -193.8 -73.18 -202.29 -71.29 -200.4 -81.9 -189.79 -83.78 -191.68 -86.92 -194.82 -84.8 -196.94 -81.66 -193.8" style="fill-rule:evenodd"/><g style="clip-path:url(#clip-path-3)"><rect x="-686.92" y="-836.72" width="2448" height="1584"/></g><path d="M12,2A10,10,0,1,1,2,12,10,10,0,0,1,12,2m0-2A12,12,0,1,0,24,12,12,12,0,0,0,12,0Z"/><circle cx="12" cy="12" r="8"/><path d="M-71.85-223.89a8,8,0,0,0-1.71-2.54,8,8,0,0,0-2.54-1.71,8,8,0,0,0-3.11-.63,8,8,0,0,0-3.11.63,8,8,0,0,0-2.54,1.71,8,8,0,0,0-1.71,2.54,8,8,0,0,0-.63,3.11,8,8,0,0,0,.63,3.11,8,8,0,0,0,1.71,2.54,8,8,0,0,0,2.54,1.71,8,8,0,0,0,3.11.63,8,8,0,0,0,3.11-.63,8,8,0,0,0,2.54-1.71,8,8,0,0,0,1.71-2.54,8,8,0,0,0,.63-3.11A8,8,0,0,0-71.85-223.89Zm-7.37,8.61a1.09,1.09,0,0,1-1.09-1.09,1.09,1.09,0,0,1,1.09-1.09,1.09,1.09,0,0,1,1.09,1.09A1.09,1.09,0,0,1-79.22-215.28Zm1.09-3.64a.2.2,0,0,1-.2.2h-1.78a.2.2,0,0,1-.2-.2v-7.17a.2.2,0,0,1,.2-.2h1.78a.2.2,0,0,1,.2.2v7.17Z" style="fill-rule:evenodd"/><g style="clip-path:url(#clip-path-4)"><rect x="-1819.22" y="-644.78" width="2448" height="1584"/></g></svg>