<svg id="Layer_1" data-name="Layer 1" xmlns="http://www.w3.org/2000/svg" xmlns:xlink="http://www.w3.org/1999/xlink" viewBox="0 0 24 24"><defs><clipPath id="clip-path"><polygon points="-326.02 -76.72 -333.52 -69.22 -326.02 -61.72 -324.65 -63.1 -329.8 -68.25 -318.52 -68.25 -318.52 -70.19 -329.8 -70.19 -324.65 -75.35 -326.02 -76.72" style="fill:none;clip-rule:evenodd"/></clipPath><clipPath id="clip-path-2"><polygon points="179.74 -167.3 188.23 -175.79 190.11 -173.9 179.51 -163.29 177.62 -165.18 174.48 -168.32 176.6 -170.44 179.74 -167.3" style="fill:none;clip-rule:evenodd"/></clipPath><clipPath id="clip-path-3"><polygon points="-53.76 -193.8 -45.27 -202.29 -43.39 -200.4 -53.99 -189.79 -55.88 -191.68 -59.02 -194.82 -56.9 -196.94 -53.76 -193.8" style="clip-rule:evenodd"/></clipPath><clipPath id="clip-path-4"><path d="M-43.95-223.89a8,8,0,0,0-1.71-2.54,8,8,0,0,0-2.54-1.71,8,8,0,0,0-3.11-.63,8,8,0,0,0-3.11.63A8,8,0,0,0-57-226.43a8,8,0,0,0-1.71,2.54,8,8,0,0,0-.63,3.11,8,8,0,0,0,.63,3.11A8,8,0,0,0-57-215.12a8,8,0,0,0,2.54,1.71,8,8,0,0,0,3.11.63,8,8,0,0,0,3.11-.63,8,8,0,0,0,2.54-1.71,8,8,0,0,0,1.71-2.54,8,8,0,0,0,.63-3.11A8,8,0,0,0-43.95-223.89Zm-7.37,8.61a1.09,1.09,0,0,1-1.09-1.09,1.09,1.09,0,0,1,1.09-1.09,1.09,1.09,0,0,1,1.09,1.09A1.09,1.09,0,0,1-51.32-215.28Zm1.09-3.64a.2.2,0,0,1-.2.2h-1.78a.2.2,0,0,1-.2-.2v-7.17a.2.2,0,0,1,.2-.2h1.78a.2.2,0,0,1,.2.2v7.17Z" style="clip-rule:evenodd"/></clipPath><clipPath id="clip-path-5"><circle cx="146.48" cy="-30.22" r="12" style="fill:none"/></clipPath><clipPath id="clip-path-7"><circle cx="226.48" cy="-39.22" r="16" style="fill:none"/></clipPath></defs><title>Radio - Selected</title><polygon points="-53.76 -193.8 -45.27 -202.29 -43.39 -200.4 -53.99 -189.79 -55.88 -191.68 -59.02 -194.82 -56.9 -196.94 -53.76 -193.8" style="fill-rule:evenodd"/><g style="clip-path:url(#clip-path-3)"><rect x="-659.02" y="-836.72" width="2448" height="1584"/></g><circle cx="12" cy="12" r="8"/><path d="M-43.95-223.89a8,8,0,0,0-1.71-2.54,8,8,0,0,0-2.54-1.71,8,8,0,0,0-3.11-.63,8,8,0,0,0-3.11.63A8,8,0,0,0-57-226.43a8,8,0,0,0-1.71,2.54,8,8,0,0,0-.63,3.11,8,8,0,0,0,.63,3.11A8,8,0,0,0-57-215.12a8,8,0,0,0,2.54,1.71,8,8,0,0,0,3.11.63,8,8,0,0,0,3.11-.63,8,8,0,0,0,2.54-1.71,8,8,0,0,0,1.71-2.54,8,8,0,0,0,.63-3.11A8,8,0,0,0-43.95-223.89Zm-7.37,8.61a1.09,1.09,0,0,1-1.09-1.09,1.09,1.09,0,0,1,1.09-1.09,1.09,1.09,0,0,1,1.09,1.09A1.09,1.09,0,0,1-51.32-215.28Zm1.09-3.64a.2.2,0,0,1-.2.2h-1.78a.2.2,0,0,1-.2-.2v-7.17a.2.2,0,0,1,.2-.2h1.78a.2.2,0,0,1,.2.2v7.17Z" style="fill-rule:evenodd"/><g style="clip-path:url(#clip-path-4)"><rect x="-1791.32" y="-644.78" width="2448" height="1584"/></g></svg>