<svg id="Layer_1" data-name="Layer 1" xmlns="http://www.w3.org/2000/svg" xmlns:xlink="http://www.w3.org/1999/xlink" viewBox="0 0 24 24"><defs><clipPath id="clip-path"><polygon points="-298.84 -113.07 -306.34 -105.57 -298.84 -98.07 -297.46 -99.45 -302.61 -104.6 -291.34 -104.6 -291.34 -106.55 -302.61 -106.55 -297.46 -111.7 -298.84 -113.07" style="fill:none;clip-rule:evenodd"/></clipPath><clipPath id="clip-path-2"><polygon points="206.93 -203.65 215.41 -212.14 217.3 -210.25 206.69 -199.65 204.81 -201.53 201.66 -204.67 203.79 -206.79 206.93 -203.65" style="fill:none;clip-rule:evenodd"/></clipPath><clipPath id="clip-path-3"><polygon points="-26.57 -230.15 -18.09 -238.64 -16.2 -236.75 -26.81 -226.15 -28.69 -228.03 -31.84 -231.17 -29.71 -233.29 -26.57 -230.15" style="clip-rule:evenodd"/></clipPath><clipPath id="clip-path-4"><path d="M-16.76-260.24a8,8,0,0,0-1.71-2.54A8,8,0,0,0-21-264.5a8,8,0,0,0-3.11-.63,8,8,0,0,0-3.11.63,8,8,0,0,0-2.54,1.71,8,8,0,0,0-1.71,2.54,8,8,0,0,0-.63,3.11A8,8,0,0,0-31.5-254a8,8,0,0,0,1.71,2.54,8,8,0,0,0,2.54,1.71,8,8,0,0,0,3.11.63,8,8,0,0,0,3.11-.63,8,8,0,0,0,2.54-1.71A8,8,0,0,0-16.76-254a8,8,0,0,0,.63-3.11A8,8,0,0,0-16.76-260.24Zm-7.37,8.61a1.09,1.09,0,0,1-1.09-1.09,1.09,1.09,0,0,1,1.09-1.09A1.09,1.09,0,0,1-23-252.72,1.09,1.09,0,0,1-24.13-251.63Zm1.09-3.64a.2.2,0,0,1-.2.2H-25a.2.2,0,0,1-.2-.2v-7.17a.2.2,0,0,1,.2-.2h1.78a.2.2,0,0,1,.2.2v7.17Z" style="clip-rule:evenodd"/></clipPath><clipPath id="clip-path-5"><circle cx="173.66" cy="-66.57" r="12" style="fill:none"/></clipPath><clipPath id="clip-path-7"><circle cx="253.66" cy="-75.57" r="16" style="fill:none"/></clipPath></defs><title>Radio - Background</title><polygon points="-26.57 -230.15 -18.09 -238.64 -16.2 -236.75 -26.81 -226.15 -28.69 -228.03 -31.84 -231.17 -29.71 -233.29 -26.57 -230.15" style="fill-rule:evenodd"/><g style="clip-path:url(#clip-path-3)"><rect x="-631.84" y="-873.07" width="2448" height="1584"/></g><circle cx="12" cy="12" r="12"/><path d="M-16.76-260.24a8,8,0,0,0-1.71-2.54A8,8,0,0,0-21-264.5a8,8,0,0,0-3.11-.63,8,8,0,0,0-3.11.63,8,8,0,0,0-2.54,1.71,8,8,0,0,0-1.71,2.54,8,8,0,0,0-.63,3.11A8,8,0,0,0-31.5-254a8,8,0,0,0,1.71,2.54,8,8,0,0,0,2.54,1.71,8,8,0,0,0,3.11.63,8,8,0,0,0,3.11-.63,8,8,0,0,0,2.54-1.71A8,8,0,0,0-16.76-254a8,8,0,0,0,.63-3.11A8,8,0,0,0-16.76-260.24Zm-7.37,8.61a1.09,1.09,0,0,1-1.09-1.09,1.09,1.09,0,0,1,1.09-1.09A1.09,1.09,0,0,1-23-252.72,1.09,1.09,0,0,1-24.13-251.63Zm1.09-3.64a.2.2,0,0,1-.2.2H-25a.2.2,0,0,1-.2-.2v-7.17a.2.2,0,0,1,.2-.2h1.78a.2.2,0,0,1,.2.2v7.17Z" style="fill-rule:evenodd"/><g style="clip-path:url(#clip-path-4)"><rect x="-1764.13" y="-681.13" width="2448" height="1584"/></g></svg>