<svg id="Layer_1" data-name="Layer 1" xmlns="http://www.w3.org/2000/svg" xmlns:xlink="http://www.w3.org/1999/xlink" viewBox="0 0 24 24"><defs><clipPath id="clip-path"><polygon points="-326.15 -112.94 -333.65 -105.44 -326.15 -97.94 -324.77 -99.31 -329.93 -104.46 -318.65 -104.46 -318.65 -106.41 -329.93 -106.41 -324.77 -111.56 -326.15 -112.94" style="fill:none;clip-rule:evenodd"/></clipPath><clipPath id="clip-path-2"><polygon points="179.61 -203.52 188.1 -212 189.99 -210.12 179.38 -199.51 177.49 -201.4 174.35 -204.54 176.47 -206.66 179.61 -203.52" style="fill:none;clip-rule:evenodd"/></clipPath><clipPath id="clip-path-3"><polygon points="-53.89 -230.02 -45.4 -238.5 -43.52 -236.62 -54.12 -226.01 -56.01 -227.9 -59.15 -231.04 -57.03 -233.16 -53.89 -230.02" style="clip-rule:evenodd"/></clipPath><clipPath id="clip-path-4"><path d="M-44.07-260.1a8,8,0,0,0-1.71-2.54,8,8,0,0,0-2.54-1.71,8,8,0,0,0-3.11-.63,8,8,0,0,0-3.11.63,8,8,0,0,0-2.54,1.71,8,8,0,0,0-1.71,2.54,8,8,0,0,0-.63,3.11,8,8,0,0,0,.63,3.11,8,8,0,0,0,1.71,2.54,8,8,0,0,0,2.54,1.71,8,8,0,0,0,3.11.63,8,8,0,0,0,3.11-.63,8,8,0,0,0,2.54-1.71,8,8,0,0,0,1.71-2.54,8,8,0,0,0,.63-3.11A8,8,0,0,0-44.07-260.1Zm-7.37,8.61a1.09,1.09,0,0,1-1.09-1.09,1.09,1.09,0,0,1,1.09-1.09,1.09,1.09,0,0,1,1.09,1.09A1.09,1.09,0,0,1-51.45-251.49Zm1.09-3.64a.2.2,0,0,1-.2.2h-1.78a.2.2,0,0,1-.2-.2v-7.17a.2.2,0,0,1,.2-.2h1.78a.2.2,0,0,1,.2.2v7.17Z" style="clip-rule:evenodd"/></clipPath><clipPath id="clip-path-5"><circle cx="146.35" cy="-66.44" r="12" style="fill:none"/></clipPath><clipPath id="clip-path-7"><circle cx="226.35" cy="-75.44" r="16" style="fill:none"/></clipPath></defs><title>Radio - Ring</title><polygon points="-53.89 -230.02 -45.4 -238.5 -43.52 -236.62 -54.12 -226.01 -56.01 -227.9 -59.15 -231.04 -57.03 -233.16 -53.89 -230.02" style="fill-rule:evenodd"/><g style="clip-path:url(#clip-path-3)"><rect x="-659.15" y="-872.94" width="2448" height="1584"/></g><path d="M12,2A10,10,0,1,1,2,12,10,10,0,0,1,12,2m0-2A12,12,0,1,0,24,12,12,12,0,0,0,12,0Z"/><path d="M-44.07-260.1a8,8,0,0,0-1.71-2.54,8,8,0,0,0-2.54-1.71,8,8,0,0,0-3.11-.63,8,8,0,0,0-3.11.63,8,8,0,0,0-2.54,1.71,8,8,0,0,0-1.71,2.54,8,8,0,0,0-.63,3.11,8,8,0,0,0,.63,3.11,8,8,0,0,0,1.71,2.54,8,8,0,0,0,2.54,1.71,8,8,0,0,0,3.11.63,8,8,0,0,0,3.11-.63,8,8,0,0,0,2.54-1.71,8,8,0,0,0,1.71-2.54,8,8,0,0,0,.63-3.11A8,8,0,0,0-44.07-260.1Zm-7.37,8.61a1.09,1.09,0,0,1-1.09-1.09,1.09,1.09,0,0,1,1.09-1.09,1.09,1.09,0,0,1,1.09,1.09A1.09,1.09,0,0,1-51.45-251.49Zm1.09-3.64a.2.2,0,0,1-.2.2h-1.78a.2.2,0,0,1-.2-.2v-7.17a.2.2,0,0,1,.2-.2h1.78a.2.2,0,0,1,.2.2v7.17Z" style="fill-rule:evenodd"/><g style="clip-path:url(#clip-path-4)"><rect x="-1791.45" y="-680.99" width="2448" height="1584"/></g></svg>