<svg xmlns="http://www.w3.org/2000/svg" xmlns:xlink="http://www.w3.org/1999/xlink" width="16" height="16" viewBox="0 0 16 16"><defs><style>.a{fill:none;clip-rule:evenodd;}.b{clip-path:url(#a);}.c{clip-path:url(#b);}</style><clipPath id="a"><polygon class="a" points="-27.5 65.5 -20 58 -27.5 50.5 -28.88 51.88 -23.73 57.03 -35 57.03 -35 58.97 -23.73 58.97 -28.88 64.12 -27.5 65.5"/></clipPath><clipPath id="b"><polygon class="a" points="-56.58 257.5 -64.08 250 -71.58 257.5 -70.21 258.88 -65.06 253.72 -65.06 265 -63.11 265 -63.11 253.72 -57.96 258.88 -56.58 257.5"/></clipPath></defs><title>remove-1</title><path d="M8,0a8,8,0,1,0,8,8A8,8,0,0,0,8,0ZM6,4.59l2,2,2-2L11.41,6l-2,2,2,2L10,11.41l-2-2-2,2L4.59,10l2-2-2-2Z"/></svg>