<svg xmlns="http://www.w3.org/2000/svg" xmlns:xlink="http://www.w3.org/1999/xlink" width="16" height="16" viewBox="0 0 16 16"><defs><style>.a{fill:none;clip-rule:evenodd;}.b{clip-path:url(#a);}.c{clip-path:url(#b);}</style><clipPath id="a"><polygon class="a" points="-99.5 65.5 -92 58 -99.5 50.5 -100.88 51.88 -95.72 57.03 -107 57.03 -107 58.97 -95.72 58.97 -100.88 64.12 -99.5 65.5"/></clipPath><clipPath id="b"><polygon class="a" points="-128.58 257.5 -136.08 250 -143.58 257.5 -142.21 258.88 -137.06 253.72 -137.06 265 -135.11 265 -135.11 253.72 -129.96 258.88 -128.58 257.5"/></clipPath></defs><title>remove-3</title><path d="M2,.59.59,2l6,6-6,6L2,15.41l6-6,6,6L15.41,14l-6-6,6-6L14,.59l-6,6Z"/></svg>