<svg xmlns="http://www.w3.org/2000/svg" xmlns:xlink="http://www.w3.org/1999/xlink" width="16" height="16" viewBox="0 0 16 16"><defs><style>.a{fill:none;clip-rule:evenodd;}.b{clip-path:url(#a);}.c{clip-path:url(#b);}.d{clip-path:url(#c);}.e{clip-path:url(#d);}</style><clipPath id="a"><polygon class="a" points="-27.5 15.5 -20 8 -27.5 0.5 -28.88 1.88 -23.73 7.03 -35 7.03 -35 8.97 -23.73 8.97 -28.88 14.12 -27.5 15.5"/></clipPath><clipPath id="b"><polygon class="a" points="-56.58 207.5 -64.08 200 -71.58 207.5 -70.21 208.88 -65.06 203.72 -65.06 215 -63.11 215 -63.11 203.72 -57.96 208.88 -56.58 207.5"/></clipPath><clipPath id="c"><polygon points="12.75 8 4 1 4 15 12.75 8"/></clipPath><clipPath id="d"><rect width="16" height="16"/></clipPath></defs><title>righthead-1</title><polygon points="12.75 8 4 1 4 15 12.75 8"/><g class="d"><rect width="16" height="16"/><g class="e"><rect x="-1" y="-4" width="18.75" height="24"/></g></g></svg>