<svg xmlns="http://www.w3.org/2000/svg" xmlns:xlink="http://www.w3.org/1999/xlink" width="16" height="16" viewBox="0 0 16 16"><defs><style>.a,.d{fill:none;}.a{clip-rule:evenodd;}.b{clip-path:url(#a);}.c{clip-path:url(#b);}.d{stroke:#ffe000;stroke-miterlimit:10;}</style><clipPath id="a"><polygon class="a" points="44.5 -84.5 52 -92 44.5 -99.5 43.12 -98.12 48.27 -92.97 37 -92.97 37 -91.03 48.27 -91.03 43.12 -85.88 44.5 -84.5"/></clipPath><clipPath id="b"><polygon class="a" points="15.42 107.5 7.92 100 0.42 107.5 1.79 108.88 6.94 103.72 6.94 115 8.89 115 8.89 103.72 14.04 108.88 15.42 107.5"/></clipPath></defs><title>share-1</title><path d="M11,1V4H10C2,4,0,8.11,0,14c1-4,4-5,8-5h3v3l5-5.34Z"/><rect class="d" width="16" height="16"/></svg>