<svg xmlns="http://www.w3.org/2000/svg" xmlns:xlink="http://www.w3.org/1999/xlink" width="16" height="16" viewBox="0 0 16 16"><defs><style>.a{fill:none;clip-rule:evenodd;}.b{clip-path:url(#a);}.c{clip-path:url(#b);}</style><clipPath id="a"><polygon class="a" points="-27.5 -84.5 -20 -92 -27.5 -99.5 -28.88 -98.12 -23.73 -92.97 -35 -92.97 -35 -91.03 -23.73 -91.03 -28.88 -85.88 -27.5 -84.5"/></clipPath><clipPath id="b"><polygon class="a" points="-56.58 107.5 -64.08 100 -71.58 107.5 -70.21 108.88 -65.06 103.72 -65.06 115 -63.11 115 -63.11 103.72 -57.96 108.88 -56.58 107.5"/></clipPath></defs><title>support-1</title><path d="M8,0a8,8,0,1,0,8,8A8,8,0,0,0,8,0ZM9,13.5H7v-2H9Zm1.58-6A9.74,9.74,0,0,1,9.34,9,1,1,0,0,0,9,9.42a2.89,2.89,0,0,0,0,.7v.4H7v-.4A3.36,3.36,0,0,1,7.21,8.7a3.78,3.78,0,0,1,.83-1,9.94,9.94,0,0,0,.84-1.08,1.34,1.34,0,0,0,.19-.74,1.05,1.05,0,0,0-.23-.77.93.93,0,0,0-.74-.23,1.11,1.11,0,0,0-.72.22.77.77,0,0,0-.25.61v.4h-2v-.4A2.51,2.51,0,0,1,6,3.77a3,3,0,0,1,2.1-.7,3.1,3.1,0,0,1,2.13.7,2.66,2.66,0,0,1,.8,2A2.8,2.8,0,0,1,10.58,7.52Z"/></svg>