<svg id="Layer_1" data-name="Layer 1" xmlns="http://www.w3.org/2000/svg" xmlns:xlink="http://www.w3.org/1999/xlink" viewBox="0 0 32 32"><defs><clipPath id="clip-path"><polygon points="-420.62 -138.18 -428.12 -130.67 -420.62 -123.17 -419.24 -124.55 -424.4 -129.7 -413.12 -129.7 -413.12 -131.65 -424.4 -131.65 -419.24 -136.8 -420.62 -138.18" style="fill:none;clip-rule:evenodd"/></clipPath><clipPath id="clip-path-2"><polygon points="85.14 -228.75 93.63 -237.24 95.51 -235.35 84.91 -224.75 83.02 -226.63 79.88 -229.78 82 -231.9 85.14 -228.75" style="fill:none;clip-rule:evenodd"/></clipPath><clipPath id="clip-path-3"><polygon points="-148.36 -255.25 -139.87 -263.74 -137.99 -261.85 -148.59 -251.25 -150.48 -253.13 -153.62 -256.27 -151.5 -258.4 -148.36 -255.25" style="clip-rule:evenodd"/></clipPath><clipPath id="clip-path-4"><path d="M-138.55-285.34a8,8,0,0,0-1.71-2.54,8,8,0,0,0-2.54-1.71,8,8,0,0,0-3.11-.63,8,8,0,0,0-3.11.63,8,8,0,0,0-2.54,1.71,8,8,0,0,0-1.71,2.54,8,8,0,0,0-.63,3.11,8,8,0,0,0,.63,3.11,8,8,0,0,0,1.71,2.54,8,8,0,0,0,2.54,1.71,8,8,0,0,0,3.11.63,8,8,0,0,0,3.11-.63,8,8,0,0,0,2.54-1.71,8,8,0,0,0,1.71-2.54,8,8,0,0,0,.63-3.11A8,8,0,0,0-138.55-285.34Zm-7.37,8.61a1.09,1.09,0,0,1-1.09-1.09,1.09,1.09,0,0,1,1.09-1.09,1.09,1.09,0,0,1,1.09,1.09A1.09,1.09,0,0,1-145.92-276.73Zm1.09-3.64a.2.2,0,0,1-.2.2h-1.78a.2.2,0,0,1-.2-.2v-7.17a.2.2,0,0,1,.2-.2H-145a.2.2,0,0,1,.2.2v7.17Z" style="clip-rule:evenodd"/></clipPath><clipPath id="clip-path-5"><circle cx="51.88" cy="-91.67" r="12" style="fill:none"/></clipPath><clipPath id="clip-path-7"><circle cx="131.88" cy="-100.67" r="16" style="fill:none"/></clipPath></defs><title>Switch - Large</title><polygon points="-148.36 -255.25 -139.87 -263.74 -137.99 -261.85 -148.59 -251.25 -150.48 -253.13 -153.62 -256.27 -151.5 -258.4 -148.36 -255.25" style="fill-rule:evenodd"/><g style="clip-path:url(#clip-path-3)"><rect x="-753.62" y="-898.17" width="2448" height="1584"/></g><path d="M-138.55-285.34a8,8,0,0,0-1.71-2.54,8,8,0,0,0-2.54-1.71,8,8,0,0,0-3.11-.63,8,8,0,0,0-3.11.63,8,8,0,0,0-2.54,1.71,8,8,0,0,0-1.71,2.54,8,8,0,0,0-.63,3.11,8,8,0,0,0,.63,3.11,8,8,0,0,0,1.71,2.54,8,8,0,0,0,2.54,1.71,8,8,0,0,0,3.11.63,8,8,0,0,0,3.11-.63,8,8,0,0,0,2.54-1.71,8,8,0,0,0,1.71-2.54,8,8,0,0,0,.63-3.11A8,8,0,0,0-138.55-285.34Zm-7.37,8.61a1.09,1.09,0,0,1-1.09-1.09,1.09,1.09,0,0,1,1.09-1.09,1.09,1.09,0,0,1,1.09,1.09A1.09,1.09,0,0,1-145.92-276.73Zm1.09-3.64a.2.2,0,0,1-.2.2h-1.78a.2.2,0,0,1-.2-.2v-7.17a.2.2,0,0,1,.2-.2H-145a.2.2,0,0,1,.2.2v7.17Z" style="fill-rule:evenodd"/><g style="clip-path:url(#clip-path-4)"><rect x="-1885.92" y="-706.23" width="2448" height="1584"/></g><path d="M16,31.5A15.5,15.5,0,1,1,31.5,16,15.52,15.52,0,0,1,16,31.5Z" style="fill:#fff;fill-rule:evenodd"/><path d="M16,1A15,15,0,1,1,1,16,15,15,0,0,1,16,1m0-1A16,16,0,1,0,32,16,16,16,0,0,0,16,0Z"/></svg>