<svg xmlns="http://www.w3.org/2000/svg" xmlns:xlink="http://www.w3.org/1999/xlink" width="16" height="16" viewBox="0 0 16 16"><defs><style>.a{fill:none;clip-rule:evenodd;}.b{clip-path:url(#a);}.c{clip-path:url(#b);}</style><clipPath id="a"><polygon class="a" points="-63.5 -84.5 -56 -92 -63.5 -99.5 -64.88 -98.12 -59.73 -92.97 -71 -92.97 -71 -91.03 -59.73 -91.03 -64.88 -85.88 -63.5 -84.5"/></clipPath><clipPath id="b"><polygon class="a" points="-92.58 107.5 -100.08 100 -107.58 107.5 -106.21 108.88 -101.06 103.72 -101.06 115 -99.11 115 -99.11 103.72 -93.96 108.88 -92.58 107.5"/></clipPath></defs><title>sync-1</title><path d="M7.81,2A6.06,6.06,0,0,0,2,8H0l3,3L6,8H4a4,4,0,0,1,6.84-2.84l1.41-1.41A5.7,5.7,0,0,0,9.09,2.1,6,6,0,0,0,7.81,2ZM13,5,10,8h2a4,4,0,0,1-6.84,2.81L3.75,12.23A6.08,6.08,0,0,0,14,8h2L13,5Z"/></svg>