<svg xmlns="http://www.w3.org/2000/svg" xmlns:xlink="http://www.w3.org/1999/xlink" width="16" height="16" viewBox="0 0 16 16"><defs><style>.a{fill:none;clip-rule:evenodd;}.b{clip-path:url(#a);}.c{clip-path:url(#b);}</style><clipPath id="a"><polygon class="a" points="-99.5 -84.5 -92 -92 -99.5 -99.5 -100.88 -98.12 -95.72 -92.97 -107 -92.97 -107 -91.03 -95.72 -91.03 -100.88 -85.88 -99.5 -84.5"/></clipPath><clipPath id="b"><polygon class="a" points="-128.58 107.5 -136.08 100 -143.58 107.5 -142.21 108.88 -137.06 103.72 -137.06 115 -135.11 115 -135.11 103.72 -129.96 108.88 -128.58 107.5"/></clipPath></defs><title>table-1</title><path d="M.25,0A.25.25,0,0,0,0,.25v14.5A.25.25,0,0,0,.25,15h15.5a.25.25,0,0,0,.25-.25V.25A.25.25,0,0,0,15.75,0ZM2,2H4V4H2ZM5,2H9V4H5Zm5,0h4V4H10ZM2,5H4V7H2ZM5,5H9V7H5Zm5,0h4V7H10ZM2,8H4v2H2ZM5,8H9v2H5Zm5,0h4v2H10ZM2,11H4v2H2Zm3,0H9v2H5Zm5,0h4v2H10Z"/></svg>