<svg xmlns="http://www.w3.org/2000/svg" xmlns:xlink="http://www.w3.org/1999/xlink" width="16" height="16" viewBox="0 0 16 16"><defs><style>.a{fill:none;clip-rule:evenodd;}.b{clip-path:url(#a);}.c{clip-path:url(#b);}</style><clipPath id="a"><polygon class="a" points="44.25 -134.5 51.75 -142 44.25 -149.5 42.87 -148.12 48.02 -142.97 36.75 -142.97 36.75 -141.03 48.02 -141.03 42.87 -135.88 44.25 -134.5"/></clipPath><clipPath id="b"><polygon class="a" points="15.17 57.5 7.67 50 0.17 57.5 1.54 58.88 6.69 53.73 6.69 65 8.64 65 8.64 53.73 13.79 58.88 15.17 57.5"/></clipPath></defs><title>thumbmenu-1</title><path d="M0,0V2H16V0ZM0,3V14.75A.25.25,0,0,0,.25,15h15.5a.25.25,0,0,0,.25-.25V3ZM6.25,5h3.5a.25.25,0,0,1,.25.25v1.5A.25.25,0,0,1,9.75,7H6.25A.25.25,0,0,1,6,6.75V5.25A.25.25,0,0,1,6.25,5Z"/></svg>