<svg xmlns="http://www.w3.org/2000/svg" xmlns:xlink="http://www.w3.org/1999/xlink" width="16" height="16" viewBox="0 0 16 16"><defs><style>.a{fill:none;clip-rule:evenodd;}.b{clip-path:url(#a);}.c{clip-path:url(#b);}</style><clipPath id="a"><polygon class="a" points="-135.5 -134.5 -128 -142 -135.5 -149.5 -136.88 -148.12 -131.72 -142.97 -143 -142.97 -143 -141.03 -131.72 -141.03 -136.88 -135.88 -135.5 -134.5"/></clipPath><clipPath id="b"><polygon class="a" points="-164.58 57.5 -172.08 50 -179.58 57.5 -178.21 58.88 -173.06 53.73 -173.06 65 -171.11 65 -171.11 53.73 -165.96 58.88 -164.58 57.5"/></clipPath></defs><title>unlock-1</title><path d="M8,0A4,4,0,0,0,4,4V5H6V4A1.9,1.9,0,0,1,8,2a1.9,1.9,0,0,1,2,2V8H2v8H14V8H12V4A4,4,0,0,0,8,0Z"/></svg>