<svg xmlns="http://www.w3.org/2000/svg" xmlns:xlink="http://www.w3.org/1999/xlink" width="16" height="16" viewBox="0 0 16 16"><defs><style>.a{fill:none;clip-rule:evenodd;}.b{clip-path:url(#a);}.c{clip-path:url(#b);}.d{clip-path:url(#c);}.e{clip-path:url(#d);}</style><clipPath id="a"><polygon class="a" points="8 -184.5 15.5 -192 8 -199.5 6.62 -198.12 11.78 -192.97 0.5 -192.97 0.5 -191.03 11.78 -191.03 6.62 -185.88 8 -184.5"/></clipPath><clipPath id="b"><polygon class="a" points="-21.08 7.5 -28.58 0 -36.08 7.5 -34.71 8.88 -29.56 3.73 -29.56 15 -27.61 15 -27.61 3.73 -22.46 8.88 -21.08 7.5"/></clipPath><clipPath id="c"><polygon points="12.67 7.92 3.92 0.92 3.92 14.92 12.67 7.92"/></clipPath><clipPath id="d"><rect x="-0.08" y="-0.08" width="16" height="16"/></clipPath></defs><title>uphead-1</title><polygon points="12.67 7.92 3.92 0.92 3.92 14.92 12.67 7.92"/><g class="d"><rect x="-0.08" y="-0.08" width="16" height="16"/><g class="e"><rect x="-1.08" y="-4.08" width="18.75" height="24"/></g></g></svg>