<svg xmlns="http://www.w3.org/2000/svg" xmlns:xlink="http://www.w3.org/1999/xlink" width="16" height="16" viewBox="0 0 16 16"><defs><style>.a,.d{fill:none;}.a{clip-rule:evenodd;}.b{clip-path:url(#a);}.c{clip-path:url(#b);}.d{stroke:#ffe000;stroke-miterlimit:10;}</style><clipPath id="a"><polygon class="a" points="-99.5 -184.5 -92 -192 -99.5 -199.5 -100.88 -198.12 -95.72 -192.97 -107 -192.97 -107 -191.03 -95.72 -191.03 -100.88 -185.88 -99.5 -184.5"/></clipPath><clipPath id="b"><polygon class="a" points="-128.58 7.5 -136.09 0 -143.58 7.5 -142.21 8.88 -137.06 3.73 -137.06 15 -135.11 15 -135.11 3.73 -129.96 8.88 -128.58 7.5"/></clipPath></defs><title>uphead-4</title><polygon points="15.5 7.5 8 0 0.5 7.5 1.88 8.88 8 2.75 14.12 8.88 15.5 7.5"/><polygon points="15.5 14.62 8 7.12 0.5 14.62 1.88 16 8 9.88 14.12 16 15.5 14.62"/><rect class="d" width="16" height="16"/></svg>