<svg xmlns="http://www.w3.org/2000/svg" xmlns:xlink="http://www.w3.org/1999/xlink" width="16" height="16" viewBox="0 0 16 16"><defs><style>.a{fill:none;clip-rule:evenodd;}.b{clip-path:url(#a);}.c{clip-path:url(#b);}</style><clipPath id="a"><polygon class="a" points="-135.5 -184.5 -128 -192 -135.5 -199.5 -136.88 -198.12 -131.72 -192.97 -143 -192.97 -143 -191.03 -131.72 -191.03 -136.88 -185.88 -135.5 -184.5"/></clipPath><clipPath id="b"><polygon class="a" points="-164.58 7.5 -172.08 0 -179.58 7.5 -178.21 8.88 -173.06 3.73 -173.06 15 -171.11 15 -171.11 3.73 -165.96 8.88 -164.58 7.5"/></clipPath></defs><title>upload-1</title><path d="M8,0A5,5,0,0,0,3.09,4.09,4,4,0,0,0,4,12L8,8l4,4h1a3,3,0,0,0,3-3,3,3,0,0,0-3-3V5A5,5,0,0,0,8,0ZM8,10,5,13H7v2a1,1,0,0,0,2,0V13h2Z"/></svg>