<svg xmlns="http://www.w3.org/2000/svg" xmlns:xlink="http://www.w3.org/1999/xlink" width="16" height="16" viewBox="0 0 16 16"><defs><style>.a{fill:none;clip-rule:evenodd;}.b{clip-path:url(#a);}.c{clip-path:url(#b);}</style><clipPath id="a"><polygon class="a" points="8.5 -234.5 16 -242 8.5 -249.5 7.12 -248.12 12.28 -242.97 1 -242.97 1 -241.03 12.28 -241.03 7.12 -235.88 8.5 -234.5"/></clipPath><clipPath id="b"><polygon class="a" points="-20.58 -42.5 -28.08 -50 -35.58 -42.5 -34.21 -41.12 -29.06 -46.27 -29.06 -35 -27.11 -35 -27.11 -46.27 -21.96 -41.12 -20.58 -42.5"/></clipPath></defs><title>view-1</title><path d="M8.06,2C3,2,0,8,0,8s3,6,8.06,6S16,8,16,8,13,2,8.06,2ZM8,4A4,4,0,1,1,4,8,4,4,0,0,1,8,4ZM8,6a2,2,0,1,0,2,2,2.05,2.05,0,0,0-.09-.59A1,1,0,1,1,8.59,6.09,2,2,0,0,0,8,6Z"/></svg>