<svg xmlns="http://www.w3.org/2000/svg" xmlns:xlink="http://www.w3.org/1999/xlink" width="16" height="16" viewBox="0 0 16 16"><defs><style>.a{fill:none;clip-rule:evenodd;}.b{clip-path:url(#a);}.c{clip-path:url(#b);}</style><clipPath id="a"><polygon class="a" points="-63.5 -234.5 -56 -242 -63.5 -249.5 -64.88 -248.12 -59.73 -242.97 -71 -242.97 -71 -241.03 -59.73 -241.03 -64.88 -235.88 -63.5 -234.5"/></clipPath><clipPath id="b"><polygon class="a" points="-92.58 -42.5 -100.08 -50 -107.58 -42.5 -106.21 -41.12 -101.06 -46.27 -101.06 -35 -99.11 -35 -99.11 -46.27 -93.96 -41.12 -92.58 -42.5"/></clipPath></defs><title>view-list-1</title><path d="M0,1V3H2V1ZM4,1V3H16V1ZM0,5V7H2V5ZM4,5V7H16V5ZM0,9v2H2V9ZM4,9v2H16V9ZM0,13v2H2V13Zm4,0v2H16V13Z"/></svg>