<svg id="Layer_1" data-name="Layer 1" xmlns="http://www.w3.org/2000/svg" xmlns:xlink="http://www.w3.org/1999/xlink" viewBox="0 0 16 16"><defs><clipPath id="clip-path"><polygon points="-266.7 152.05 -274.2 159.55 -266.7 167.05 -265.33 165.68 -270.48 160.53 -259.2 160.53 -259.2 158.58 -270.48 158.58 -265.33 153.43 -266.7 152.05" style="fill:none;clip-rule:evenodd"/></clipPath><clipPath id="clip-path-2"><polygon points="239.06 61.47 247.54 52.99 249.43 54.88 238.82 65.48 236.94 63.6 233.8 60.45 235.92 58.33 239.06 61.47" style="fill:none;clip-rule:evenodd"/></clipPath><clipPath id="clip-path-3"><polygon points="5.56 34.97 14.04 26.49 15.93 28.38 5.32 38.98 3.44 37.1 0.3 33.95 2.42 31.83 5.56 34.97" style="clip-rule:evenodd"/></clipPath><clipPath id="clip-path-4"><path d="M15.37,4.89A8,8,0,1,0,16,8,8,8,0,0,0,15.37,4.89ZM8,13.5a1.09,1.09,0,1,1,1.09-1.09A1.09,1.09,0,0,1,8,13.5ZM9.09,9.86a.2.2,0,0,1-.2.2H7.11a.2.2,0,0,1-.2-.2V2.7a.2.2,0,0,1,.2-.2H8.89a.2.2,0,0,1,.2.2V9.86Z" style="clip-rule:evenodd"/></clipPath><clipPath id="clip-path-5"><rect x="-1732" y="-416" width="2448" height="1584"/></clipPath><clipPath id="clip-path-6"><circle cx="205.8" cy="198.55" r="12" style="fill:none"/></clipPath><clipPath id="clip-path-8"><circle cx="285.8" cy="189.55" r="16" style="fill:none"/></clipPath></defs><title>confirm-4 copy 5</title><polygon points="5.56 34.97 14.04 26.49 15.93 28.38 5.32 38.98 3.44 37.1 0.3 33.95 2.42 31.83 5.56 34.97" style="fill-rule:evenodd"/><g style="clip-path:url(#clip-path-3)"><rect x="-599.7" y="-607.95" width="2448" height="1584"/></g><path d="M15.37,4.89A8,8,0,1,0,16,8,8,8,0,0,0,15.37,4.89ZM8,13.5a1.09,1.09,0,1,1,1.09-1.09A1.09,1.09,0,0,1,8,13.5ZM9.09,9.86a.2.2,0,0,1-.2.2H7.11a.2.2,0,0,1-.2-.2V2.7a.2.2,0,0,1,.2-.2H8.89a.2.2,0,0,1,.2.2V9.86Z" style="fill-rule:evenodd"/><g style="clip-path:url(#clip-path-4)"><rect x="-1732" y="-416" width="2448" height="1584"/><g style="clip-path:url(#clip-path-5)"><rect x="-5" y="-5" width="26" height="26"/></g></g></svg>