<svg id="Layer_1" data-name="Layer 1" xmlns="http://www.w3.org/2000/svg" xmlns:xlink="http://www.w3.org/1999/xlink" viewBox="0 0 16 16"><defs><clipPath id="clip-path"><polygon points="-288.66 106.01 -296.16 113.51 -288.66 121.01 -287.28 119.63 -292.43 114.48 -281.16 114.48 -281.16 112.54 -292.43 112.54 -287.28 107.38 -288.66 106.01" style="fill:none;clip-rule:evenodd"/></clipPath><clipPath id="clip-path-2"><polygon points="217.1 15.43 225.59 6.94 227.48 8.83 216.87 19.43 214.98 17.55 211.84 14.41 213.96 12.29 217.1 15.43" style="fill:none;clip-rule:evenodd"/></clipPath><clipPath id="clip-path-3"><polygon points="-16.39 -11.07 -7.91 -19.56 -6.02 -17.67 -16.63 -7.07 -18.52 -8.95 -21.66 -12.09 -19.54 -14.21 -16.39 -11.07" style="clip-rule:evenodd"/></clipPath><clipPath id="clip-path-4"><rect x="-621.66" y="-653.99" width="2448" height="1584"/></clipPath><clipPath id="clip-path-5"><path d="M-6.58-41.16A8,8,0,0,0-8.3-43.7a8,8,0,0,0-2.54-1.71A8,8,0,0,0-14-46a8,8,0,0,0-3.11.63,8,8,0,0,0-2.54,1.71,8,8,0,0,0-1.71,2.54A8,8,0,0,0-22-38a8,8,0,0,0,.63,3.11,8,8,0,0,0,1.71,2.54,8,8,0,0,0,2.54,1.71A8,8,0,0,0-14-30a8,8,0,0,0,3.11-.63A8,8,0,0,0-8.3-32.39a8,8,0,0,0,1.71-2.54A8,8,0,0,0-6-38,8,8,0,0,0-6.58-41.16ZM-14-32.54A1.09,1.09,0,0,1-15-33.64,1.09,1.09,0,0,1-14-34.73a1.09,1.09,0,0,1,1.09,1.09A1.09,1.09,0,0,1-14-32.54Zm1.09-3.64a.2.2,0,0,1-.2.2h-1.78a.2.2,0,0,1-.2-.2v-7.17a.2.2,0,0,1,.2-.2h1.78a.2.2,0,0,1,.2.2v7.17Z" style="clip-rule:evenodd"/></clipPath><clipPath id="clip-path-6"><circle cx="183.84" cy="152.51" r="12" style="fill:none"/></clipPath><clipPath id="clip-path-8"><circle cx="263.84" cy="143.51" r="16" style="fill:none"/></clipPath></defs><title>confirm-4 copy 4</title><polygon points="-16.39 -11.07 -7.91 -19.56 -6.02 -17.67 -16.63 -7.07 -18.52 -8.95 -21.66 -12.09 -19.54 -14.21 -16.39 -11.07" style="fill-rule:evenodd"/><g style="clip-path:url(#clip-path-3)"><rect x="-621.66" y="-653.99" width="2448" height="1584"/><g style="clip-path:url(#clip-path-4)"><rect x="-26.34" y="-23.44" width="25" height="17.11" transform="translate(6.47 -14.15) rotate(-45)"/></g></g><rect x="6.48" y="-0.13" width="3" height="15" transform="translate(7.55 -3.48) rotate(45)"/><path d="M-6.58-41.16A8,8,0,0,0-8.3-43.7a8,8,0,0,0-2.54-1.71A8,8,0,0,0-14-46a8,8,0,0,0-3.11.63,8,8,0,0,0-2.54,1.71,8,8,0,0,0-1.71,2.54A8,8,0,0,0-22-38a8,8,0,0,0,.63,3.11,8,8,0,0,0,1.71,2.54,8,8,0,0,0,2.54,1.71A8,8,0,0,0-14-30a8,8,0,0,0,3.11-.63A8,8,0,0,0-8.3-32.39a8,8,0,0,0,1.71-2.54A8,8,0,0,0-6-38,8,8,0,0,0-6.58-41.16ZM-14-32.54A1.09,1.09,0,0,1-15-33.64,1.09,1.09,0,0,1-14-34.73a1.09,1.09,0,0,1,1.09,1.09A1.09,1.09,0,0,1-14-32.54Zm1.09-3.64a.2.2,0,0,1-.2.2h-1.78a.2.2,0,0,1-.2-.2v-7.17a.2.2,0,0,1,.2-.2h1.78a.2.2,0,0,1,.2.2v7.17Z" style="fill-rule:evenodd"/><g style="clip-path:url(#clip-path-5)"><rect x="-1753.95" y="-462.05" width="2448" height="1584"/></g></svg>