<svg xmlns="http://www.w3.org/2000/svg" xmlns:xlink="http://www.w3.org/1999/xlink" width="16" height="16" viewBox="0 0 16 16"><defs><style>.a,.d{fill:none;}.a{clip-rule:evenodd;}.b{clip-path:url(#a);}.c{clip-path:url(#b);}.d{stroke:#ffe000;stroke-miterlimit:10;}</style><clipPath id="a"><polygon class="a" points="-135.5 -234.5 -128 -242 -135.5 -249.5 -136.88 -248.12 -131.72 -242.97 -143 -242.97 -143 -241.03 -131.72 -241.03 -136.88 -235.88 -135.5 -234.5"/></clipPath><clipPath id="b"><polygon class="a" points="-164.58 -42.5 -172.08 -50 -179.58 -42.5 -178.21 -41.12 -173.06 -46.27 -173.06 -35 -171.11 -35 -171.11 -46.27 -165.96 -41.12 -164.58 -42.5"/></clipPath></defs><title>warning-1</title><path d="M8,0a8,8,0,1,0,8,8A8,8,0,0,0,8,0ZM9,12.75H7v-2H9Zm0-3H7V3.25H9Z"/><rect class="d" width="16" height="16"/></svg>