<?xml version="1.0" encoding="UTF-8"?>
<svg width="60px" height="60px" viewBox="0 0 60 60" version="1.1" xmlns="http://www.w3.org/2000/svg" xmlns:xlink="http://www.w3.org/1999/xlink">
    <!-- Generator: Sketch 50.2 (55047) - http://www.bohemiancoding.com/sketch -->
    <title>advanced</title>
    <desc>Created with Sketch.</desc>
    <defs></defs>
    <g id="advanced" stroke="none" stroke-width="1" fill="none" fill-rule="evenodd">
        <path d="M25.9343832,52.2062242 L25.9343832,56.4379453 C25.9023247,58.1726659 27.1241095,59.675853 28.8303337,60 L30.2765279,60 C31.9364454,59.6259843 33.1012373,58.1370454 33.0584927,56.4379453 L33.0584927,52.2062242 C31.9328834,52.6122985 30.7609674,52.8758905 29.4964379,52.8758905 C28.2319085,52.8758905 27.0599925,52.6122985 25.9343832,52.2062242 Z M29.4964379,35.0620547 C25.5603675,35.0620547 22.3723285,38.2500937 22.3723285,42.1861642 C22.3723285,46.1222347 25.5603675,49.3102737 29.4964379,49.3102737 C33.4325084,49.3102737 36.6205474,46.1222347 36.6205474,42.1861642 C36.6205474,38.2500937 33.4325084,35.0620547 29.4964379,35.0620547 Z M47.3067117,30.8303337 L47.3067117,56.4343832 C47.2746532,58.1691039 48.4964379,59.672291 50.2026622,59.9964379 L51.6488564,59.9964379 C53.3087739,59.6259843 54.4735658,58.1334833 54.4308211,56.4343832 L54.4308211,30.8303337 C53.3194601,31.2328459 52.1190476,31.5 50.8687664,31.5 C49.604237,31.5 48.432321,31.2364079 47.3067117,30.8303337 Z M4.56205474,30.8303337 L4.56205474,56.4343832 C4.52999625,58.1691039 5.75178103,59.672291 7.45800525,59.9964379 L8.90419948,59.9964379 C10.564117,59.6259843 11.7289089,58.1334833 11.6861642,56.4343832 L11.6861642,30.8303337 C10.5605549,31.2364079 9.38863892,31.5 8.12410949,31.5 C6.87382827,31.5 5.67341582,31.2364079 4.56205474,30.8303337 Z M50.8687664,13.6861642 C46.9326959,13.6861642 43.7446569,16.8742032 43.7446569,20.8102737 C43.7446569,24.7463442 46.9326959,27.9343832 50.8687664,27.9343832 C54.8048369,27.9343832 57.9928759,24.7463442 57.9928759,20.8102737 C57.9928759,16.8742032 54.8048369,13.6861642 50.8687664,13.6861642 Z M8.12410949,13.6861642 C4.188039,13.6861642 1,16.8742032 1,20.8102737 C1,24.7463442 4.188039,27.9343832 8.12410949,27.9343832 C12.06018,27.9343832 15.248219,24.7463442 15.248219,20.8102737 C15.248219,16.8742032 12.06018,13.6861642 8.12410949,13.6861642 Z M50.0886764,3 C48.4287589,3.37401575 47.263967,4.86295463 47.3067117,6.56205474 L47.3067117,10.7937758 C48.432321,10.3877015 49.604237,10.1241095 50.8687664,10.1241095 C52.1190476,10.1241095 53.3194601,10.3877015 54.4308211,10.7937758 L54.4308211,6.56205474 C54.5091864,4.95913011 53.508249,3.49868766 51.9801275,3 L50.0886764,3 Z M28.716348,3 C27.0564304,3.37401575 25.8916385,4.86295463 25.9343832,6.56205474 L25.9343832,32.1661042 C27.0599925,31.76003 28.2319085,31.4964379 29.4964379,31.4964379 C30.7609674,31.4964379 31.9328834,31.76003 33.0584927,32.1661042 L33.0584927,6.56205474 C33.1368579,4.95913011 32.1359205,3.49868766 30.607799,3 L28.716348,3 Z M7.3440195,3 C5.68410199,3.37401575 4.51931009,4.86295463 4.56205474,6.56205474 L4.56205474,10.7937758 C5.67341582,10.3912636 6.87382827,10.1241095 8.12410949,10.1241095 C9.38863892,10.1241095 10.5605549,10.3877015 11.6861642,10.7937758 L11.6861642,6.56205474 C11.7645294,4.95913011 10.7635921,3.49868766 9.23547057,3 L7.3440195,3 Z" id="Fill-1" fill="#000000"></path>
    </g>
</svg>