<?xml version="1.0" encoding="UTF-8"?>
<svg width="60px" height="60px" viewBox="0 0 60 60" version="1.1" xmlns="http://www.w3.org/2000/svg" xmlns:xlink="http://www.w3.org/1999/xlink">
    <!-- Generator: Sketch 50.2 (55047) - http://www.bohemiancoding.com/sketch -->
    <title>app-budgets</title>
    <desc>Created with Sketch.</desc>
    <defs></defs>
    <g id="app-budgets" stroke="none" stroke-width="1" fill="none" fill-rule="evenodd">
        <g id="48x48-Budgets">
            <rect id="Bounding" x="0" y="0" width="59.9997105" height="60"></rect>
            <g id="Page-1" transform="translate(0.000000, 1.250000)">
                <path d="M0.309373508,39.072625 L0.309373508,27.822625 L5.93309638,33.446375 L0.309373508,39.072625 Z M54.0672392,24.05725 L59.689712,18.4335 L59.689712,29.6835 L54.0672392,24.05725 Z M1.26111892,28.7305 L29.9909803,0.0005 L58.7608415,28.76925 L30.0297301,57.5005 L1.26111892,28.7305 Z" id="Combined-Shape" fill="#FFFFFF"></path>
                <g id="Group-18">
                    <path d="M31.2500992,36.30375 L31.2500992,38.75 L28.7501113,38.75 L28.7501113,36.22625 C26.6801213,35.83 25.077629,34.57625 24.260133,32.6275 L24.2163832,32.52125 L26.3601228,31.39125 L26.4176226,31.505 C27.2501185,33.155 28.5151124,33.9575 30.2838539,33.9575 C31.5688477,33.9575 33.1013403,33.65375 33.1013403,32.2075 C33.1013403,31.07375 32.3575939,30.50875 29.9163557,29.7875 C27.3988678,29.04625 24.7963804,28.27875 24.7963804,25.3325 C24.7963804,23.13625 26.3451229,21.57 28.7501113,21.2075 L28.7501113,18.75 L31.2500992,18.75 L31.2500992,21.2625 C33.5188383,21.6825 34.7375824,23.08125 35.3650794,24.29875 L35.4163291,24.39625 L33.4413387,25.76375 L33.372589,25.64875 C32.553843,24.27125 31.3975985,23.60125 29.8351061,23.60125 C28.9413604,23.60125 27.4451176,23.79875 27.4451176,25.1175 C27.4451176,26.3825 28.4513627,26.81375 30.7476017,27.4975 C33.3838389,28.27 35.7500775,29.19875 35.7500775,32.03125 C35.7500775,34.34 33.9788361,35.96625 31.2500992,36.30375 Z M29.9888553,12.5 L13.7501837,28.73875 L30.0113552,45 L46.2500269,28.76125 L29.9888553,12.5 Z" id="Fill-4" fill="#919293"></path>
                    <path d="M7.49783883,22.486625 L30.0002303,0.010375 L30.0002303,9.367875 L12.1928162,27.182875 L7.49783883,22.486625 Z M47.8063944,30.317375 L52.4938718,35.004875 L30.0002303,57.499875 L30.0002303,48.124875 L47.8063944,30.317375 Z M0.309123509,30.944875 L4.37160391,35.007375 L0.309123509,39.072375 L0.309123509,30.944875 Z M59.690587,26.532 L55.6418566,22.48325 L59.690587,18.43325 L59.690587,26.532 Z" id="Combined-Shape" fill="#616365"></path>
                    <path d="M59.690587,29.668 L59.690587,39.07175 L30.0007303,9.368 L30.0007303,0.00925 L59.690587,29.668 Z M0.309123509,18.433875 L30.0002303,48.125125 L30.0002303,57.500125 L0.309123509,27.808875 L0.309123509,18.433875 Z" id="Combined-Shape" fill="#75787A"></path>
                </g>
            </g>
        </g>
    </g>
</svg>