<?xml version="1.0" encoding="UTF-8"?>
<svg width="60px" height="60px" viewBox="0 0 60 60" version="1.1" xmlns="http://www.w3.org/2000/svg" xmlns:xlink="http://www.w3.org/1999/xlink">
    <!-- Generator: Sketch 50.2 (55047) - http://www.bohemiancoding.com/sketch -->
    <title>app-manage</title>
    <desc>Created with Sketch.</desc>
    <defs></defs>
    <g id="app-manage" stroke="none" stroke-width="1" fill="none" fill-rule="evenodd">
        <path d="M13.042,41.21645 C11.86075,39.35645 10.96825,37.3502 10.36075,35.2052 L-0.0005,35.2052 L-0.0005,25.1177 L10.252,25.1177 C10.537,24.0077 10.897,22.9427 11.3245,21.9227 C11.75575,20.9027 12.27325,19.9277 12.88075,18.9977 L5.85325,11.96645 L12.9895,4.8302 L20.12575,12.0227 C21.022,11.5202 21.94825,11.07395 22.91575,10.6802 C23.88325,10.28645 24.8845,9.9827 25.92325,9.76895 L25.92325,0.0002 L36.01075,0.0002 L36.01075,9.9827 C37.0495,10.2677 38.032,10.6352 38.962,11.08145 C39.892,11.5277 40.78825,12.04145 41.647,12.61145 L48.8395,5.4227 L55.97575,12.5552 L48.5695,19.9652 C48.997,20.78645 49.38325,21.61895 49.7245,22.45895 C50.062,23.29895 50.3395,24.18395 50.55325,25.1177 L59.9995,25.1177 L59.9995,35.2052 L50.44825,35.2052 C50.2345,36.1352 49.94575,37.0127 49.5895,37.83395 C49.2295,38.6552 48.82075,39.4652 48.35575,40.24895 L55.4395,47.2802 L48.2995,54.4202 L41.377,47.4977 C39.697,48.5702 37.90825,49.3727 36.01075,49.90895 L36.01075,60.0002 L25.92325,60.0002 L25.92325,50.17895 C23.917,49.71395 22.0945,49.01645 20.44825,48.08645 L13.52575,55.00895 L6.3895,47.8727 L13.042,41.21645 Z M23.45575,33.3527 C23.88325,34.33895 24.4645,35.1977 25.1995,35.92895 C25.93075,36.66395 26.7895,37.2452 27.77575,37.67645 C28.75825,38.10395 29.82325,38.3177 30.967,38.3177 C32.077,38.3177 33.13075,38.10395 34.132,37.67645 C35.137,37.2452 36.00325,36.66395 36.7345,35.92895 C37.4695,35.1977 38.05075,34.33895 38.482,33.3527 C38.9095,32.3702 39.12325,31.3052 39.12325,30.16145 C39.12325,29.05145 38.9095,27.9977 38.482,26.99645 C38.05075,25.99145 37.4695,25.1252 36.7345,24.3902 C36.00325,23.65895 35.137,23.0777 34.132,22.64645 C33.13075,22.21895 32.077,22.00145 30.967,22.00145 C29.82325,22.00145 28.75825,22.21895 27.77575,22.64645 C26.7895,23.0777 25.93075,23.65895 25.1995,24.3902 C24.4645,25.1252 23.88325,25.99145 23.45575,26.99645 C23.0245,27.9977 22.807,29.05145 22.807,30.16145 C22.807,31.3052 23.0245,32.3702 23.45575,33.3527 Z" id="Fill-1" fill="#131517"></path>
    </g>
</svg>