<?xml version="1.0" encoding="UTF-8"?>
<svg width="60px" height="60px" viewBox="0 0 60 60" version="1.1" xmlns="http://www.w3.org/2000/svg" xmlns:xlink="http://www.w3.org/1999/xlink">
    <!-- Generator: Sketch 50.2 (55047) - http://www.bohemiancoding.com/sketch -->
    <title>app-stories</title>
    <desc>Created with Sketch.</desc>
    <defs></defs>
    <g id="app-stories" stroke="none" stroke-width="1" fill="none" fill-rule="evenodd">
        <g id="48x48-Survey" transform="translate(1.000000, 7.000000)">
            <g id="Icon" transform="translate(0.250000, 0.493786)">
                <path d="M25,0.012824921 C25.1030417,0.00433119889 25.2072646,0 25.3125,0 C26.8498255,0 28.1710886,0.924307003 28.75,2.24706783 C29.3289114,0.924307003 30.6501745,0 32.1875,0 C32.2927354,0 32.3969583,0.00433119889 32.5,0.012824921 L32.5,0 L57.5,0 L57.5,44.9627175 L33.4375,44.9627175 C33.4375,46.3422854 32.3182119,47.4606462 30.9375,47.4606462 C30.8316686,47.4606462 30.7273732,47.4540756 30.625,47.4413205 L30.625,47.4606462 L26.875,47.4606462 L26.875,47.4413205 C26.7726268,47.4540756 26.6683314,47.4606462 26.5625,47.4606462 C25.1817881,47.4606462 24.0625,46.3422854 24.0625,44.9627175 L0,44.9627175 L0,0 L25,0 L25,0.012824921 Z" id="Combined-Shape" fill="#616365"></path>
                <path d="M27.5,7.49378625 L27.5,39.96686 L5,39.96686 L5,4.9958575 L25,4.9958575 C26.3807119,4.9958575 27.5,6.11421829 27.5,7.49378625 Z" id="Combined-Shape" fill="#FFFFFF"></path>
                <path d="M32.5,4.9958575 L52.5,4.9958575 L52.5,39.96686 L30,39.96686 L30,7.49378625 C30,6.11421829 31.1192881,4.9958575 32.5,4.9958575 Z" id="Combined-Shape" fill="#FFFFFF"></path>
                <path d="M5,34.9710025 L27.5,34.9710025 L27.5,39.96686 L5,39.96686 L5,34.9710025 Z M30,34.9710025 L52.5,34.9710025 L52.5,39.96686 L30,39.96686 L30,34.9710025 Z" id="Combined-Shape" fill="#919293"></path>
                <polygon id="Line-Copy-3" fill="#616365" points="35 18.7234884 39.375 13.1141259 43.125 14.3630903 47.5 8.74275062 47.5 18.7234884"></polygon>
                <path d="M9.6875,18.7344656 L9.6875,12.4896437 L12.8125,12.4896437 L12.8125,18.7344656 L9.6875,18.7344656 Z M14.6875,18.7344656 L14.6875,14.9875725 L17.8125,14.9875725 L17.8125,18.7344656 L14.6875,18.7344656 Z M19.6875,18.7344656 L19.6875,9.991715 L22.8125,9.991715 L22.8125,18.7344656 L19.6875,18.7344656 Z" id="Combined-Shape" fill="#616365"></path>
                <polygon id="Fill-10" fill="#919293" points="33.75 23.7303231 48.75 23.7303231 48.75 21.2323944 33.75 21.2323944"></polygon>
                <polygon id="Fill-11" fill="#919293" points="33.75 29.975145 48.75 29.975145 48.75 27.4772162 33.75 27.4772162"></polygon>
                <polygon id="Fill-10" fill="#919293" points="8.75 23.7303231 23.75 23.7303231 23.75 21.2323944 8.75 21.2323944"></polygon>
                <polygon id="Fill-11" fill="#919293" points="8.75 29.975145 23.75 29.975145 23.75 27.4772162 8.75 27.4772162"></polygon>
            </g>
        </g>
    </g>
</svg>