<?xml version="1.0" encoding="UTF-8"?>
<svg width="60px" height="60px" viewBox="0 0 60 60" version="1.1" xmlns="http://www.w3.org/2000/svg" xmlns:xlink="http://www.w3.org/1999/xlink">
    <!-- Generator: Sketch 50.2 (55047) - http://www.bohemiancoding.com/sketch -->
    <title>app-iniatives</title>
    <desc>Created with Sketch.</desc>
    <defs>
        <path d="M37.437,38.7175209 L17.437,38.7175209 L17.437,36.2195922 L19.15575,36.2195922 L19.15575,28.1013237 L17.53825,28.1013237 C18.13075,23.4139604 21.96825,19.7445031 26.73325,19.4047848 L26.73325,13.1137512 L32.437,13.1137512 L32.437,16.8606444 L28.14075,16.8606444 L28.14075,19.4035358 C32.91825,19.7307645 36.76825,23.4052177 37.36075,28.1013237 L35.71825,28.1013237 L35.71825,36.2195922 L37.437,36.2195922 L37.437,38.7175209 Z M27.437,8.74237593 C17.082,8.74237593 8.687,17.1304207 8.687,27.4768415 C8.687,37.8232624 17.082,46.2113072 27.437,46.2113072 C37.792,46.2113072 46.187,37.8232624 46.187,27.4768415 C46.187,17.1304207 37.792,8.74237593 27.437,8.74237593 Z M22.1245,36.2195922 L25.8745,36.2195922 L25.8745,27.9914149 L22.1245,27.9914149 L22.1245,36.2195922 Z M28.9995,36.2195922 L32.7495,36.2195922 L32.7495,27.9914149 L28.9995,27.9914149 L28.9995,36.2195922 Z" id="path-1"></path>
    </defs>
    <g id="app-iniatives" stroke="none" stroke-width="1" fill="none" fill-rule="evenodd">
        <g id="48x48-Initiative" transform="translate(2.000000, 2.000000)">
            <g id="Icon" transform="translate(0.500000, 0.914250)">
                <ellipse id="Oval-5" fill="#FFFFFF" cx="27.5" cy="27.4772162" rx="27.2916667" ry="27.2690555"></ellipse>
                <path d="M27.43625,-0.000124896437 C22.885,-0.000124896437 18.6025,1.12269408 14.82125,3.07982125 L17.94875,8.50657146 C20.80875,7.07276036 24.02375,6.24344801 27.43625,6.24344801 C30.84875,6.24344801 34.065,7.07276036 36.92625,8.50657146 L40.05375,3.07982125 C36.27125,1.12269408 31.99,-0.000124896437 27.43625,-0.000124896437 Z M39.09625,9.74679308 C44.5375,13.3313208 48.22,19.3425864 48.62375,26.228127 L54.8725,26.228127 C54.45875,17.0182637 49.5275,9.00116135 42.21625,4.33128355 L39.09625,9.74679308 Z M0,26.228127 L6.25,26.228127 C6.655,19.3425864 10.33625,13.3300719 15.7775,9.74679308 L12.6575,4.33128355 C5.3475,9.00116135 0.415,17.0182637 0,26.228127 Z M48.62375,28.7260557 C48.22,35.6128453 44.5375,41.6241108 39.0975,45.2073896 L42.21625,50.6228991 C49.5275,45.9542703 54.45875,37.935919 54.8725,28.7260557 L48.62375,28.7260557 Z M0,28.7260557 C0.415,37.935919 5.3475,45.9542703 12.65625,50.6228991 L15.7775,45.2086386 C10.33625,41.6241108 6.655,35.6128453 6.25,28.7260557 L0,28.7260557 Z M27.43625,48.7094857 C24.02375,48.7094857 20.80875,47.8814223 17.94875,46.4476112 L14.82125,51.8756104 C18.6025,53.8302396 22.885,54.9543076 27.43625,54.9543076 C31.99,54.9543076 36.27125,53.8302396 40.05375,51.8743614 L36.92625,46.4476112 C34.065,47.8814223 30.84875,48.7094857 27.43625,48.7094857 Z" id="Clip-2" fill="#616365"></path>
                <mask id="mask-2" fill="white">
                    <use xlink:href="#path-1"></use>
                </mask>
                <use id="Fill-4" fill="#919293" xlink:href="#path-1"></use>
            </g>
        </g>
    </g>
</svg>