<svg id="Layer_1" data-name="Layer 1" xmlns="http://www.w3.org/2000/svg" xmlns:xlink="http://www.w3.org/1999/xlink" viewBox="0 0 24 24"><defs><clipPath id="clip-path"><polygon points="-239 104.5 -246.5 112 -239 119.5 -237.62 118.12 -242.78 112.97 -231.5 112.97 -231.5 111.03 -242.78 111.03 -237.62 105.88 -239 104.5" style="fill:none;clip-rule:evenodd"/></clipPath><clipPath id="clip-path-2"><polygon points="266.76 13.92 275.25 5.44 277.13 7.32 266.53 17.93 264.64 16.04 261.5 12.9 263.62 10.78 266.76 13.92" style="fill:none;clip-rule:evenodd"/></clipPath><clipPath id="clip-path-3"><polygon points="33.26 -12.58 41.75 -21.06 43.63 -19.18 33.03 -8.57 31.14 -10.46 28 -13.6 30.12 -15.72 33.26 -12.58" style="clip-rule:evenodd"/></clipPath><clipPath id="clip-path-4"><path d="M43.08-42.67a8,8,0,0,0-1.71-2.54,8,8,0,0,0-2.54-1.71,8,8,0,0,0-3.11-.63,8,8,0,0,0-3.11.63A8,8,0,0,0,30-45.21a8,8,0,0,0-1.71,2.54,8,8,0,0,0-.63,3.11,8,8,0,0,0,.63,3.11A8,8,0,0,0,30-33.9a8,8,0,0,0,2.54,1.71,8,8,0,0,0,3.11.63,8,8,0,0,0,3.11-.63,8,8,0,0,0,2.54-1.71,8,8,0,0,0,1.71-2.54,8,8,0,0,0,.63-3.11A8,8,0,0,0,43.08-42.67ZM35.7-34.05a1.09,1.09,0,0,1-1.09-1.09,1.09,1.09,0,0,1,1.09-1.09,1.09,1.09,0,0,1,1.09,1.09A1.09,1.09,0,0,1,35.7-34.05Zm1.09-3.64a.2.2,0,0,1-.2.2H34.81a.2.2,0,0,1-.2-.2v-7.17a.2.2,0,0,1,.2-.2H36.6a.2.2,0,0,1,.2.2v7.17Z" style="clip-rule:evenodd"/></clipPath><clipPath id="clip-path-5"><circle cx="233.5" cy="151" r="12" style="fill:none"/></clipPath><clipPath id="clip-path-7"><circle cx="313.5" cy="142" r="16" style="fill:none"/></clipPath></defs><title>Artboard 142</title><rect x="1" y="1" width="22" height="22" rx="2" ry="2" style="fill:#fff"/><path d="M21,2a1,1,0,0,1,1,1V21a1,1,0,0,1-1,1H3a1,1,0,0,1-1-1V3A1,1,0,0,1,3,2H21m0-2H3A3,3,0,0,0,0,3V21a3,3,0,0,0,3,3H21a3,3,0,0,0,3-3V3a3,3,0,0,0-3-3Z"/><path d="M18.91,6.19l-.72.69-7.28,7.28L7.63,10.88l-.72-.69L5.5,11.59l.69.72,4,4,.72.69.72-.69,8-8,.69-.72L18.91,6.19Z"/><polygon points="33.26 -12.58 41.75 -21.06 43.63 -19.18 33.03 -8.57 31.14 -10.46 28 -13.6 30.12 -15.72 33.26 -12.58" style="fill-rule:evenodd"/><g style="clip-path:url(#clip-path-3)"><rect x="-572" y="-655.5" width="2448" height="1584"/></g><path d="M43.08-42.67a8,8,0,0,0-1.71-2.54,8,8,0,0,0-2.54-1.71,8,8,0,0,0-3.11-.63,8,8,0,0,0-3.11.63A8,8,0,0,0,30-45.21a8,8,0,0,0-1.71,2.54,8,8,0,0,0-.63,3.11,8,8,0,0,0,.63,3.11A8,8,0,0,0,30-33.9a8,8,0,0,0,2.54,1.71,8,8,0,0,0,3.11.63,8,8,0,0,0,3.11-.63,8,8,0,0,0,2.54-1.71,8,8,0,0,0,1.71-2.54,8,8,0,0,0,.63-3.11A8,8,0,0,0,43.08-42.67ZM35.7-34.05a1.09,1.09,0,0,1-1.09-1.09,1.09,1.09,0,0,1,1.09-1.09,1.09,1.09,0,0,1,1.09,1.09A1.09,1.09,0,0,1,35.7-34.05Zm1.09-3.64a.2.2,0,0,1-.2.2H34.81a.2.2,0,0,1-.2-.2v-7.17a.2.2,0,0,1,.2-.2H36.6a.2.2,0,0,1,.2.2v7.17Z" style="fill-rule:evenodd"/><g style="clip-path:url(#clip-path-4)"><rect x="-1704.3" y="-463.55" width="2448" height="1584"/></g></svg>