<?xml version="1.0" encoding="UTF-8"?>
<svg width="60px" height="60px" viewBox="0 0 60 60" version="1.1" xmlns="http://www.w3.org/2000/svg" xmlns:xlink="http://www.w3.org/1999/xlink">
    <!-- Generator: Sketch 50.2 (55047) - http://www.bohemiancoding.com/sketch -->
    <title>calendar-1</title>
    <desc>Created with Sketch.</desc>
    <defs></defs>
    <g id="calendar-1" stroke="none" stroke-width="1" fill="none" fill-rule="evenodd">
        <path d="M2,11.2530467 L58,11.2530467 L58,3.55271368e-15 L2,3.55271368e-15 L2,11.2530467 Z M2,60 L58,60 L58,15.0028123 L2,15.0028123 L2,60 Z M43.0666667,30.0018749 L50.5333333,30.0018749 L50.5333333,22.5023436 L43.0666667,22.5023436 L43.0666667,30.0018749 Z M31.8666667,30.0018749 L39.3333333,30.0018749 L39.3333333,22.5023436 L31.8666667,22.5023436 L31.8666667,30.0018749 Z M20.6666667,30.0018749 L28.1333333,30.0018749 L28.1333333,22.5023436 L20.6666667,22.5023436 L20.6666667,30.0018749 Z M43.0666667,41.2511718 L50.5333333,41.2511718 L50.5333333,33.7516405 L43.0666667,33.7516405 L43.0666667,41.2511718 Z M31.8666667,41.2511718 L39.3333333,41.2511718 L39.3333333,33.7516405 L31.8666667,33.7516405 L31.8666667,41.2511718 Z M20.6666667,41.2511718 L28.1333333,41.2511718 L28.1333333,33.7516405 L20.6666667,33.7516405 L20.6666667,41.2511718 Z M9.46666667,41.2511718 L16.9333333,41.2511718 L16.9333333,33.7516405 L9.46666667,33.7516405 L9.46666667,41.2511718 Z M31.8666667,52.5004687 L39.3333333,52.5004687 L39.3333333,45.0009374 L31.8666667,45.0009374 L31.8666667,52.5004687 Z M20.6666667,52.5004687 L28.1333333,52.5004687 L28.1333333,45.0009374 L20.6666667,45.0009374 L20.6666667,52.5004687 Z M9.46666667,52.5004687 L16.9333333,52.5004687 L16.9333333,45.0009374 L9.46666667,45.0009374 L9.46666667,52.5004687 Z" id="Fill-1" fill="#000000"></path>
    </g>
</svg>