<svg id="Layer_1" data-name="Layer 1" xmlns="http://www.w3.org/2000/svg" xmlns:xlink="http://www.w3.org/1999/xlink" viewBox="0 0 24 24"><defs><clipPath id="clip-path"><polygon points="-308.68 104.5 -316.18 112 -308.68 119.5 -307.31 118.12 -312.46 112.97 -301.18 112.97 -301.18 111.03 -312.46 111.03 -307.31 105.88 -308.68 104.5" style="fill:none;clip-rule:evenodd"/></clipPath><clipPath id="clip-path-2"><polygon points="197.08 13.92 205.57 5.44 207.45 7.32 196.85 17.93 194.96 16.04 191.82 12.9 193.94 10.78 197.08 13.92" style="fill:none;clip-rule:evenodd"/></clipPath><clipPath id="clip-path-3"><polygon points="-36.42 -12.58 -27.93 -21.06 -26.05 -19.18 -36.65 -8.57 -38.54 -10.46 -41.68 -13.6 -39.56 -15.72 -36.42 -12.58" style="clip-rule:evenodd"/></clipPath><clipPath id="clip-path-4"><path d="M-26.61-42.67a8,8,0,0,0-1.71-2.54,8,8,0,0,0-2.54-1.71A8,8,0,0,0-34-47.55a8,8,0,0,0-3.11.63,8,8,0,0,0-2.54,1.71,8,8,0,0,0-1.71,2.54A8,8,0,0,0-42-39.55a8,8,0,0,0,.63,3.11,8,8,0,0,0,1.71,2.54,8,8,0,0,0,2.54,1.71,8,8,0,0,0,3.11.63,8,8,0,0,0,3.11-.63,8,8,0,0,0,2.54-1.71,8,8,0,0,0,1.71-2.54A8,8,0,0,0-26-39.55,8,8,0,0,0-26.61-42.67ZM-34-34.05a1.09,1.09,0,0,1-1.09-1.09A1.09,1.09,0,0,1-34-36.23a1.09,1.09,0,0,1,1.09,1.09A1.09,1.09,0,0,1-34-34.05Zm1.09-3.64a.2.2,0,0,1-.2.2h-1.78a.2.2,0,0,1-.2-.2v-7.17a.2.2,0,0,1,.2-.2h1.78a.2.2,0,0,1,.2.2v7.17Z" style="clip-rule:evenodd"/></clipPath><clipPath id="clip-path-5"><circle cx="163.82" cy="151" r="12" style="fill:none"/></clipPath><clipPath id="clip-path-7"><circle cx="243.82" cy="142" r="16" style="fill:none"/></clipPath></defs><title>Checkbox</title><rect width="24" height="24" rx="3" ry="3" style="fill:#1f76d8"/><path d="M21,2a1,1,0,0,1,1,1V21a1,1,0,0,1-1,1H3a1,1,0,0,1-1-1V3A1,1,0,0,1,3,2H21m0-2H3A3,3,0,0,0,0,3V21a3,3,0,0,0,3,3H21a3,3,0,0,0,3-3V3a3,3,0,0,0-3-3Z" style="fill:#034188"/><polygon points="-36.42 -12.58 -27.93 -21.06 -26.05 -19.18 -36.65 -8.57 -38.54 -10.46 -41.68 -13.6 -39.56 -15.72 -36.42 -12.58" style="fill-rule:evenodd"/><g style="clip-path:url(#clip-path-3)"><rect x="-641.68" y="-655.5" width="2448" height="1584"/></g><polygon points="17.66 5.64 9.17 14.12 6.34 11.29 4.22 13.41 7.05 16.24 9.17 18.36 11.29 16.24 19.78 7.76 17.66 5.64" style="fill:#fff"/><path d="M-26.61-42.67a8,8,0,0,0-1.71-2.54,8,8,0,0,0-2.54-1.71A8,8,0,0,0-34-47.55a8,8,0,0,0-3.11.63,8,8,0,0,0-2.54,1.71,8,8,0,0,0-1.71,2.54A8,8,0,0,0-42-39.55a8,8,0,0,0,.63,3.11,8,8,0,0,0,1.71,2.54,8,8,0,0,0,2.54,1.71,8,8,0,0,0,3.11.63,8,8,0,0,0,3.11-.63,8,8,0,0,0,2.54-1.71,8,8,0,0,0,1.71-2.54A8,8,0,0,0-26-39.55,8,8,0,0,0-26.61-42.67ZM-34-34.05a1.09,1.09,0,0,1-1.09-1.09A1.09,1.09,0,0,1-34-36.23a1.09,1.09,0,0,1,1.09,1.09A1.09,1.09,0,0,1-34-34.05Zm1.09-3.64a.2.2,0,0,1-.2.2h-1.78a.2.2,0,0,1-.2-.2v-7.17a.2.2,0,0,1,.2-.2h1.78a.2.2,0,0,1,.2.2v7.17Z" style="fill-rule:evenodd"/><g style="clip-path:url(#clip-path-4)"><rect x="-1773.98" y="-463.55" width="2448" height="1584"/></g></svg>