<svg id="Layer_1" data-name="Layer 1" xmlns="http://www.w3.org/2000/svg" xmlns:xlink="http://www.w3.org/1999/xlink" viewBox="0 0 24 24"><defs><clipPath id="clip-path"><polygon points="-267.46 -27.14 -274.96 -19.64 -267.46 -12.14 -266.08 -13.52 -271.24 -18.67 -259.96 -18.67 -259.96 -20.62 -271.24 -20.62 -266.08 -25.77 -267.46 -27.14" style="fill:none;clip-rule:evenodd"/></clipPath><clipPath id="clip-path-2"><polygon points="238.3 -117.72 246.79 -126.21 248.68 -124.32 238.07 -113.72 236.18 -115.6 233.04 -118.75 235.16 -120.87 238.3 -117.72" style="fill:none;clip-rule:evenodd"/></clipPath><clipPath id="clip-path-3"><polygon points="4.8 -144.22 13.29 -152.71 15.18 -150.82 4.57 -140.22 2.68 -142.1 -0.46 -145.25 1.66 -147.37 4.8 -144.22" style="clip-rule:evenodd"/></clipPath><clipPath id="clip-path-4"><path d="M14.62-174.31a8,8,0,0,0-1.71-2.54,8,8,0,0,0-2.54-1.71,8,8,0,0,0-3.11-.63,8,8,0,0,0-3.11.63,8,8,0,0,0-2.54,1.71,8,8,0,0,0-1.71,2.54,8,8,0,0,0-.63,3.11,8,8,0,0,0,.63,3.11,8,8,0,0,0,1.71,2.54,8,8,0,0,0,2.54,1.71,8,8,0,0,0,3.11.63,8,8,0,0,0,3.11-.63,8,8,0,0,0,2.54-1.71,8,8,0,0,0,1.71-2.54,8,8,0,0,0,.63-3.11A8,8,0,0,0,14.62-174.31ZM7.24-165.7a1.09,1.09,0,0,1-1.09-1.09,1.09,1.09,0,0,1,1.09-1.09,1.09,1.09,0,0,1,1.09,1.09A1.09,1.09,0,0,1,7.24-165.7Zm1.09-3.64a.2.2,0,0,1-.2.2H6.35a.2.2,0,0,1-.2-.2v-7.17a.2.2,0,0,1,.2-.2H8.14a.2.2,0,0,1,.2.2v7.17Z" style="clip-rule:evenodd"/></clipPath><clipPath id="clip-path-5"><circle cx="205.04" cy="19.36" r="12" style="fill:none"/></clipPath><clipPath id="clip-path-7"><circle cx="285.04" cy="10.36" r="16" style="fill:none"/></clipPath></defs><title>Checkbox - Indeterminate Checkmark</title><polygon points="4.8 -144.22 13.29 -152.71 15.18 -150.82 4.57 -140.22 2.68 -142.1 -0.46 -145.25 1.66 -147.37 4.8 -144.22" style="fill-rule:evenodd"/><g style="clip-path:url(#clip-path-3)"><rect x="-600.46" y="-787.14" width="2448" height="1584"/></g><rect x="10.5" y="4" width="3" height="16" transform="translate(12 -4.97) rotate(45)"/><path d="M14.62-174.31a8,8,0,0,0-1.71-2.54,8,8,0,0,0-2.54-1.71,8,8,0,0,0-3.11-.63,8,8,0,0,0-3.11.63,8,8,0,0,0-2.54,1.71,8,8,0,0,0-1.71,2.54,8,8,0,0,0-.63,3.11,8,8,0,0,0,.63,3.11,8,8,0,0,0,1.71,2.54,8,8,0,0,0,2.54,1.71,8,8,0,0,0,3.11.63,8,8,0,0,0,3.11-.63,8,8,0,0,0,2.54-1.71,8,8,0,0,0,1.71-2.54,8,8,0,0,0,.63-3.11A8,8,0,0,0,14.62-174.31ZM7.24-165.7a1.09,1.09,0,0,1-1.09-1.09,1.09,1.09,0,0,1,1.09-1.09,1.09,1.09,0,0,1,1.09,1.09A1.09,1.09,0,0,1,7.24-165.7Zm1.09-3.64a.2.2,0,0,1-.2.2H6.35a.2.2,0,0,1-.2-.2v-7.17a.2.2,0,0,1,.2-.2H8.14a.2.2,0,0,1,.2.2v7.17Z" style="fill-rule:evenodd"/><g style="clip-path:url(#clip-path-4)"><rect x="-1732.76" y="-595.2" width="2448" height="1584"/></g></svg>