<svg id="Layer_1" data-name="Layer 1" xmlns="http://www.w3.org/2000/svg" xmlns:xlink="http://www.w3.org/1999/xlink" viewBox="0 0 24 24"><defs><clipPath id="clip-path"><polygon points="-308.68 43.17 -316.18 50.67 -308.68 58.17 -307.31 56.8 -312.46 51.65 -301.18 51.65 -301.18 49.7 -312.46 49.7 -307.31 44.55 -308.68 43.17" style="fill:none;clip-rule:evenodd"/></clipPath><clipPath id="clip-path-2"><polygon points="197.08 -47.41 205.57 -55.89 207.45 -54.01 196.85 -43.4 194.96 -45.29 191.82 -48.43 193.94 -50.55 197.08 -47.41" style="fill:none;clip-rule:evenodd"/></clipPath><clipPath id="clip-path-3"><polygon points="-36.42 -73.91 -27.93 -82.39 -26.05 -80.51 -36.65 -69.9 -38.54 -71.79 -41.68 -74.93 -39.56 -77.05 -36.42 -73.91" style="clip-rule:evenodd"/></clipPath><clipPath id="clip-path-4"><path d="M-26.61-104a8,8,0,0,0-1.71-2.54,8,8,0,0,0-2.54-1.71,8,8,0,0,0-3.11-.63,8,8,0,0,0-3.11.63,8,8,0,0,0-2.54,1.71A8,8,0,0,0-41.35-104a8,8,0,0,0-.63,3.11,8,8,0,0,0,.63,3.11,8,8,0,0,0,1.71,2.54,8,8,0,0,0,2.54,1.71,8,8,0,0,0,3.11.63,8,8,0,0,0,3.11-.63,8,8,0,0,0,2.54-1.71,8,8,0,0,0,1.71-2.54,8,8,0,0,0,.63-3.11A8,8,0,0,0-26.61-104ZM-34-95.38a1.09,1.09,0,0,1-1.09-1.09A1.09,1.09,0,0,1-34-97.56a1.09,1.09,0,0,1,1.09,1.09A1.09,1.09,0,0,1-34-95.38ZM-32.89-99a.2.2,0,0,1-.2.2h-1.78a.2.2,0,0,1-.2-.2v-7.17a.2.2,0,0,1,.2-.2h1.78a.2.2,0,0,1,.2.2V-99Z" style="clip-rule:evenodd"/></clipPath><clipPath id="clip-path-5"><circle cx="163.82" cy="89.67" r="12" style="fill:none"/></clipPath><clipPath id="clip-path-7"><circle cx="243.82" cy="80.67" r="16" style="fill:none"/></clipPath></defs><title>Checkbox - Outline</title><polygon points="-36.42 -73.91 -27.93 -82.39 -26.05 -80.51 -36.65 -69.9 -38.54 -71.79 -41.68 -74.93 -39.56 -77.05 -36.42 -73.91" style="fill-rule:evenodd"/><g style="clip-path:url(#clip-path-3)"><rect x="-641.68" y="-716.83" width="2448" height="1584"/></g><path d="M21,2a1,1,0,0,1,1,1V21a1,1,0,0,1-1,1H3a1,1,0,0,1-1-1V3A1,1,0,0,1,3,2H21m0-2H3A3,3,0,0,0,0,3V21a3,3,0,0,0,3,3H21a3,3,0,0,0,3-3V3a3,3,0,0,0-3-3Z" style="fill:#034188"/><path d="M-26.61-104a8,8,0,0,0-1.71-2.54,8,8,0,0,0-2.54-1.71,8,8,0,0,0-3.11-.63,8,8,0,0,0-3.11.63,8,8,0,0,0-2.54,1.71A8,8,0,0,0-41.35-104a8,8,0,0,0-.63,3.11,8,8,0,0,0,.63,3.11,8,8,0,0,0,1.71,2.54,8,8,0,0,0,2.54,1.71,8,8,0,0,0,3.11.63,8,8,0,0,0,3.11-.63,8,8,0,0,0,2.54-1.71,8,8,0,0,0,1.71-2.54,8,8,0,0,0,.63-3.11A8,8,0,0,0-26.61-104ZM-34-95.38a1.09,1.09,0,0,1-1.09-1.09A1.09,1.09,0,0,1-34-97.56a1.09,1.09,0,0,1,1.09,1.09A1.09,1.09,0,0,1-34-95.38ZM-32.89-99a.2.2,0,0,1-.2.2h-1.78a.2.2,0,0,1-.2-.2v-7.17a.2.2,0,0,1,.2-.2h1.78a.2.2,0,0,1,.2.2V-99Z" style="fill-rule:evenodd"/><g style="clip-path:url(#clip-path-4)"><rect x="-1773.98" y="-524.88" width="2448" height="1584"/></g></svg>