<svg id="Layer_1" data-name="Layer 1" xmlns="http://www.w3.org/2000/svg" xmlns:xlink="http://www.w3.org/1999/xlink" viewBox="0 0 24 24"><defs><clipPath id="clip-path"><polygon points="-267.46 43.17 -274.96 50.67 -267.46 58.17 -266.08 56.8 -271.24 51.65 -259.96 51.65 -259.96 49.7 -271.24 49.7 -266.08 44.55 -267.46 43.17" style="fill:none;clip-rule:evenodd"/></clipPath><clipPath id="clip-path-2"><polygon points="238.3 -47.41 246.79 -55.89 248.68 -54.01 238.07 -43.4 236.18 -45.29 233.04 -48.43 235.16 -50.55 238.3 -47.41" style="fill:none;clip-rule:evenodd"/></clipPath><clipPath id="clip-path-3"><polygon points="4.8 -73.91 13.29 -82.39 15.18 -80.51 4.57 -69.9 2.68 -71.79 -0.46 -74.93 1.66 -77.05 4.8 -73.91" style="clip-rule:evenodd"/></clipPath><clipPath id="clip-path-4"><path d="M14.62-104a8,8,0,0,0-1.71-2.54,8,8,0,0,0-2.54-1.71,8,8,0,0,0-3.11-.63,8,8,0,0,0-3.11.63,8,8,0,0,0-2.54,1.71A8,8,0,0,0-.13-104a8,8,0,0,0-.63,3.11,8,8,0,0,0,.63,3.11,8,8,0,0,0,1.71,2.54,8,8,0,0,0,2.54,1.71,8,8,0,0,0,3.11.63,8,8,0,0,0,3.11-.63,8,8,0,0,0,2.54-1.71,8,8,0,0,0,1.71-2.54,8,8,0,0,0,.63-3.11A8,8,0,0,0,14.62-104ZM7.24-95.38a1.09,1.09,0,0,1-1.09-1.09,1.09,1.09,0,0,1,1.09-1.09,1.09,1.09,0,0,1,1.09,1.09A1.09,1.09,0,0,1,7.24-95.38ZM8.33-99a.2.2,0,0,1-.2.2H6.35a.2.2,0,0,1-.2-.2v-7.17a.2.2,0,0,1,.2-.2H8.14a.2.2,0,0,1,.2.2V-99Z" style="clip-rule:evenodd"/></clipPath><clipPath id="clip-path-5"><circle cx="205.04" cy="89.67" r="12" style="fill:none"/></clipPath><clipPath id="clip-path-7"><circle cx="285.04" cy="80.67" r="16" style="fill:none"/></clipPath></defs><title>Checkbox - Outline copy</title><polygon points="4.8 -73.91 13.29 -82.39 15.18 -80.51 4.57 -69.9 2.68 -71.79 -0.46 -74.93 1.66 -77.05 4.8 -73.91" style="fill-rule:evenodd"/><g style="clip-path:url(#clip-path-3)"><rect x="-600.46" y="-716.83" width="2448" height="1584"/></g><path d="M21,2a1,1,0,0,1,1,1V21a1,1,0,0,1-1,1H3a1,1,0,0,1-1-1V3A1,1,0,0,1,3,2H21m0-2H3A3,3,0,0,0,0,3V21a3,3,0,0,0,3,3H21a3,3,0,0,0,3-3V3a3,3,0,0,0-3-3Z" style="fill:#b3b3b3"/><rect x="10.5" y="4" width="3" height="16" transform="translate(12 -4.97) rotate(45)" style="fill:#1f76d8"/><path d="M14.62-104a8,8,0,0,0-1.71-2.54,8,8,0,0,0-2.54-1.71,8,8,0,0,0-3.11-.63,8,8,0,0,0-3.11.63,8,8,0,0,0-2.54,1.71A8,8,0,0,0-.13-104a8,8,0,0,0-.63,3.11,8,8,0,0,0,.63,3.11,8,8,0,0,0,1.71,2.54,8,8,0,0,0,2.54,1.71,8,8,0,0,0,3.11.63,8,8,0,0,0,3.11-.63,8,8,0,0,0,2.54-1.71,8,8,0,0,0,1.71-2.54,8,8,0,0,0,.63-3.11A8,8,0,0,0,14.62-104ZM7.24-95.38a1.09,1.09,0,0,1-1.09-1.09,1.09,1.09,0,0,1,1.09-1.09,1.09,1.09,0,0,1,1.09,1.09A1.09,1.09,0,0,1,7.24-95.38ZM8.33-99a.2.2,0,0,1-.2.2H6.35a.2.2,0,0,1-.2-.2v-7.17a.2.2,0,0,1,.2-.2H8.14a.2.2,0,0,1,.2.2V-99Z" style="fill-rule:evenodd"/><g style="clip-path:url(#clip-path-4)"><rect x="-1732.76" y="-524.88" width="2448" height="1584"/></g></svg>