<svg id="Layer_1" data-name="Layer 1" xmlns="http://www.w3.org/2000/svg" xmlns:xlink="http://www.w3.org/1999/xlink" viewBox="0 0 24 24"><defs><clipPath id="clip-path"><polygon points="-308.68 71.92 -316.18 79.42 -308.68 86.92 -307.31 85.54 -312.46 80.39 -301.18 80.39 -301.18 78.44 -312.46 78.44 -307.31 73.29 -308.68 71.92" style="fill:none;clip-rule:evenodd"/></clipPath><clipPath id="clip-path-2"><polygon points="197.08 -18.66 205.57 -27.15 207.45 -25.26 196.85 -14.66 194.96 -16.54 191.82 -19.69 193.94 -21.81 197.08 -18.66" style="fill:none;clip-rule:evenodd"/></clipPath><clipPath id="clip-path-3"><polygon points="-36.42 -45.16 -27.93 -53.65 -26.05 -51.76 -36.65 -41.16 -38.54 -43.04 -41.68 -46.19 -39.56 -48.31 -36.42 -45.16" style="clip-rule:evenodd"/></clipPath><clipPath id="clip-path-4"><path d="M-26.61-75.25a8,8,0,0,0-1.71-2.54,8,8,0,0,0-2.54-1.71A8,8,0,0,0-34-80.14a8,8,0,0,0-3.11.63,8,8,0,0,0-2.54,1.71,8,8,0,0,0-1.71,2.54A8,8,0,0,0-42-72.14,8,8,0,0,0-41.35-69a8,8,0,0,0,1.71,2.54,8,8,0,0,0,2.54,1.71,8,8,0,0,0,3.11.63,8,8,0,0,0,3.11-.63,8,8,0,0,0,2.54-1.71A8,8,0,0,0-26.61-69,8,8,0,0,0-26-72.14,8,8,0,0,0-26.61-75.25ZM-34-66.64a1.09,1.09,0,0,1-1.09-1.09A1.09,1.09,0,0,1-34-68.82a1.09,1.09,0,0,1,1.09,1.09A1.09,1.09,0,0,1-34-66.64Zm1.09-3.64a.2.2,0,0,1-.2.2h-1.78a.2.2,0,0,1-.2-.2v-7.17a.2.2,0,0,1,.2-.2h1.78a.2.2,0,0,1,.2.2v7.17Z" style="clip-rule:evenodd"/></clipPath><clipPath id="clip-path-5"><circle cx="163.82" cy="118.41" r="12" style="fill:none"/></clipPath><clipPath id="clip-path-7"><circle cx="243.82" cy="109.41" r="16" style="fill:none"/></clipPath></defs><title>Checkbox - Background</title><polygon points="-36.42 -45.16 -27.93 -53.65 -26.05 -51.76 -36.65 -41.16 -38.54 -43.04 -41.68 -46.19 -39.56 -48.31 -36.42 -45.16" style="fill-rule:evenodd"/><g style="clip-path:url(#clip-path-3)"><rect x="-641.68" y="-688.09" width="2448" height="1584"/></g><rect width="24" height="24" rx="3" ry="3" style="fill:#1f76d8"/><path d="M-26.61-75.25a8,8,0,0,0-1.71-2.54,8,8,0,0,0-2.54-1.71A8,8,0,0,0-34-80.14a8,8,0,0,0-3.11.63,8,8,0,0,0-2.54,1.71,8,8,0,0,0-1.71,2.54A8,8,0,0,0-42-72.14,8,8,0,0,0-41.35-69a8,8,0,0,0,1.71,2.54,8,8,0,0,0,2.54,1.71,8,8,0,0,0,3.11.63,8,8,0,0,0,3.11-.63,8,8,0,0,0,2.54-1.71A8,8,0,0,0-26.61-69,8,8,0,0,0-26-72.14,8,8,0,0,0-26.61-75.25ZM-34-66.64a1.09,1.09,0,0,1-1.09-1.09A1.09,1.09,0,0,1-34-68.82a1.09,1.09,0,0,1,1.09,1.09A1.09,1.09,0,0,1-34-66.64Zm1.09-3.64a.2.2,0,0,1-.2.2h-1.78a.2.2,0,0,1-.2-.2v-7.17a.2.2,0,0,1,.2-.2h1.78a.2.2,0,0,1,.2.2v7.17Z" style="fill-rule:evenodd"/><g style="clip-path:url(#clip-path-4)"><rect x="-1773.98" y="-496.14" width="2448" height="1584"/></g></svg>