<svg id="Layer_1" data-name="Layer 1" xmlns="http://www.w3.org/2000/svg" xmlns:xlink="http://www.w3.org/1999/xlink" viewBox="0 0 24 24"><defs><clipPath id="clip-path"><polygon points="-267.46 8.65 -274.96 16.16 -267.46 23.65 -266.08 22.28 -271.24 17.13 -259.96 17.13 -259.96 15.18 -271.24 15.18 -266.08 10.03 -267.46 8.65" style="fill:none;clip-rule:evenodd"/></clipPath><clipPath id="clip-path-2"><polygon points="238.3 -81.92 246.79 -90.41 248.68 -88.53 238.07 -77.92 236.18 -79.8 233.04 -82.95 235.16 -85.07 238.3 -81.92" style="fill:none;clip-rule:evenodd"/></clipPath><clipPath id="clip-path-3"><polygon points="4.8 -108.42 13.29 -116.91 15.18 -115.03 4.57 -104.42 2.68 -106.3 -0.46 -109.45 1.66 -111.57 4.8 -108.42" style="clip-rule:evenodd"/></clipPath><clipPath id="clip-path-4"><path d="M14.62-138.51a8,8,0,0,0-1.71-2.54,8,8,0,0,0-2.54-1.71,8,8,0,0,0-3.11-.63,8,8,0,0,0-3.11.63,8,8,0,0,0-2.54,1.71,8,8,0,0,0-1.71,2.54,8,8,0,0,0-.63,3.11,8,8,0,0,0,.63,3.11,8,8,0,0,0,1.71,2.54A8,8,0,0,0,4.13-128a8,8,0,0,0,3.11.63,8,8,0,0,0,3.11-.63,8,8,0,0,0,2.54-1.71,8,8,0,0,0,1.71-2.54,8,8,0,0,0,.63-3.11A8,8,0,0,0,14.62-138.51ZM7.24-129.9A1.09,1.09,0,0,1,6.15-131a1.09,1.09,0,0,1,1.09-1.09A1.09,1.09,0,0,1,8.33-131,1.09,1.09,0,0,1,7.24-129.9Zm1.09-3.64a.2.2,0,0,1-.2.2H6.35a.2.2,0,0,1-.2-.2v-7.17a.2.2,0,0,1,.2-.2H8.14a.2.2,0,0,1,.2.2v7.17Z" style="clip-rule:evenodd"/></clipPath><clipPath id="clip-path-5"><circle cx="205.04" cy="55.15" r="12" style="fill:none"/></clipPath><clipPath id="clip-path-7"><circle cx="285.04" cy="46.15" r="16" style="fill:none"/></clipPath></defs><title>Checkbox - Outline_1</title><polygon points="4.8 -108.42 13.29 -116.91 15.18 -115.03 4.57 -104.42 2.68 -106.3 -0.46 -109.45 1.66 -111.57 4.8 -108.42" style="fill-rule:evenodd"/><g style="clip-path:url(#clip-path-3)"><rect x="-600.46" y="-751.35" width="2448" height="1584"/></g><path d="M21,2a1,1,0,0,1,1,1V21a1,1,0,0,1-1,1H3a1,1,0,0,1-1-1V3A1,1,0,0,1,3,2H21m0-2H3A3,3,0,0,0,0,3V21a3,3,0,0,0,3,3H21a3,3,0,0,0,3-3V3a3,3,0,0,0-3-3Z"/><path d="M14.62-138.51a8,8,0,0,0-1.71-2.54,8,8,0,0,0-2.54-1.71,8,8,0,0,0-3.11-.63,8,8,0,0,0-3.11.63,8,8,0,0,0-2.54,1.71,8,8,0,0,0-1.71,2.54,8,8,0,0,0-.63,3.11,8,8,0,0,0,.63,3.11,8,8,0,0,0,1.71,2.54A8,8,0,0,0,4.13-128a8,8,0,0,0,3.11.63,8,8,0,0,0,3.11-.63,8,8,0,0,0,2.54-1.71,8,8,0,0,0,1.71-2.54,8,8,0,0,0,.63-3.11A8,8,0,0,0,14.62-138.51ZM7.24-129.9A1.09,1.09,0,0,1,6.15-131a1.09,1.09,0,0,1,1.09-1.09A1.09,1.09,0,0,1,8.33-131,1.09,1.09,0,0,1,7.24-129.9Zm1.09-3.64a.2.2,0,0,1-.2.2H6.35a.2.2,0,0,1-.2-.2v-7.17a.2.2,0,0,1,.2-.2H8.14a.2.2,0,0,1,.2.2v7.17Z" style="fill-rule:evenodd"/><g style="clip-path:url(#clip-path-4)"><rect x="-1732.76" y="-559.4" width="2448" height="1584"/></g></svg>