<svg id="Layer_1" data-name="Layer 1" xmlns="http://www.w3.org/2000/svg" xmlns:xlink="http://www.w3.org/1999/xlink" viewBox="0 0 16 16"><defs><clipPath id="clip-path"><polygon points="-288.66 127.36 -296.16 134.86 -288.66 142.36 -287.28 140.99 -292.43 135.84 -281.16 135.84 -281.16 133.89 -292.43 133.89 -287.28 128.74 -288.66 127.36" style="fill:none;clip-rule:evenodd"/></clipPath><clipPath id="clip-path-2"><polygon points="217.1 36.78 225.59 28.3 227.48 30.18 216.87 40.79 214.98 38.91 211.84 35.76 213.96 33.64 217.1 36.78" style="fill:none;clip-rule:evenodd"/></clipPath><clipPath id="clip-path-3"><polygon points="-16.39 10.28 -7.91 1.8 -6.02 3.68 -16.63 14.29 -18.52 12.4 -21.66 9.26 -19.54 7.14 -16.39 10.28" style="clip-rule:evenodd"/></clipPath><clipPath id="clip-path-4"><rect x="-621.66" y="-632.64" width="2448" height="1584"/></clipPath><clipPath id="clip-path-5"><path d="M-6.58-19.8A8,8,0,0,0-8.3-22.35a8,8,0,0,0-2.54-1.71A8,8,0,0,0-14-24.69a8,8,0,0,0-3.11.63,8,8,0,0,0-2.54,1.71,8,8,0,0,0-1.71,2.54A8,8,0,0,0-22-16.69a8,8,0,0,0,.63,3.11A8,8,0,0,0-19.61-11a8,8,0,0,0,2.54,1.71A8,8,0,0,0-14-8.69a8,8,0,0,0,3.11-.63A8,8,0,0,0-8.3-11a8,8,0,0,0,1.71-2.54A8,8,0,0,0-6-16.69,8,8,0,0,0-6.58-19.8ZM-14-11.19A1.09,1.09,0,0,1-15-12.28,1.09,1.09,0,0,1-14-13.37a1.09,1.09,0,0,1,1.09,1.09A1.09,1.09,0,0,1-14-11.19Zm1.09-3.64a.2.2,0,0,1-.2.2h-1.78a.2.2,0,0,1-.2-.2V-22a.2.2,0,0,1,.2-.2h1.78a.2.2,0,0,1,.2.2v7.17Z" style="clip-rule:evenodd"/></clipPath><clipPath id="clip-path-6"><circle cx="183.84" cy="173.86" r="12" style="fill:none"/></clipPath><clipPath id="clip-path-8"><circle cx="263.84" cy="164.86" r="16" style="fill:none"/></clipPath></defs><title>confirm-4 copy 3</title><polygon points="-16.39 10.28 -7.91 1.8 -6.02 3.68 -16.63 14.29 -18.52 12.4 -21.66 9.26 -19.54 7.14 -16.39 10.28" style="fill-rule:evenodd"/><g style="clip-path:url(#clip-path-3)"><rect x="-621.66" y="-632.64" width="2448" height="1584"/><g style="clip-path:url(#clip-path-4)"><rect x="-26.34" y="-2.08" width="25" height="17.11" transform="translate(-8.63 -7.89) rotate(-45)"/></g></g><polygon points="13.66 1.64 5.17 10.12 2.34 7.29 0.22 9.41 3.05 12.24 5.17 14.36 7.29 12.24 15.78 3.76 13.66 1.64"/><path d="M-6.58-19.8A8,8,0,0,0-8.3-22.35a8,8,0,0,0-2.54-1.71A8,8,0,0,0-14-24.69a8,8,0,0,0-3.11.63,8,8,0,0,0-2.54,1.71,8,8,0,0,0-1.71,2.54A8,8,0,0,0-22-16.69a8,8,0,0,0,.63,3.11A8,8,0,0,0-19.61-11a8,8,0,0,0,2.54,1.71A8,8,0,0,0-14-8.69a8,8,0,0,0,3.11-.63A8,8,0,0,0-8.3-11a8,8,0,0,0,1.71-2.54A8,8,0,0,0-6-16.69,8,8,0,0,0-6.58-19.8ZM-14-11.19A1.09,1.09,0,0,1-15-12.28,1.09,1.09,0,0,1-14-13.37a1.09,1.09,0,0,1,1.09,1.09A1.09,1.09,0,0,1-14-11.19Zm1.09-3.64a.2.2,0,0,1-.2.2h-1.78a.2.2,0,0,1-.2-.2V-22a.2.2,0,0,1,.2-.2h1.78a.2.2,0,0,1,.2.2v7.17Z" style="fill-rule:evenodd"/><g style="clip-path:url(#clip-path-5)"><rect x="-1753.95" y="-440.69" width="2448" height="1584"/></g></svg>