<svg id="Layer_1" data-name="Layer 1" xmlns="http://www.w3.org/2000/svg" xmlns:xlink="http://www.w3.org/1999/xlink" viewBox="0 0 16 16"><defs><clipPath id="clip-path"><polygon points="-266.76 127.36 -274.26 134.86 -266.76 142.36 -265.39 140.99 -270.54 135.84 -259.26 135.84 -259.26 133.89 -270.54 133.89 -265.39 128.74 -266.76 127.36" style="fill:none;clip-rule:evenodd"/></clipPath><clipPath id="clip-path-2"><polygon points="239 36.78 247.49 28.3 249.37 30.18 238.76 40.79 236.88 38.91 233.74 35.76 235.86 33.64 239 36.78" style="fill:none;clip-rule:evenodd"/></clipPath><clipPath id="clip-path-3"><polygon points="5.5 10.28 13.98 1.8 15.87 3.68 5.26 14.29 3.38 12.4 0.23 9.26 2.36 7.14 5.5 10.28" style="clip-rule:evenodd"/></clipPath><clipPath id="clip-path-4"><rect x="-599.76" y="-632.64" width="2448" height="1584"/></clipPath><clipPath id="clip-path-5"><path d="M15.31-19.8a8,8,0,0,0-1.71-2.54,8,8,0,0,0-2.54-1.71,8,8,0,0,0-3.11-.63,8,8,0,0,0-3.11.63,8,8,0,0,0-2.54,1.71A8,8,0,0,0,.57-19.8a8,8,0,0,0-.63,3.11,8,8,0,0,0,.63,3.11A8,8,0,0,0,2.28-11,8,8,0,0,0,4.83-9.32a8,8,0,0,0,3.11.63,8,8,0,0,0,3.11-.63A8,8,0,0,0,13.6-11a8,8,0,0,0,1.71-2.54,8,8,0,0,0,.63-3.11A8,8,0,0,0,15.31-19.8ZM7.94-11.19a1.09,1.09,0,0,1-1.09-1.09,1.09,1.09,0,0,1,1.09-1.09A1.09,1.09,0,0,1,9-12.28,1.09,1.09,0,0,1,7.94-11.19ZM9-14.83a.2.2,0,0,1-.2.2H7a.2.2,0,0,1-.2-.2V-22a.2.2,0,0,1,.2-.2H8.83A.2.2,0,0,1,9-22v7.17Z" style="clip-rule:evenodd"/></clipPath><clipPath id="clip-path-6"><circle cx="205.74" cy="173.86" r="12" style="fill:none"/></clipPath><clipPath id="clip-path-8"><circle cx="285.74" cy="164.86" r="16" style="fill:none"/></clipPath></defs><title>confirm-4 copy 2</title><polygon points="5.5 10.28 13.98 1.8 15.87 3.68 5.26 14.29 3.38 12.4 0.23 9.26 2.36 7.14 5.5 10.28" style="fill-rule:evenodd"/><g style="clip-path:url(#clip-path-3)"><rect x="-599.76" y="-632.64" width="2448" height="1584"/><g style="clip-path:url(#clip-path-4)"><rect x="-4.45" y="-2.08" width="25" height="17.11" transform="translate(-2.22 7.59) rotate(-45)"/></g></g><path d="M15.31-19.8a8,8,0,0,0-1.71-2.54,8,8,0,0,0-2.54-1.71,8,8,0,0,0-3.11-.63,8,8,0,0,0-3.11.63,8,8,0,0,0-2.54,1.71A8,8,0,0,0,.57-19.8a8,8,0,0,0-.63,3.11,8,8,0,0,0,.63,3.11A8,8,0,0,0,2.28-11,8,8,0,0,0,4.83-9.32a8,8,0,0,0,3.11.63,8,8,0,0,0,3.11-.63A8,8,0,0,0,13.6-11a8,8,0,0,0,1.71-2.54,8,8,0,0,0,.63-3.11A8,8,0,0,0,15.31-19.8ZM7.94-11.19a1.09,1.09,0,0,1-1.09-1.09,1.09,1.09,0,0,1,1.09-1.09A1.09,1.09,0,0,1,9-12.28,1.09,1.09,0,0,1,7.94-11.19ZM9-14.83a.2.2,0,0,1-.2.2H7a.2.2,0,0,1-.2-.2V-22a.2.2,0,0,1,.2-.2H8.83A.2.2,0,0,1,9-22v7.17Z" style="fill-rule:evenodd"/><g style="clip-path:url(#clip-path-5)"><rect x="-1732.06" y="-440.69" width="2448" height="1584"/></g></svg>