<svg id="Layer_1" data-name="Layer 1" xmlns="http://www.w3.org/2000/svg" xmlns:xlink="http://www.w3.org/1999/xlink" viewBox="0 0 16 16"><defs><clipPath id="clip-path"><polygon points="-136 300.5 -143.5 308 -136 315.5 -134.62 314.12 -139.78 308.97 -128.5 308.97 -128.5 307.03 -139.78 307.03 -134.62 301.88 -136 300.5" style="fill:none;clip-rule:evenodd"/></clipPath><clipPath id="clip-path-2"><polygon points="369.76 209.92 378.25 201.44 380.13 203.32 369.53 213.93 367.64 212.04 364.5 208.9 366.62 206.78 369.76 209.92" style="fill:none;clip-rule:evenodd"/></clipPath><clipPath id="clip-path-3"><polygon points="136.26 183.42 144.75 174.94 146.63 176.82 136.03 187.43 134.14 185.54 131 182.4 133.12 180.28 136.26 183.42" style="clip-rule:evenodd"/></clipPath><clipPath id="clip-path-4"><path d="M146.08,153.33a8,8,0,1,0,.63,3.11A8,8,0,0,0,146.08,153.33Zm-7.37,8.61a1.09,1.09,0,1,1,1.09-1.09A1.09,1.09,0,0,1,138.7,161.95Zm1.09-3.64a.2.2,0,0,1-.2.2h-1.78a.2.2,0,0,1-.2-.2v-7.17a.2.2,0,0,1,.2-.2h1.78a.2.2,0,0,1,.2.2v7.17Z" style="clip-rule:evenodd"/></clipPath><clipPath id="clip-path-5"><circle cx="336.5" cy="347" r="12" style="fill:none"/></clipPath><clipPath id="clip-path-7"><circle cx="416.5" cy="338" r="16" style="fill:none"/></clipPath></defs><title>doc-1</title><polygon points="136.26 183.42 144.75 174.94 146.63 176.82 136.03 187.43 134.14 185.54 131 182.4 133.12 180.28 136.26 183.42" style="fill-rule:evenodd"/><g style="clip-path:url(#clip-path-3)"><rect x="-469" y="-459.5" width="2448" height="1584"/></g><path d="M146.08,153.33a8,8,0,1,0,.63,3.11A8,8,0,0,0,146.08,153.33Zm-7.37,8.61a1.09,1.09,0,1,1,1.09-1.09A1.09,1.09,0,0,1,138.7,161.95Zm1.09-3.64a.2.2,0,0,1-.2.2h-1.78a.2.2,0,0,1-.2-.2v-7.17a.2.2,0,0,1,.2-.2h1.78a.2.2,0,0,1,.2.2v7.17Z" style="fill-rule:evenodd"/><g style="clip-path:url(#clip-path-4)"><rect x="-1601.3" y="-267.55" width="2448" height="1584"/></g></svg>