<svg id="Layer_1" data-name="Layer 1" xmlns="http://www.w3.org/2000/svg" xmlns:xlink="http://www.w3.org/1999/xlink" viewBox="0 0 16 16"><defs><clipPath id="clip-path"><polygon points="-64 200.5 -71.5 208 -64 215.5 -62.62 214.12 -67.78 208.97 -56.5 208.97 -56.5 207.03 -67.78 207.03 -62.62 201.88 -64 200.5" style="fill:none;clip-rule:evenodd"/></clipPath><clipPath id="clip-path-2"><polygon points="441.76 109.92 450.25 101.44 452.13 103.32 441.53 113.93 439.64 112.04 436.5 108.9 438.62 106.78 441.76 109.92" style="fill:none;clip-rule:evenodd"/></clipPath><clipPath id="clip-path-3"><polygon points="208.26 83.42 216.75 74.94 218.63 76.82 208.03 87.43 206.14 85.54 203 82.4 205.12 80.28 208.26 83.42" style="clip-rule:evenodd"/></clipPath><clipPath id="clip-path-4"><path d="M218.08,53.33a8,8,0,1,0,.63,3.11A8,8,0,0,0,218.08,53.33Zm-7.37,8.61a1.09,1.09,0,1,1,1.09-1.09A1.09,1.09,0,0,1,210.7,61.95Zm1.09-3.64a.2.2,0,0,1-.2.2h-1.78a.2.2,0,0,1-.2-.2V51.14a.2.2,0,0,1,.2-.2h1.78a.2.2,0,0,1,.2.2v7.17Z" style="clip-rule:evenodd"/></clipPath><clipPath id="clip-path-5"><circle cx="408.5" cy="247" r="12" style="fill:none"/></clipPath><clipPath id="clip-path-7"><circle cx="488.5" cy="238" r="16" style="fill:none"/></clipPath></defs><title>edit-2</title><path d="M13,0,11,2l3,3,2-2ZM9,4,2,11l3,3,7-7ZM1,12,0,16l4-1Z"/><polygon points="208.26 83.42 216.75 74.94 218.63 76.82 208.03 87.43 206.14 85.54 203 82.4 205.12 80.28 208.26 83.42" style="fill-rule:evenodd"/><g style="clip-path:url(#clip-path-3)"><rect x="-397" y="-559.5" width="2448" height="1584"/></g><path d="M218.08,53.33a8,8,0,1,0,.63,3.11A8,8,0,0,0,218.08,53.33Zm-7.37,8.61a1.09,1.09,0,1,1,1.09-1.09A1.09,1.09,0,0,1,210.7,61.95Zm1.09-3.64a.2.2,0,0,1-.2.2h-1.78a.2.2,0,0,1-.2-.2V51.14a.2.2,0,0,1,.2-.2h1.78a.2.2,0,0,1,.2.2v7.17Z" style="fill-rule:evenodd"/><g style="clip-path:url(#clip-path-4)"><rect x="-1529.3" y="-367.55" width="2448" height="1584"/></g></svg>