<svg id="Layer_1" data-name="Layer 1" xmlns="http://www.w3.org/2000/svg" xmlns:xlink="http://www.w3.org/1999/xlink" viewBox="0 0 16 16"><defs><clipPath id="clip-path"><polygon points="-100 200.5 -107.5 208 -100 215.5 -98.62 214.12 -103.78 208.97 -92.5 208.97 -92.5 207.03 -103.78 207.03 -98.62 201.88 -100 200.5" style="fill:none;clip-rule:evenodd"/></clipPath><clipPath id="clip-path-2"><polygon points="405.76 109.92 414.25 101.44 416.13 103.32 405.53 113.93 403.64 112.04 400.5 108.9 402.62 106.78 405.76 109.92" style="fill:none;clip-rule:evenodd"/></clipPath><clipPath id="clip-path-3"><polygon points="172.26 83.42 180.75 74.94 182.63 76.82 172.03 87.43 170.14 85.54 167 82.4 169.12 80.28 172.26 83.42" style="clip-rule:evenodd"/></clipPath><clipPath id="clip-path-4"><path d="M182.08,53.33a8,8,0,1,0,.63,3.11A8,8,0,0,0,182.08,53.33Zm-7.37,8.61a1.09,1.09,0,1,1,1.09-1.09A1.09,1.09,0,0,1,174.7,61.95Zm1.09-3.64a.2.2,0,0,1-.2.2h-1.78a.2.2,0,0,1-.2-.2V51.14a.2.2,0,0,1,.2-.2h1.78a.2.2,0,0,1,.2.2v7.17Z" style="clip-rule:evenodd"/></clipPath><clipPath id="clip-path-5"><circle cx="372.5" cy="247" r="12" style="fill:none"/></clipPath><clipPath id="clip-path-7"><circle cx="452.5" cy="238" r="16" style="fill:none"/></clipPath></defs><title>email-1</title><path d="M0,2V4L8,8l8-4V2ZM0,6v8H16V6L8,10Z"/><polygon points="172.26 83.42 180.75 74.94 182.63 76.82 172.03 87.43 170.14 85.54 167 82.4 169.12 80.28 172.26 83.42" style="fill-rule:evenodd"/><g style="clip-path:url(#clip-path-3)"><rect x="-433" y="-559.5" width="2448" height="1584"/></g><path d="M182.08,53.33a8,8,0,1,0,.63,3.11A8,8,0,0,0,182.08,53.33Zm-7.37,8.61a1.09,1.09,0,1,1,1.09-1.09A1.09,1.09,0,0,1,174.7,61.95Zm1.09-3.64a.2.2,0,0,1-.2.2h-1.78a.2.2,0,0,1-.2-.2V51.14a.2.2,0,0,1,.2-.2h1.78a.2.2,0,0,1,.2.2v7.17Z" style="fill-rule:evenodd"/><g style="clip-path:url(#clip-path-4)"><rect x="-1565.3" y="-367.55" width="2448" height="1584"/></g></svg>