<svg id="Layer_1" data-name="Layer 1" xmlns="http://www.w3.org/2000/svg" xmlns:xlink="http://www.w3.org/1999/xlink" viewBox="0 0 16 16"><defs><clipPath id="clip-path"><polygon points="8 150.5 0.5 158 8 165.5 9.38 164.12 4.22 158.97 15.5 158.97 15.5 157.03 4.22 157.03 9.38 151.88 8 150.5" style="fill:none;clip-rule:evenodd"/></clipPath><clipPath id="clip-path-2"><polygon points="513.76 59.92 522.25 51.44 524.13 53.32 513.53 63.93 511.64 62.04 508.5 58.9 510.62 56.78 513.76 59.92" style="fill:none;clip-rule:evenodd"/></clipPath><clipPath id="clip-path-3"><polygon points="280.26 33.42 288.75 24.94 290.63 26.82 280.03 37.43 278.14 35.54 275 32.4 277.12 30.28 280.26 33.42" style="clip-rule:evenodd"/></clipPath><clipPath id="clip-path-4"><path d="M290.08,3.33a8,8,0,1,0,.63,3.11A8,8,0,0,0,290.08,3.33Zm-7.37,8.61a1.09,1.09,0,1,1,1.09-1.09A1.09,1.09,0,0,1,282.7,11.95Zm1.09-3.64a.2.2,0,0,1-.2.2h-1.78a.2.2,0,0,1-.2-.2V1.14a.2.2,0,0,1,.2-.2h1.78a.2.2,0,0,1,.2.2V8.31Z" style="clip-rule:evenodd"/></clipPath><clipPath id="clip-path-5"><circle cx="480.5" cy="197" r="12" style="fill:none"/></clipPath><clipPath id="clip-path-7"><circle cx="560.5" cy="188" r="16" style="fill:none"/></clipPath></defs><title>filter-1</title><path d="M1,0V2L6,7v9l4-4V7l5-5V0Z"/><polygon points="280.26 33.42 288.75 24.94 290.63 26.82 280.03 37.43 278.14 35.54 275 32.4 277.12 30.28 280.26 33.42" style="fill-rule:evenodd"/><g style="clip-path:url(#clip-path-3)"><rect x="-325" y="-609.5" width="2448" height="1584"/></g><path d="M290.08,3.33a8,8,0,1,0,.63,3.11A8,8,0,0,0,290.08,3.33Zm-7.37,8.61a1.09,1.09,0,1,1,1.09-1.09A1.09,1.09,0,0,1,282.7,11.95Zm1.09-3.64a.2.2,0,0,1-.2.2h-1.78a.2.2,0,0,1-.2-.2V1.14a.2.2,0,0,1,.2-.2h1.78a.2.2,0,0,1,.2.2V8.31Z" style="fill-rule:evenodd"/><g style="clip-path:url(#clip-path-4)"><rect x="-1457.3" y="-417.55" width="2448" height="1584"/></g></svg>