<svg id="Layer_1" data-name="Layer 1" xmlns="http://www.w3.org/2000/svg" xmlns:xlink="http://www.w3.org/1999/xlink" viewBox="0 0 16 16"><defs><clipPath id="clip-path"><polygon points="-64 150.5 -71.5 158 -64 165.5 -62.62 164.12 -67.78 158.97 -56.5 158.97 -56.5 157.03 -67.78 157.03 -62.62 151.88 -64 150.5" style="fill:none;clip-rule:evenodd"/></clipPath><clipPath id="clip-path-2"><polygon points="441.76 59.92 450.25 51.44 452.13 53.32 441.53 63.93 439.64 62.04 436.5 58.9 438.62 56.78 441.76 59.92" style="fill:none;clip-rule:evenodd"/></clipPath><clipPath id="clip-path-3"><polygon points="208.26 33.42 216.75 24.94 218.63 26.82 208.03 37.43 206.14 35.54 203 32.4 205.12 30.28 208.26 33.42" style="clip-rule:evenodd"/></clipPath><clipPath id="clip-path-4"><path d="M218.08,3.33a8,8,0,1,0,.63,3.11A8,8,0,0,0,218.08,3.33Zm-7.37,8.61a1.09,1.09,0,1,1,1.09-1.09A1.09,1.09,0,0,1,210.7,11.95Zm1.09-3.64a.2.2,0,0,1-.2.2h-1.78a.2.2,0,0,1-.2-.2V1.14a.2.2,0,0,1,.2-.2h1.78a.2.2,0,0,1,.2.2V8.31Z" style="clip-rule:evenodd"/></clipPath><clipPath id="clip-path-5"><circle cx="408.5" cy="197" r="12" style="fill:none"/></clipPath><clipPath id="clip-path-7"><circle cx="488.5" cy="188" r="16" style="fill:none"/></clipPath></defs><title>googleplus-1</title><path d="M4.56,1C2.69,1,.91,2.42.91,4.06A3,3,0,0,0,4.1,7.13c.13,0,.25,0,.38,0a1.68,1.68,0,0,0-.19.78A1.62,1.62,0,0,0,4.85,9H4.13C1.8,9,0,10.53,0,12.06s2,2.47,4.28,2.47c2.65,0,4.13-1.52,4.13-3A2.92,2.92,0,0,0,6.94,8.78c-.38-.27-1.09-.93-1.09-1.31s.11-.66.78-1.19A2.82,2.82,0,0,0,7.81,4.09,2.47,2.47,0,0,0,6.47,1.69H7.81L8.72,1H4.56ZM12,1V4H9V5h3V8h1V5h3V4H13V1ZM4,1.59A2.79,2.79,0,0,1,6.31,4.19c.19,1.42-.55,2.53-1.62,2.5A2.83,2.83,0,0,1,2.41,4.06C2.22,2.65,3,1.56,4,1.59Zm.53,7.84a3.42,3.42,0,0,1,1,.16c.87.61,1.51,1,1.69,1.66a1.93,1.93,0,0,1,0,.44c0,1.22-.77,2.16-3,2.16-1.61,0-2.78-1-2.78-2.22S3,9.42,4.56,9.44Z"/><polygon points="208.26 33.42 216.75 24.94 218.63 26.82 208.03 37.43 206.14 35.54 203 32.4 205.12 30.28 208.26 33.42" style="fill-rule:evenodd"/><g style="clip-path:url(#clip-path-3)"><rect x="-397" y="-609.5" width="2448" height="1584"/></g><path d="M218.08,3.33a8,8,0,1,0,.63,3.11A8,8,0,0,0,218.08,3.33Zm-7.37,8.61a1.09,1.09,0,1,1,1.09-1.09A1.09,1.09,0,0,1,210.7,11.95Zm1.09-3.64a.2.2,0,0,1-.2.2h-1.78a.2.2,0,0,1-.2-.2V1.14a.2.2,0,0,1,.2-.2h1.78a.2.2,0,0,1,.2.2V8.31Z" style="fill-rule:evenodd"/><g style="clip-path:url(#clip-path-4)"><rect x="-1529.3" y="-417.55" width="2448" height="1584"/></g></svg>