<svg id="Layer_1" data-name="Layer 1" xmlns="http://www.w3.org/2000/svg" xmlns:xlink="http://www.w3.org/1999/xlink" viewBox="0 0 16 16"><defs><clipPath id="clip-path"><polygon points="-64 100.5 -71.5 108 -64 115.5 -62.62 114.12 -67.78 108.97 -56.5 108.97 -56.5 107.03 -67.78 107.03 -62.62 101.88 -64 100.5" style="fill:none;clip-rule:evenodd"/></clipPath><clipPath id="clip-path-2"><polygon points="441.76 9.92 450.25 1.44 452.13 3.32 441.53 13.93 439.64 12.04 436.5 8.9 438.62 6.78 441.76 9.92" style="fill:none;clip-rule:evenodd"/></clipPath><clipPath id="clip-path-3"><polygon points="208.26 -16.58 216.75 -25.06 218.63 -23.18 208.03 -12.57 206.14 -14.46 203 -17.6 205.12 -19.72 208.26 -16.58" style="clip-rule:evenodd"/></clipPath><clipPath id="clip-path-4"><path d="M218.08-46.67a8,8,0,0,0-1.71-2.54,8,8,0,0,0-2.54-1.71,8,8,0,0,0-3.11-.63,8,8,0,0,0-3.11.63A8,8,0,0,0,205-49.21a8,8,0,0,0-1.71,2.54,8,8,0,0,0-.63,3.11,8,8,0,0,0,.63,3.11A8,8,0,0,0,205-37.9a8,8,0,0,0,2.54,1.71,8,8,0,0,0,3.11.63,8,8,0,0,0,3.11-.63,8,8,0,0,0,2.54-1.71,8,8,0,0,0,1.71-2.54,8,8,0,0,0,.63-3.11A8,8,0,0,0,218.08-46.67Zm-7.37,8.61a1.09,1.09,0,0,1-1.09-1.09,1.09,1.09,0,0,1,1.09-1.09,1.09,1.09,0,0,1,1.09,1.09A1.09,1.09,0,0,1,210.7-38.05Zm1.09-3.64a.2.2,0,0,1-.2.2h-1.78a.2.2,0,0,1-.2-.2v-7.17a.2.2,0,0,1,.2-.2h1.78a.2.2,0,0,1,.2.2v7.17Z" style="clip-rule:evenodd"/></clipPath><clipPath id="clip-path-5"><circle cx="408.5" cy="147" r="12" style="fill:none"/></clipPath><clipPath id="clip-path-7"><circle cx="488.5" cy="138" r="16" style="fill:none"/></clipPath></defs><title>graphtype-stacked</title><g id="Icons-_-Illustration" data-name="Icons-&amp;-Illustration"><g id="Component---Top-Nav"><g id="Group-3-Copy-3"><polygon id="Fill-1" points="16 0 11.5 5 8.5 3 3.5 8.5 0 8.5 0 11.5 4.5 11.5 8.5 7.5 11.5 10.5 16 7 16 0" style="fill:#131517"/></g></g></g><g id="Icons-_-Illustration-2" data-name="Icons-&amp;-Illustration"><g id="Component---Top-Nav-2" data-name="Component---Top-Nav"><g id="Group-3-Copy-3-2" data-name="Group-3-Copy-3"><polygon id="Fill-2" points="11.5 12.5 8.5 9.51 5.02 13 0 13 0 16 16 16 16 9 11.5 12.5" style="fill:#131517;fill-opacity:0.5"/></g></g></g><polygon points="208.26 -16.58 216.75 -25.06 218.63 -23.18 208.03 -12.57 206.14 -14.46 203 -17.6 205.12 -19.72 208.26 -16.58" style="fill-rule:evenodd"/><g style="clip-path:url(#clip-path-3)"><rect x="-397" y="-659.5" width="2448" height="1584"/></g><path d="M218.08-46.67a8,8,0,0,0-1.71-2.54,8,8,0,0,0-2.54-1.71,8,8,0,0,0-3.11-.63,8,8,0,0,0-3.11.63A8,8,0,0,0,205-49.21a8,8,0,0,0-1.71,2.54,8,8,0,0,0-.63,3.11,8,8,0,0,0,.63,3.11A8,8,0,0,0,205-37.9a8,8,0,0,0,2.54,1.71,8,8,0,0,0,3.11.63,8,8,0,0,0,3.11-.63,8,8,0,0,0,2.54-1.71,8,8,0,0,0,1.71-2.54,8,8,0,0,0,.63-3.11A8,8,0,0,0,218.08-46.67Zm-7.37,8.61a1.09,1.09,0,0,1-1.09-1.09,1.09,1.09,0,0,1,1.09-1.09,1.09,1.09,0,0,1,1.09,1.09A1.09,1.09,0,0,1,210.7-38.05Zm1.09-3.64a.2.2,0,0,1-.2.2h-1.78a.2.2,0,0,1-.2-.2v-7.17a.2.2,0,0,1,.2-.2h1.78a.2.2,0,0,1,.2.2v7.17Z" style="fill-rule:evenodd"/><g style="clip-path:url(#clip-path-4)"><rect x="-1529.3" y="-467.55" width="2448" height="1584"/></g></svg>