<svg id="Layer_1" data-name="Layer 1" xmlns="http://www.w3.org/2000/svg" xmlns:xlink="http://www.w3.org/1999/xlink" viewBox="0 0 16 16"><defs><clipPath id="clip-path"><polygon points="-136 100.5 -143.5 108 -136 115.5 -134.62 114.12 -139.78 108.97 -128.5 108.97 -128.5 107.03 -139.78 107.03 -134.62 101.88 -136 100.5" style="fill:none;clip-rule:evenodd"/></clipPath><clipPath id="clip-path-2"><polygon points="369.76 9.92 378.25 1.44 380.13 3.32 369.53 13.93 367.64 12.04 364.5 8.9 366.62 6.78 369.76 9.92" style="fill:none;clip-rule:evenodd"/></clipPath><clipPath id="clip-path-3"><polygon points="136.26 -16.58 144.75 -25.06 146.63 -23.18 136.03 -12.57 134.14 -14.46 131 -17.6 133.12 -19.72 136.26 -16.58" style="clip-rule:evenodd"/></clipPath><clipPath id="clip-path-4"><path d="M146.08-46.67a8,8,0,0,0-1.71-2.54,8,8,0,0,0-2.54-1.71,8,8,0,0,0-3.11-.63,8,8,0,0,0-3.11.63A8,8,0,0,0,133-49.21a8,8,0,0,0-1.71,2.54,8,8,0,0,0-.63,3.11,8,8,0,0,0,.63,3.11A8,8,0,0,0,133-37.9a8,8,0,0,0,2.54,1.71,8,8,0,0,0,3.11.63,8,8,0,0,0,3.11-.63,8,8,0,0,0,2.54-1.71,8,8,0,0,0,1.71-2.54,8,8,0,0,0,.63-3.11A8,8,0,0,0,146.08-46.67Zm-7.37,8.61a1.09,1.09,0,0,1-1.09-1.09,1.09,1.09,0,0,1,1.09-1.09,1.09,1.09,0,0,1,1.09,1.09A1.09,1.09,0,0,1,138.7-38.05Zm1.09-3.64a.2.2,0,0,1-.2.2h-1.78a.2.2,0,0,1-.2-.2v-7.17a.2.2,0,0,1,.2-.2h1.78a.2.2,0,0,1,.2.2v7.17Z" style="clip-rule:evenodd"/></clipPath><clipPath id="clip-path-5"><circle cx="336.5" cy="147" r="12" style="fill:none"/></clipPath><clipPath id="clip-path-7"><circle cx="416.5" cy="138" r="16" style="fill:none"/></clipPath></defs><title>greater-equal-1</title><text transform="translate(2 14)" style="font-size:20px;fill:#f0f;font-family:BentonSans-Medium, Benton Sans">≥</text><polygon points="136.26 -16.58 144.75 -25.06 146.63 -23.18 136.03 -12.57 134.14 -14.46 131 -17.6 133.12 -19.72 136.26 -16.58" style="fill-rule:evenodd"/><g style="clip-path:url(#clip-path-3)"><rect x="-469" y="-659.5" width="2448" height="1584"/></g><path d="M146.08-46.67a8,8,0,0,0-1.71-2.54,8,8,0,0,0-2.54-1.71,8,8,0,0,0-3.11-.63,8,8,0,0,0-3.11.63A8,8,0,0,0,133-49.21a8,8,0,0,0-1.71,2.54,8,8,0,0,0-.63,3.11,8,8,0,0,0,.63,3.11A8,8,0,0,0,133-37.9a8,8,0,0,0,2.54,1.71,8,8,0,0,0,3.11.63,8,8,0,0,0,3.11-.63,8,8,0,0,0,2.54-1.71,8,8,0,0,0,1.71-2.54,8,8,0,0,0,.63-3.11A8,8,0,0,0,146.08-46.67Zm-7.37,8.61a1.09,1.09,0,0,1-1.09-1.09,1.09,1.09,0,0,1,1.09-1.09,1.09,1.09,0,0,1,1.09,1.09A1.09,1.09,0,0,1,138.7-38.05Zm1.09-3.64a.2.2,0,0,1-.2.2h-1.78a.2.2,0,0,1-.2-.2v-7.17a.2.2,0,0,1,.2-.2h1.78a.2.2,0,0,1,.2.2v7.17Z" style="fill-rule:evenodd"/><g style="clip-path:url(#clip-path-4)"><rect x="-1601.3" y="-467.55" width="2448" height="1584"/></g></svg>