<svg id="Layer_1" data-name="Layer 1" xmlns="http://www.w3.org/2000/svg" xmlns:xlink="http://www.w3.org/1999/xlink" viewBox="0 0 16 16"><defs><clipPath id="clip-path"><polygon points="8 0.5 0.5 8 8 15.5 9.38 14.12 4.22 8.97 15.5 8.97 15.5 7.03 4.22 7.03 9.38 1.88 8 0.5" style="fill:none;clip-rule:evenodd"/></clipPath><clipPath id="clip-path-2"><rect x="-451.5" y="-1085.5" width="2448" height="1584" style="fill:none"/></clipPath><clipPath id="clip-path-3"><polygon points="513.76 -90.08 522.25 -98.56 524.13 -96.68 513.53 -86.07 511.64 -87.96 508.5 -91.1 510.62 -93.22 513.76 -90.08" style="fill:none;clip-rule:evenodd"/></clipPath><clipPath id="clip-path-4"><polygon points="280.26 -116.58 288.75 -125.06 290.63 -123.18 280.03 -112.57 278.14 -114.46 275 -117.6 277.12 -119.72 280.26 -116.58" style="clip-rule:evenodd"/></clipPath><clipPath id="clip-path-5"><path d="M290.08-146.67a8,8,0,0,0-1.71-2.54,8,8,0,0,0-2.54-1.71,8,8,0,0,0-3.11-.63,8,8,0,0,0-3.11.63,8,8,0,0,0-2.54,1.71,8,8,0,0,0-1.71,2.54,8,8,0,0,0-.63,3.11,8,8,0,0,0,.63,3.11A8,8,0,0,0,277-137.9a8,8,0,0,0,2.54,1.71,8,8,0,0,0,3.11.63,8,8,0,0,0,3.11-.63,8,8,0,0,0,2.54-1.71,8,8,0,0,0,1.71-2.54,8,8,0,0,0,.63-3.11A8,8,0,0,0,290.08-146.67Zm-7.37,8.61a1.09,1.09,0,0,1-1.09-1.09,1.09,1.09,0,0,1,1.09-1.09,1.09,1.09,0,0,1,1.09,1.09A1.09,1.09,0,0,1,282.7-138.05Zm1.09-3.64a.2.2,0,0,1-.2.2h-1.78a.2.2,0,0,1-.2-.2v-7.17a.2.2,0,0,1,.2-.2h1.78a.2.2,0,0,1,.2.2v7.17Z" style="clip-rule:evenodd"/></clipPath><clipPath id="clip-path-6"><circle cx="480.5" cy="47" r="12" style="fill:none"/></clipPath><clipPath id="clip-path-8"><circle cx="560.5" cy="38" r="16" style="fill:none"/></clipPath></defs><title>left-1</title><g style="clip-path:url(#clip-path)"><g style="clip-path:url(#clip-path-2)"><rect x="-4.5" y="-4.5" width="25" height="25" style="fill:#131517"/></g></g><polygon points="280.26 -116.58 288.75 -125.06 290.63 -123.18 280.03 -112.57 278.14 -114.46 275 -117.6 277.12 -119.72 280.26 -116.58" style="fill-rule:evenodd"/><g style="clip-path:url(#clip-path-4)"><rect x="-325" y="-759.5" width="2448" height="1584"/></g><path d="M290.08-146.67a8,8,0,0,0-1.71-2.54,8,8,0,0,0-2.54-1.71,8,8,0,0,0-3.11-.63,8,8,0,0,0-3.11.63,8,8,0,0,0-2.54,1.71,8,8,0,0,0-1.71,2.54,8,8,0,0,0-.63,3.11,8,8,0,0,0,.63,3.11A8,8,0,0,0,277-137.9a8,8,0,0,0,2.54,1.71,8,8,0,0,0,3.11.63,8,8,0,0,0,3.11-.63,8,8,0,0,0,2.54-1.71,8,8,0,0,0,1.71-2.54,8,8,0,0,0,.63-3.11A8,8,0,0,0,290.08-146.67Zm-7.37,8.61a1.09,1.09,0,0,1-1.09-1.09,1.09,1.09,0,0,1,1.09-1.09,1.09,1.09,0,0,1,1.09,1.09A1.09,1.09,0,0,1,282.7-138.05Zm1.09-3.64a.2.2,0,0,1-.2.2h-1.78a.2.2,0,0,1-.2-.2v-7.17a.2.2,0,0,1,.2-.2h1.78a.2.2,0,0,1,.2.2v7.17Z" style="fill-rule:evenodd"/><g style="clip-path:url(#clip-path-5)"><rect x="-1457.3" y="-567.55" width="2448" height="1584"/></g></svg>