<svg id="Layer_1" data-name="Layer 1" xmlns="http://www.w3.org/2000/svg" xmlns:xlink="http://www.w3.org/1999/xlink" viewBox="0 0 16 16"><defs><clipPath id="clip-path"><polygon points="-100 0.5 -107.5 8 -100 15.5 -98.62 14.12 -103.78 8.97 -92.5 8.97 -92.5 7.03 -103.78 7.03 -98.62 1.88 -100 0.5" style="fill:none;clip-rule:evenodd"/></clipPath><clipPath id="clip-path-2"><polygon points="405.76 -90.08 414.25 -98.56 416.13 -96.68 405.53 -86.07 403.64 -87.96 400.5 -91.1 402.62 -93.22 405.76 -90.08" style="fill:none;clip-rule:evenodd"/></clipPath><clipPath id="clip-path-3"><polygon points="172.26 -116.58 180.75 -125.06 182.63 -123.18 172.03 -112.57 170.14 -114.46 167 -117.6 169.12 -119.72 172.26 -116.58" style="clip-rule:evenodd"/></clipPath><clipPath id="clip-path-4"><path d="M182.08-146.67a8,8,0,0,0-1.71-2.54,8,8,0,0,0-2.54-1.71,8,8,0,0,0-3.11-.63,8,8,0,0,0-3.11.63,8,8,0,0,0-2.54,1.71,8,8,0,0,0-1.71,2.54,8,8,0,0,0-.63,3.11,8,8,0,0,0,.63,3.11A8,8,0,0,0,169-137.9a8,8,0,0,0,2.54,1.71,8,8,0,0,0,3.11.63,8,8,0,0,0,3.11-.63,8,8,0,0,0,2.54-1.71,8,8,0,0,0,1.71-2.54,8,8,0,0,0,.63-3.11A8,8,0,0,0,182.08-146.67Zm-7.37,8.61a1.09,1.09,0,0,1-1.09-1.09,1.09,1.09,0,0,1,1.09-1.09,1.09,1.09,0,0,1,1.09,1.09A1.09,1.09,0,0,1,174.7-138.05Zm1.09-3.64a.2.2,0,0,1-.2.2h-1.78a.2.2,0,0,1-.2-.2v-7.17a.2.2,0,0,1,.2-.2h1.78a.2.2,0,0,1,.2.2v7.17Z" style="clip-rule:evenodd"/></clipPath><clipPath id="clip-path-5"><circle cx="372.5" cy="47" r="12" style="fill:none"/></clipPath><clipPath id="clip-path-7"><circle cx="452.5" cy="38" r="16" style="fill:none"/></clipPath></defs><title>lefthead-3</title><polygon points="10.5 0.5 3 8 10.5 15.5 11.88 14.12 5.75 8 11.88 1.88 10.5 0.5"/><rect width="16" height="16" style="fill:none"/><polygon points="172.26 -116.58 180.75 -125.06 182.63 -123.18 172.03 -112.57 170.14 -114.46 167 -117.6 169.12 -119.72 172.26 -116.58" style="fill-rule:evenodd"/><g style="clip-path:url(#clip-path-3)"><rect x="-433" y="-759.5" width="2448" height="1584"/></g><path d="M182.08-146.67a8,8,0,0,0-1.71-2.54,8,8,0,0,0-2.54-1.71,8,8,0,0,0-3.11-.63,8,8,0,0,0-3.11.63,8,8,0,0,0-2.54,1.71,8,8,0,0,0-1.71,2.54,8,8,0,0,0-.63,3.11,8,8,0,0,0,.63,3.11A8,8,0,0,0,169-137.9a8,8,0,0,0,2.54,1.71,8,8,0,0,0,3.11.63,8,8,0,0,0,3.11-.63,8,8,0,0,0,2.54-1.71,8,8,0,0,0,1.71-2.54,8,8,0,0,0,.63-3.11A8,8,0,0,0,182.08-146.67Zm-7.37,8.61a1.09,1.09,0,0,1-1.09-1.09,1.09,1.09,0,0,1,1.09-1.09,1.09,1.09,0,0,1,1.09,1.09A1.09,1.09,0,0,1,174.7-138.05Zm1.09-3.64a.2.2,0,0,1-.2.2h-1.78a.2.2,0,0,1-.2-.2v-7.17a.2.2,0,0,1,.2-.2h1.78a.2.2,0,0,1,.2.2v7.17Z" style="fill-rule:evenodd"/><g style="clip-path:url(#clip-path-4)"><rect x="-1565.3" y="-567.55" width="2448" height="1584"/></g></svg>