<svg xmlns="http://www.w3.org/2000/svg" xmlns:xlink="http://www.w3.org/1999/xlink" width="16" height="16" viewBox="0 0 16 16"><defs><style>.a{fill:none;clip-rule:evenodd;}.b{clip-path:url(#a);}.c{clip-path:url(#b);}</style><clipPath id="a"><polygon class="a" points="-63.5 216.5 -56 209 -63.5 201.5 -64.88 202.88 -59.73 208.03 -71 208.03 -71 209.97 -59.73 209.97 -64.88 215.12 -63.5 216.5"/></clipPath><clipPath id="b"><polygon class="a" points="-92.58 408.5 -100.08 401 -107.58 408.5 -106.21 409.88 -101.06 404.73 -101.06 416 -99.11 416 -99.11 404.73 -93.96 409.88 -92.58 408.5"/></clipPath></defs><title>og20-1</title><path d="M8,0a8,8,0,1,0,8,8A8,8,0,0,0,8,0ZM8,14a6,6,0,1,1,6-6A6,6,0,0,1,8,14Zm3.22-8.22H4.78A.3.3,0,0,0,4.5,6a.3.3,0,0,0,.13.31L7.72,8.22v3.44a.3.3,0,0,0,.22.28H8a.28.28,0,0,0,.25-.12l3.22-5.59a.23.23,0,0,0,0-.28.32.32,0,0,0-.25-.16Z"/></svg>