<svg xmlns="http://www.w3.org/2000/svg" xmlns:xlink="http://www.w3.org/1999/xlink" width="16" height="16" viewBox="0 0 16 16"><defs><style>.a{fill:none;clip-rule:evenodd;}.b{clip-path:url(#a);}.c{clip-path:url(#b);}</style><clipPath id="a"><polygon class="a" points="-99.5 215.5 -92 208 -99.5 200.5 -100.88 201.88 -95.72 207.03 -107 207.03 -107 208.97 -95.72 208.97 -100.88 214.12 -99.5 215.5"/></clipPath><clipPath id="b"><polygon class="a" points="-128.58 407.5 -136.08 400 -143.58 407.5 -142.21 408.88 -137.06 403.73 -137.06 415 -135.11 415 -135.11 403.73 -129.96 408.88 -128.58 407.5"/></clipPath></defs><title>opengov20-1</title><path d="M1.75,6.25a1.75,1.75,0,0,0,0,3.5,1.75,1.75,0,1,0,0-3.5Zm0,3.06a1.31,1.31,0,1,1,0-2.62,1.31,1.31,0,0,1,0,2.63ZM2.47,7.5H1.06A.07.07,0,0,0,1,7.56s0,.06,0,.06L1.69,8v.78s0,0,.06.06h0a.11.11,0,0,0,.06,0l.72-1.25V7.53s0,0-.06,0Zm2.66-.66H5A.57.57,0,0,0,4.59,7a.62.62,0,0,0-.19.44V8.53A.62.62,0,0,0,4.59,9,.57.57,0,0,0,5,9.16h.09a.64.64,0,0,0,.63-.62V7.47a.64.64,0,0,0-.62-.62Zm.16,1.63c0,.16-.09.25-.19.25a.22.22,0,0,1-.22-.25V7.53a.24.24,0,0,1,.22-.25c.09,0,.19.13.19.25ZM6.84,6.88H6.25c-.06,0-.09.06-.09.13V9c0,.06,0,.13.09.13H6.5A.13.13,0,0,0,6.63,9V8.28s0-.06,0-.06h.19a.54.54,0,0,0,.44-.16.62.62,0,0,0,.19-.44V7.5a.62.62,0,0,0-.19-.44.57.57,0,0,0-.44-.19ZM7,7.66a.2.2,0,0,1-.19.19H6.66a0,0,0,0,1,0,0V7.34s0,0,0,0h.16A.17.17,0,0,1,7,7.47Zm1.91,1H8.34a.11.11,0,0,1-.06,0V8.19s0,0,.06,0h.41c.06,0,.09-.06.09-.12V7.84a.08.08,0,0,0-.09-.09H8.34a.11.11,0,0,1-.06,0V7.34s0,0,.06,0h.53c.06,0,.09-.06.09-.12V7c0-.06,0-.12-.09-.12H7.94c-.06,0-.09.06-.09.13V9c0,.06,0,.13.09.13h1C9,9.12,9,9.06,9,9V8.81c0-.06,0-.12-.09-.12Zm1.75-1.81h-.22c-.06,0-.09.06-.09.13V8l-.5-1c0-.09-.06-.12-.12-.12H9.5A.13.13,0,0,0,9.37,7V9a.13.13,0,0,0,.13.13h.22A.13.13,0,0,0,9.84,9V7.94L10.34,9c0,.06.06.09.09.09h.22A.13.13,0,0,0,10.78,9V7a.13.13,0,0,0-.12-.12Zm1.75,1.06h-.5a.13.13,0,0,0-.12.13v.16c0,.06.06.09.13.09H12a.11.11,0,0,1,0,.06v.06c0,.19-.06.28-.22.28a.25.25,0,0,1-.22-.28V7.56a.28.28,0,0,1,.22-.28.25.25,0,0,1,.22.28v0a.14.14,0,0,0,.13.09h.19c.09,0,.13,0,.13-.09V7.5a.64.64,0,0,0-.66-.66h0a.62.62,0,0,0-.44.19.56.56,0,0,0-.22.47v1a.64.64,0,0,0,.66.66h.06A.4.4,0,0,0,12.22,9V9c0,.09.09.16.13.16h.06A.13.13,0,0,0,12.53,9V8.06a.13.13,0,0,0-.12-.12Zm1.22-1.09h-.09a.64.64,0,0,0-.62.63V8.53a.64.64,0,0,0,.63.63h.09A.69.69,0,0,0,14.09,9a.59.59,0,0,0,.16-.44V7.47A.58.58,0,0,0,14.09,7,.69.69,0,0,0,13.63,6.84Zm.16,1.63c0,.16-.09.25-.19.25a.24.24,0,0,1-.22-.25V7.53a.27.27,0,0,1,.22-.25c.09,0,.19.13.19.25Zm2.13-1.59h-.22c-.06,0-.12,0-.12.09l-.28,1.34L15,7c0-.06-.06-.09-.12-.09h-.22a.11.11,0,0,0-.12.13l0,0L15,9c0,.09.06.13.13.13h.31c.09,0,.13,0,.13-.12L16,7V7a.08.08,0,0,0-.09-.09Z"/></svg>