<svg id="Layer_1" data-name="Layer 1" xmlns="http://www.w3.org/2000/svg" xmlns:xlink="http://www.w3.org/1999/xlink" viewBox="0 0 24 24"><defs><clipPath id="clip-path"><polygon points="-298.34 -76.72 -305.83 -69.22 -298.34 -61.72 -296.96 -63.1 -302.11 -68.25 -290.83 -68.25 -290.83 -70.19 -302.11 -70.19 -296.96 -75.35 -298.34 -76.72" style="fill:none;clip-rule:evenodd"/></clipPath><clipPath id="clip-path-2"><polygon points="207.43 -167.3 215.91 -175.79 217.8 -173.9 207.19 -163.29 205.31 -165.18 202.16 -168.32 204.29 -170.44 207.43 -167.3" style="fill:none;clip-rule:evenodd"/></clipPath><clipPath id="clip-path-3"><polygon points="-26.07 -193.8 -17.59 -202.29 -15.7 -200.4 -26.31 -189.79 -28.19 -191.68 -31.34 -194.82 -29.21 -196.94 -26.07 -193.8" style="clip-rule:evenodd"/></clipPath><clipPath id="clip-path-4"><path d="M-16.26-223.89A8,8,0,0,0-18-226.43a8,8,0,0,0-2.54-1.71,8,8,0,0,0-3.11-.63,8,8,0,0,0-3.11.63,8,8,0,0,0-2.54,1.71A8,8,0,0,0-31-223.89a8,8,0,0,0-.63,3.11,8,8,0,0,0,.63,3.11,8,8,0,0,0,1.71,2.54,8,8,0,0,0,2.54,1.71,8,8,0,0,0,3.11.63,8,8,0,0,0,3.11-.63A8,8,0,0,0-18-215.12a8,8,0,0,0,1.71-2.54,8,8,0,0,0,.63-3.11A8,8,0,0,0-16.26-223.89Zm-7.37,8.61a1.09,1.09,0,0,1-1.09-1.09,1.09,1.09,0,0,1,1.09-1.09,1.09,1.09,0,0,1,1.09,1.09A1.09,1.09,0,0,1-23.63-215.28Zm1.09-3.64a.2.2,0,0,1-.2.2h-1.78a.2.2,0,0,1-.2-.2v-7.17a.2.2,0,0,1,.2-.2h1.78a.2.2,0,0,1,.2.2v7.17Z" style="clip-rule:evenodd"/></clipPath><clipPath id="clip-path-5"><circle cx="174.16" cy="-30.22" r="12" style="fill:none"/></clipPath><clipPath id="clip-path-7"><circle cx="254.16" cy="-39.22" r="16" style="fill:none"/></clipPath></defs><title>Radio - Ring + Fill</title><polygon points="-26.07 -193.8 -17.59 -202.29 -15.7 -200.4 -26.31 -189.79 -28.19 -191.68 -31.34 -194.82 -29.21 -196.94 -26.07 -193.8" style="fill-rule:evenodd"/><g style="clip-path:url(#clip-path-3)"><rect x="-631.34" y="-836.72" width="2448" height="1584"/></g><path d="M12,23A11,11,0,1,1,23,12,11,11,0,0,1,12,23Z" style="fill:#fff"/><path d="M12,2A10,10,0,1,1,2,12,10,10,0,0,1,12,2m0-2A12,12,0,1,0,24,12,12,12,0,0,0,12,0Z"/><path d="M-16.26-223.89A8,8,0,0,0-18-226.43a8,8,0,0,0-2.54-1.71,8,8,0,0,0-3.11-.63,8,8,0,0,0-3.11.63,8,8,0,0,0-2.54,1.71A8,8,0,0,0-31-223.89a8,8,0,0,0-.63,3.11,8,8,0,0,0,.63,3.11,8,8,0,0,0,1.71,2.54,8,8,0,0,0,2.54,1.71,8,8,0,0,0,3.11.63,8,8,0,0,0,3.11-.63A8,8,0,0,0-18-215.12a8,8,0,0,0,1.71-2.54,8,8,0,0,0,.63-3.11A8,8,0,0,0-16.26-223.89Zm-7.37,8.61a1.09,1.09,0,0,1-1.09-1.09,1.09,1.09,0,0,1,1.09-1.09,1.09,1.09,0,0,1,1.09,1.09A1.09,1.09,0,0,1-23.63-215.28Zm1.09-3.64a.2.2,0,0,1-.2.2h-1.78a.2.2,0,0,1-.2-.2v-7.17a.2.2,0,0,1,.2-.2h1.78a.2.2,0,0,1,.2.2v7.17Z" style="fill-rule:evenodd"/><g style="clip-path:url(#clip-path-4)"><rect x="-1763.63" y="-644.78" width="2448" height="1584"/></g></svg>