<svg id="Layer_1" data-name="Layer 1" xmlns="http://www.w3.org/2000/svg" xmlns:xlink="http://www.w3.org/1999/xlink" viewBox="0 0 24 24"><defs><clipPath id="clip-path"><polygon points="-267.46 -76.72 -274.96 -69.22 -267.46 -61.72 -266.08 -63.1 -271.24 -68.25 -259.96 -68.25 -259.96 -70.19 -271.24 -70.19 -266.08 -75.35 -267.46 -76.72" style="fill:none;clip-rule:evenodd"/></clipPath><clipPath id="clip-path-2"><polygon points="238.3 -167.3 246.79 -175.79 248.68 -173.9 238.07 -163.29 236.18 -165.18 233.04 -168.32 235.16 -170.44 238.3 -167.3" style="fill:none;clip-rule:evenodd"/></clipPath><clipPath id="clip-path-3"><polygon points="4.8 -193.8 13.29 -202.29 15.18 -200.4 4.57 -189.79 2.68 -191.68 -0.46 -194.82 1.66 -196.94 4.8 -193.8" style="clip-rule:evenodd"/></clipPath><clipPath id="clip-path-4"><path d="M14.62-223.89a8,8,0,0,0-1.71-2.54,8,8,0,0,0-2.54-1.71,8,8,0,0,0-3.11-.63,8,8,0,0,0-3.11.63,8,8,0,0,0-2.54,1.71,8,8,0,0,0-1.71,2.54,8,8,0,0,0-.63,3.11,8,8,0,0,0,.63,3.11,8,8,0,0,0,1.71,2.54,8,8,0,0,0,2.54,1.71,8,8,0,0,0,3.11.63,8,8,0,0,0,3.11-.63,8,8,0,0,0,2.54-1.71,8,8,0,0,0,1.71-2.54,8,8,0,0,0,.63-3.11A8,8,0,0,0,14.62-223.89Zm-7.37,8.61a1.09,1.09,0,0,1-1.09-1.09,1.09,1.09,0,0,1,1.09-1.09,1.09,1.09,0,0,1,1.09,1.09A1.09,1.09,0,0,1,7.24-215.28Zm1.09-3.64a.2.2,0,0,1-.2.2H6.35a.2.2,0,0,1-.2-.2v-7.17a.2.2,0,0,1,.2-.2H8.14a.2.2,0,0,1,.2.2v7.17Z" style="clip-rule:evenodd"/></clipPath><clipPath id="clip-path-5"><circle cx="205.04" cy="-30.22" r="12" style="fill:none"/></clipPath><clipPath id="clip-path-7"><circle cx="285.04" cy="-39.22" r="16" style="fill:none"/></clipPath></defs><title>Radio Full</title><polygon points="4.8 -193.8 13.29 -202.29 15.18 -200.4 4.57 -189.79 2.68 -191.68 -0.46 -194.82 1.66 -196.94 4.8 -193.8" style="fill-rule:evenodd"/><g style="clip-path:url(#clip-path-3)"><rect x="-600.46" y="-836.72" width="2448" height="1584"/></g><path d="M12,2A10,10,0,1,1,2,12,10,10,0,0,1,12,2m0-2A12,12,0,1,0,24,12,12,12,0,0,0,12,0Z"/><circle cx="12" cy="12" r="8"/><path d="M14.62-223.89a8,8,0,0,0-1.71-2.54,8,8,0,0,0-2.54-1.71,8,8,0,0,0-3.11-.63,8,8,0,0,0-3.11.63,8,8,0,0,0-2.54,1.71,8,8,0,0,0-1.71,2.54,8,8,0,0,0-.63,3.11,8,8,0,0,0,.63,3.11,8,8,0,0,0,1.71,2.54,8,8,0,0,0,2.54,1.71,8,8,0,0,0,3.11.63,8,8,0,0,0,3.11-.63,8,8,0,0,0,2.54-1.71,8,8,0,0,0,1.71-2.54,8,8,0,0,0,.63-3.11A8,8,0,0,0,14.62-223.89Zm-7.37,8.61a1.09,1.09,0,0,1-1.09-1.09,1.09,1.09,0,0,1,1.09-1.09,1.09,1.09,0,0,1,1.09,1.09A1.09,1.09,0,0,1,7.24-215.28Zm1.09-3.64a.2.2,0,0,1-.2.2H6.35a.2.2,0,0,1-.2-.2v-7.17a.2.2,0,0,1,.2-.2H8.14a.2.2,0,0,1,.2.2v7.17Z" style="fill-rule:evenodd"/><g style="clip-path:url(#clip-path-4)"><rect x="-1732.76" y="-644.78" width="2448" height="1584"/></g></svg>