<svg xmlns="http://www.w3.org/2000/svg" xmlns:xlink="http://www.w3.org/1999/xlink" width="16" height="16" viewBox="0 0 16 16"><defs><style>.a{fill:none;clip-rule:evenodd;}.b{clip-path:url(#a);}.c{clip-path:url(#b);}</style><clipPath id="a"><polygon class="a" points="-63.5 65 -56 57.5 -63.5 50 -64.88 51.38 -59.73 56.53 -71 56.53 -71 58.47 -59.73 58.47 -64.88 63.62 -63.5 65"/></clipPath><clipPath id="b"><polygon class="a" points="-92.58 257 -100.08 249.5 -107.58 257 -106.21 258.38 -101.06 253.22 -101.06 264.5 -99.11 264.5 -99.11 253.22 -93.96 258.38 -92.58 257"/></clipPath></defs><title>remove-2</title><path d="M3,.16.16,3l5,5-5,5L3,15.84l5-5,5,5L15.84,13l-5-5,5-5L13,.16l-5,5Z"/></svg>