<svg xmlns="http://www.w3.org/2000/svg" xmlns:xlink="http://www.w3.org/1999/xlink" width="16" height="16" viewBox="0 0 16 16"><defs><style>.a{fill:none;clip-rule:evenodd;}.b{clip-path:url(#a);}.c{clip-path:url(#b);}</style><clipPath id="a"><polygon class="a" points="44.5 -34.5 52 -42 44.5 -49.5 43.12 -48.12 48.27 -42.97 37 -42.97 37 -41.03 48.27 -41.03 43.12 -35.88 44.5 -34.5"/></clipPath><clipPath id="b"><polygon class="a" points="15.42 157.5 7.92 150 0.42 157.5 1.79 158.88 6.94 153.72 6.94 165 8.89 165 8.89 153.72 14.04 158.88 15.42 157.5"/></clipPath></defs><title>rotateleft-1</title><path d="M2.09,9a6.08,6.08,0,0,0,4.57,4.84,6.08,6.08,0,0,0,6.87-3.5,6.1,6.1,0,0,0-2.06-7.25,6.06,6.06,0,0,0-7.69.66L6,6H0V0L2.34,2.34A8.07,8.07,0,0,1,7.34,0C7.57,0,7.8,0,8,0a8,8,0,0,1,4.59,1.47,8.06,8.06,0,0,1,2.75,9.66,8.06,8.06,0,0,1-9.16,4.69A8.07,8.07,0,0,1,.07,9Z"/></svg>