<svg xmlns="http://www.w3.org/2000/svg" xmlns:xlink="http://www.w3.org/1999/xlink" width="16" height="16" viewBox="0 0 16 16"><defs><style>.a{fill:none;clip-rule:evenodd;}.b{clip-path:url(#a);}.c{clip-path:url(#b);}</style><clipPath id="a"><polygon class="a" points="8.5 -34.5 16 -42 8.5 -49.5 7.12 -48.12 12.28 -42.97 1 -42.97 1 -41.03 12.28 -41.03 7.12 -35.88 8.5 -34.5"/></clipPath><clipPath id="b"><polygon class="a" points="-20.58 157.5 -28.08 150 -35.58 157.5 -34.21 158.88 -29.06 153.72 -29.06 165 -27.11 165 -27.11 153.72 -21.96 158.88 -20.58 157.5"/></clipPath></defs><title>rotateright-1</title><path d="M13.91,9a6.08,6.08,0,0,1-4.57,4.84,6.08,6.08,0,0,1-6.88-3.5A6.1,6.1,0,0,1,4.53,3.09a6.06,6.06,0,0,1,7.69.66L10,6h6V0L13.66,2.34A8.07,8.07,0,0,0,8.66,0C8.43,0,8.2,0,8,0A8,8,0,0,0,3.37,1.47,8.06,8.06,0,0,0,.62,11.13a8.06,8.06,0,0,0,9.16,4.69A8.07,8.07,0,0,0,15.93,9Z"/></svg>