<svg xmlns="http://www.w3.org/2000/svg" xmlns:xlink="http://www.w3.org/1999/xlink" width="16" height="16" viewBox="0 0 16 16"><defs><style>.a{fill:none;clip-rule:evenodd;}.b{clip-path:url(#a);}.c{clip-path:url(#b);}.d{fill:#131517;}</style><clipPath id="a"><polygon class="a" points="-63.5 -34.5 -56 -42 -63.5 -49.5 -64.88 -48.12 -59.73 -42.97 -71 -42.97 -71 -41.03 -59.73 -41.03 -64.88 -35.88 -63.5 -34.5"/></clipPath><clipPath id="b"><polygon class="a" points="-92.58 157.5 -100.08 150 -107.58 157.5 -106.21 158.88 -101.06 153.72 -101.06 165 -99.11 165 -99.11 153.72 -93.96 158.88 -92.58 157.5"/></clipPath></defs><title>search-1</title><path class="d" d="M6.54,10.63A4.09,4.09,0,1,0,2.45,6.54a4.09,4.09,0,0,0,4.09,4.09M12,10.22l4,4L14.27,16l-4-4A6.54,6.54,0,1,1,12,10.22"/></svg>