<svg id="Layer_1" data-name="Layer 1" xmlns="http://www.w3.org/2000/svg" xmlns:xlink="http://www.w3.org/1999/xlink" viewBox="0 0 24 24"><defs><clipPath id="clip-path"><polygon points="-465.72 -138.18 -473.22 -130.67 -465.72 -123.17 -464.34 -124.55 -469.49 -129.7 -458.22 -129.7 -458.22 -131.65 -469.49 -131.65 -464.34 -136.8 -465.72 -138.18" style="fill:none;clip-rule:evenodd"/></clipPath><clipPath id="clip-path-2"><polygon points="40.05 -228.75 48.53 -237.24 50.42 -235.35 39.81 -224.75 37.92 -226.63 34.78 -229.78 36.9 -231.9 40.05 -228.75" style="fill:none;clip-rule:evenodd"/></clipPath><clipPath id="clip-path-3"><polygon points="-193.46 -255.25 -184.97 -263.74 -183.08 -261.85 -193.69 -251.25 -195.58 -253.13 -198.72 -256.27 -196.6 -258.4 -193.46 -255.25" style="clip-rule:evenodd"/></clipPath><clipPath id="clip-path-4"><path d="M-183.64-285.34a8,8,0,0,0-1.71-2.54,8,8,0,0,0-2.54-1.71,8,8,0,0,0-3.11-.63,8,8,0,0,0-3.11.63,8,8,0,0,0-2.54,1.71,8,8,0,0,0-1.71,2.54,8,8,0,0,0-.63,3.11,8,8,0,0,0,.63,3.11,8,8,0,0,0,1.71,2.54,8,8,0,0,0,2.54,1.71,8,8,0,0,0,3.11.63,8,8,0,0,0,3.11-.63,8,8,0,0,0,2.54-1.71,8,8,0,0,0,1.71-2.54,8,8,0,0,0,.63-3.11A8,8,0,0,0-183.64-285.34Zm-7.37,8.61a1.09,1.09,0,0,1-1.09-1.09,1.09,1.09,0,0,1,1.09-1.09,1.09,1.09,0,0,1,1.09,1.09A1.09,1.09,0,0,1-191-276.73Zm1.09-3.64a.2.2,0,0,1-.2.2h-1.78a.2.2,0,0,1-.2-.2v-7.17a.2.2,0,0,1,.2-.2h1.78a.2.2,0,0,1,.2.2v7.17Z" style="clip-rule:evenodd"/></clipPath><clipPath id="clip-path-5"><circle cx="6.78" cy="-91.67" r="12" style="fill:none"/></clipPath><clipPath id="clip-path-7"><circle cx="86.78" cy="-100.67" r="16" style="fill:none"/></clipPath></defs><title>Switch - Small</title><polygon points="-193.46 -255.25 -184.97 -263.74 -183.08 -261.85 -193.69 -251.25 -195.58 -253.13 -198.72 -256.27 -196.6 -258.4 -193.46 -255.25" style="fill-rule:evenodd"/><g style="clip-path:url(#clip-path-3)"><rect x="-798.72" y="-898.17" width="2448" height="1584"/></g><path d="M-183.64-285.34a8,8,0,0,0-1.71-2.54,8,8,0,0,0-2.54-1.71,8,8,0,0,0-3.11-.63,8,8,0,0,0-3.11.63,8,8,0,0,0-2.54,1.71,8,8,0,0,0-1.71,2.54,8,8,0,0,0-.63,3.11,8,8,0,0,0,.63,3.11,8,8,0,0,0,1.71,2.54,8,8,0,0,0,2.54,1.71,8,8,0,0,0,3.11.63,8,8,0,0,0,3.11-.63,8,8,0,0,0,2.54-1.71,8,8,0,0,0,1.71-2.54,8,8,0,0,0,.63-3.11A8,8,0,0,0-183.64-285.34Zm-7.37,8.61a1.09,1.09,0,0,1-1.09-1.09,1.09,1.09,0,0,1,1.09-1.09,1.09,1.09,0,0,1,1.09,1.09A1.09,1.09,0,0,1-191-276.73Zm1.09-3.64a.2.2,0,0,1-.2.2h-1.78a.2.2,0,0,1-.2-.2v-7.17a.2.2,0,0,1,.2-.2h1.78a.2.2,0,0,1,.2.2v7.17Z" style="fill-rule:evenodd"/><g style="clip-path:url(#clip-path-4)"><rect x="-1931.01" y="-706.23" width="2448" height="1584"/></g><path d="M12,23.5A11.5,11.5,0,1,1,23.5,12,11.51,11.51,0,0,1,12,23.5Z" style="fill:#fff;fill-rule:evenodd"/><path d="M12,1A11,11,0,1,1,1,12,11,11,0,0,1,12,1m0-1A12,12,0,1,0,24,12,12,12,0,0,0,12,0Z"/></svg>