<svg xmlns="http://www.w3.org/2000/svg" xmlns:xlink="http://www.w3.org/1999/xlink" width="16" height="16" viewBox="0 0 16 16"><defs><style>.a{fill:none;clip-rule:evenodd;}.b{clip-path:url(#a);}.c{clip-path:url(#b);}</style><clipPath id="a"><polygon class="a" points="-135.5 -84.5 -128 -92 -135.5 -99.5 -136.88 -98.12 -131.72 -92.97 -143 -92.97 -143 -91.03 -131.72 -91.03 -136.88 -85.88 -135.5 -84.5"/></clipPath><clipPath id="b"><polygon class="a" points="-164.58 107.5 -172.08 100 -179.58 107.5 -178.21 108.88 -173.06 103.72 -173.06 115 -171.11 115 -171.11 103.72 -165.96 108.88 -164.58 107.5"/></clipPath></defs><title>team-1</title><path d="M4,3A2.29,2.29,0,0,0,2,5.5,2.29,2.29,0,0,0,4,8a1.75,1.75,0,0,0,1.16-.47A3.91,3.91,0,0,1,5,6.5a3.81,3.81,0,0,1,.72-2.25A2,2,0,0,0,4,3Zm8,0a2,2,0,0,0-1.72,1.25A3.81,3.81,0,0,1,11,6.5a3.92,3.92,0,0,1-.16,1A1.75,1.75,0,0,0,12,8a2.29,2.29,0,0,0,2-2.5A2.29,2.29,0,0,0,12,3ZM8,4A2.29,2.29,0,0,0,6,6.5,2.29,2.29,0,0,0,8,9a2.29,2.29,0,0,0,2-2.5A2.29,2.29,0,0,0,8,4ZM1.91,8A2,2,0,0,0,0,10v2H3V11a3,3,0,0,1,.81-2A2.86,2.86,0,0,1,1.91,8ZM14.09,8a2.86,2.86,0,0,1-1.91,1A3,3,0,0,1,13,11v1h3V10a2,2,0,0,0-1.91-2ZM5.91,9A2,2,0,0,0,4,11v2h8V11a2,2,0,0,0-1.91-2A2.81,2.81,0,0,1,8,10,2.81,2.81,0,0,1,5.91,9Z"/></svg>