<svg id="Layer_1" data-name="Layer 1" xmlns="http://www.w3.org/2000/svg" xmlns:xlink="http://www.w3.org/1999/xlink" viewBox="0 0 64 28"><defs><clipPath id="clip-path"><polygon points="-384.75 -104.5 -392.25 -97 -384.75 -89.5 -383.37 -90.88 -388.52 -96.03 -377.25 -96.03 -377.25 -97.97 -388.52 -97.97 -383.37 -103.12 -384.75 -104.5" style="fill:none;clip-rule:evenodd"/></clipPath><clipPath id="clip-path-2"><polygon points="121.01 -195.08 129.5 -203.56 131.38 -201.68 120.78 -191.07 118.89 -192.96 115.75 -196.1 117.87 -198.22 121.01 -195.08" style="fill:none;clip-rule:evenodd"/></clipPath><clipPath id="clip-path-3"><polygon points="-112.49 -221.58 -104 -230.06 -102.11 -228.18 -112.72 -217.57 -114.61 -219.46 -117.75 -222.6 -115.63 -224.72 -112.49 -221.58" style="clip-rule:evenodd"/></clipPath><clipPath id="clip-path-4"><path d="M-102.67-251.67a8,8,0,0,0-1.71-2.54,8,8,0,0,0-2.54-1.71,8,8,0,0,0-3.11-.63,8,8,0,0,0-3.11.63,8,8,0,0,0-2.54,1.71,8,8,0,0,0-1.71,2.54,8,8,0,0,0-.63,3.11,8,8,0,0,0,.63,3.11,8,8,0,0,0,1.71,2.54,8,8,0,0,0,2.54,1.71,8,8,0,0,0,3.11.63,8,8,0,0,0,3.11-.63,8,8,0,0,0,2.54-1.71,8,8,0,0,0,1.71-2.54,8,8,0,0,0,.63-3.11A8,8,0,0,0-102.67-251.67Zm-7.37,8.61a1.09,1.09,0,0,1-1.09-1.09,1.09,1.09,0,0,1,1.09-1.09,1.09,1.09,0,0,1,1.09,1.09A1.09,1.09,0,0,1-110-243.05Zm1.09-3.64a.2.2,0,0,1-.2.2h-1.78a.2.2,0,0,1-.2-.2v-7.17a.2.2,0,0,1,.2-.2h1.78a.2.2,0,0,1,.2.2v7.17Z" style="clip-rule:evenodd"/></clipPath><clipPath id="clip-path-5"><circle cx="87.75" cy="-58" r="12" style="fill:none"/></clipPath><clipPath id="clip-path-7"><circle cx="167.75" cy="-67" r="16" style="fill:none"/></clipPath></defs><title>Track - Large</title><polygon points="-112.49 -221.58 -104 -230.06 -102.11 -228.18 -112.72 -217.57 -114.61 -219.46 -117.75 -222.6 -115.63 -224.72 -112.49 -221.58" style="fill-rule:evenodd"/><g style="clip-path:url(#clip-path-3)"><rect x="-717.75" y="-864.5" width="2448" height="1584"/></g><path d="M-102.67-251.67a8,8,0,0,0-1.71-2.54,8,8,0,0,0-2.54-1.71,8,8,0,0,0-3.11-.63,8,8,0,0,0-3.11.63,8,8,0,0,0-2.54,1.71,8,8,0,0,0-1.71,2.54,8,8,0,0,0-.63,3.11,8,8,0,0,0,.63,3.11,8,8,0,0,0,1.71,2.54,8,8,0,0,0,2.54,1.71,8,8,0,0,0,3.11.63,8,8,0,0,0,3.11-.63,8,8,0,0,0,2.54-1.71,8,8,0,0,0,1.71-2.54,8,8,0,0,0,.63-3.11A8,8,0,0,0-102.67-251.67Zm-7.37,8.61a1.09,1.09,0,0,1-1.09-1.09,1.09,1.09,0,0,1,1.09-1.09,1.09,1.09,0,0,1,1.09,1.09A1.09,1.09,0,0,1-110-243.05Zm1.09-3.64a.2.2,0,0,1-.2.2h-1.78a.2.2,0,0,1-.2-.2v-7.17a.2.2,0,0,1,.2-.2h1.78a.2.2,0,0,1,.2.2v7.17Z" style="fill-rule:evenodd"/><g style="clip-path:url(#clip-path-4)"><rect x="-1850.05" y="-672.55" width="2448" height="1584"/></g><path d="M14,0H50a14,14,0,0,1,0,28H14A14,14,0,0,1,14,0Z" style="fill-rule:evenodd"/></svg>