<svg id="Layer_1" data-name="Layer 1" xmlns="http://www.w3.org/2000/svg" xmlns:xlink="http://www.w3.org/1999/xlink" viewBox="0 0 48 20"><defs><clipPath id="clip-path"><polygon points="-498.99 -101.22 -506.49 -93.72 -498.99 -86.22 -497.61 -87.59 -502.76 -92.74 -491.49 -92.74 -491.49 -94.69 -502.76 -94.69 -497.61 -99.84 -498.99 -101.22" style="fill:none;clip-rule:evenodd"/></clipPath><clipPath id="clip-path-2"><polygon points="6.78 -191.8 15.26 -200.28 17.15 -198.4 6.54 -187.79 4.66 -189.68 1.51 -192.82 3.64 -194.94 6.78 -191.8" style="fill:none;clip-rule:evenodd"/></clipPath><clipPath id="clip-path-3"><polygon points="-226.72 -218.3 -218.24 -226.78 -216.35 -224.9 -226.96 -214.29 -228.84 -216.18 -231.99 -219.32 -229.86 -221.44 -226.72 -218.3" style="clip-rule:evenodd"/></clipPath><clipPath id="clip-path-4"><path d="M-216.91-248.38a8,8,0,0,0-1.71-2.54,8,8,0,0,0-2.54-1.71,8,8,0,0,0-3.11-.63,8,8,0,0,0-3.11.63,8,8,0,0,0-2.54,1.71,8,8,0,0,0-1.71,2.54,8,8,0,0,0-.63,3.11,8,8,0,0,0,.63,3.11,8,8,0,0,0,1.71,2.54,8,8,0,0,0,2.54,1.71,8,8,0,0,0,3.11.63,8,8,0,0,0,3.11-.63,8,8,0,0,0,2.54-1.71,8,8,0,0,0,1.71-2.54,8,8,0,0,0,.63-3.11A8,8,0,0,0-216.91-248.38Zm-7.37,8.61a1.09,1.09,0,0,1-1.09-1.09,1.09,1.09,0,0,1,1.09-1.09,1.09,1.09,0,0,1,1.09,1.09A1.09,1.09,0,0,1-224.28-239.77Zm1.09-3.64a.2.2,0,0,1-.2.2h-1.78a.2.2,0,0,1-.2-.2v-7.17a.2.2,0,0,1,.2-.2h1.78a.2.2,0,0,1,.2.2v7.17Z" style="clip-rule:evenodd"/></clipPath><clipPath id="clip-path-5"><circle cx="-26.49" cy="-54.72" r="12" style="fill:none"/></clipPath><clipPath id="clip-path-7"><circle cx="53.51" cy="-63.72" r="16" style="fill:none"/></clipPath></defs><title>Track - Small</title><polygon points="-226.72 -218.3 -218.24 -226.78 -216.35 -224.9 -226.96 -214.29 -228.84 -216.18 -231.99 -219.32 -229.86 -221.44 -226.72 -218.3" style="fill-rule:evenodd"/><g style="clip-path:url(#clip-path-3)"><rect x="-831.99" y="-861.22" width="2448" height="1584"/></g><path d="M-216.91-248.38a8,8,0,0,0-1.71-2.54,8,8,0,0,0-2.54-1.71,8,8,0,0,0-3.11-.63,8,8,0,0,0-3.11.63,8,8,0,0,0-2.54,1.71,8,8,0,0,0-1.71,2.54,8,8,0,0,0-.63,3.11,8,8,0,0,0,.63,3.11,8,8,0,0,0,1.71,2.54,8,8,0,0,0,2.54,1.71,8,8,0,0,0,3.11.63,8,8,0,0,0,3.11-.63,8,8,0,0,0,2.54-1.71,8,8,0,0,0,1.71-2.54,8,8,0,0,0,.63-3.11A8,8,0,0,0-216.91-248.38Zm-7.37,8.61a1.09,1.09,0,0,1-1.09-1.09,1.09,1.09,0,0,1,1.09-1.09,1.09,1.09,0,0,1,1.09,1.09A1.09,1.09,0,0,1-224.28-239.77Zm1.09-3.64a.2.2,0,0,1-.2.2h-1.78a.2.2,0,0,1-.2-.2v-7.17a.2.2,0,0,1,.2-.2h1.78a.2.2,0,0,1,.2.2v7.17Z" style="fill-rule:evenodd"/><g style="clip-path:url(#clip-path-4)"><rect x="-1964.28" y="-669.27" width="2448" height="1584"/></g><path d="M10,0H38a10,10,0,0,1,0,20H10A10,10,0,0,1,10,0Z" style="fill-rule:evenodd"/></svg>