<svg xmlns="http://www.w3.org/2000/svg" xmlns:xlink="http://www.w3.org/1999/xlink" width="16" height="16" viewBox="0 0 16 16"><defs><style>.a{fill:none;clip-rule:evenodd;}.b{clip-path:url(#a);}.c{clip-path:url(#b);}</style><clipPath id="a"><polygon class="a" points="-63.5 -134.5 -56 -142 -63.5 -149.5 -64.88 -148.12 -59.73 -142.97 -71 -142.97 -71 -141.03 -59.73 -141.03 -64.88 -135.88 -63.5 -134.5"/></clipPath><clipPath id="b"><polygon class="a" points="-92.58 57.5 -100.08 50 -107.58 57.5 -106.21 58.88 -101.06 53.73 -101.06 65 -99.11 65 -99.11 53.73 -93.96 58.88 -92.58 57.5"/></clipPath></defs><title>trash-1</title><path d="M5.75,0A.76.76,0,0,0,5,.75V2H2A2,2,0,0,0,0,4H15a2,2,0,0,0-2-2H10V.75A.76.76,0,0,0,9.25,0ZM6,1H9V2H6ZM2,5V15.5a.5.5,0,0,0,.5.5h10a.5.5,0,0,0,.5-.5V5H11v8.5a.5.5,0,0,1-1,0V5H8v8.5a.5.5,0,0,1-1,0V5H5v8.5a.5.5,0,0,1-1,0V5Z"/></svg>