<svg xmlns="http://www.w3.org/2000/svg" xmlns:xlink="http://www.w3.org/1999/xlink" width="16" height="16" viewBox="0 0 16 16"><defs><style>.a{fill:none;clip-rule:evenodd;}.b{clip-path:url(#a);}.c{clip-path:url(#b);}</style><clipPath id="a"><polygon class="a" points="-99.5 -134.5 -92 -142 -99.5 -149.5 -100.88 -148.12 -95.72 -142.97 -107 -142.97 -107 -141.03 -95.72 -141.03 -100.88 -135.88 -99.5 -134.5"/></clipPath><clipPath id="b"><polygon class="a" points="-128.58 57.5 -136.08 50 -143.58 57.5 -142.21 58.88 -137.06 53.73 -137.06 65 -135.11 65 -135.11 53.73 -129.96 58.88 -128.58 57.5"/></clipPath></defs><title>twitter-1</title><path d="M11.06,1A3.25,3.25,0,0,0,7.87,5,9.29,9.29,0,0,1,1.12,1.59,3.32,3.32,0,0,0,.66,3.25,3.27,3.27,0,0,0,2.12,6,3.19,3.19,0,0,1,.66,5.56v.06A3.28,3.28,0,0,0,3.28,8.85a3.37,3.37,0,0,1-.87.09,3.29,3.29,0,0,1-.62-.06,3.32,3.32,0,0,0,3.09,2.28A6.64,6.64,0,0,1,.78,12.56a6.73,6.73,0,0,1-.78,0A9.29,9.29,0,0,0,5,14a9.28,9.28,0,0,0,9.34-9.34c0-.14,0-.26,0-.41A6.71,6.71,0,0,0,16,2.53a6.5,6.5,0,0,1-1.87.53,3.28,3.28,0,0,0,1.44-1.81A6.59,6.59,0,0,1,13.47,2a3.3,3.3,0,0,0-2.41-1Z"/></svg>