<svg xmlns="http://www.w3.org/2000/svg" xmlns:xlink="http://www.w3.org/1999/xlink" width="16" height="16" viewBox="0 0 16 16"><defs><style>.a{fill:none;clip-rule:evenodd;}.b{clip-path:url(#a);}.c{clip-path:url(#b);}</style><clipPath id="a"><polygon class="a" points="44.38 -234.5 51.88 -242 44.38 -249.5 43 -248.12 48.15 -242.97 36.88 -242.97 36.88 -241.03 48.15 -241.03 43 -235.88 44.38 -234.5"/></clipPath><clipPath id="b"><polygon class="a" points="15.29 -42.5 7.79 -50 0.29 -42.5 1.67 -41.12 6.82 -46.27 6.82 -35 8.76 -35 8.76 -46.27 13.92 -41.12 15.29 -42.5"/></clipPath></defs><title>user-1</title><path d="M8,0C5.79,0,4,2.24,4,5s1.79,5,4,5,4-2.24,4-5S10.21,0,8,0ZM3.81,10A4.05,4.05,0,0,0,0,14v2H16V14a4.05,4.05,0,0,0-3.81-4A5.77,5.77,0,0,1,8,12a5.77,5.77,0,0,1-4.19-2Z"/></svg>