<svg xmlns="http://www.w3.org/2000/svg" xmlns:xlink="http://www.w3.org/1999/xlink" width="16" height="16" viewBox="0 0 16 16"><defs><style>.a{fill:none;clip-rule:evenodd;}.b{clip-path:url(#a);}.c{clip-path:url(#b);}</style><clipPath id="a"><polygon class="a" points="-27.5 -234.5 -20 -242 -27.5 -249.5 -28.88 -248.12 -23.73 -242.97 -35 -242.97 -35 -241.03 -23.73 -241.03 -28.88 -235.88 -27.5 -234.5"/></clipPath><clipPath id="b"><polygon class="a" points="-56.58 -42.5 -64.08 -50 -71.58 -42.5 -70.21 -41.12 -65.06 -46.27 -65.06 -35 -63.11 -35 -63.11 -46.27 -57.96 -41.12 -56.58 -42.5"/></clipPath></defs><title>view-grid-1</title><path d="M0,0V4H4V0ZM6,0V4h4V0Zm6,0V4h4V0ZM0,6v4H4V6ZM6,6v4h4V6Zm6,0v4h4V6ZM0,12v4H4V12Zm6,0v4h4V12Zm6,0v4h4V12Z"/></svg>